%TF.GenerationSoftware,KiCad,Pcbnew,(5.1.9)-1*%
%TF.CreationDate,2023-04-19T23:26:57+02:00*%
%TF.ProjectId,w27c512_ardu_prog_K24DP6B78EA,77323763-3531-4325-9f61-7264755f7072,rev?*%
%TF.SameCoordinates,Original*%
%TF.FileFunction,Legend,Top*%
%TF.FilePolarity,Positive*%
%FSLAX46Y46*%
G04 Gerber Fmt 4.6, Leading zero omitted, Abs format (unit mm)*
G04 Created by KiCad (PCBNEW (5.1.9)-1) date 2023-04-19 23:26:57*
%MOMM*%
%LPD*%
G01*
G04 APERTURE LIST*
%ADD10C,0.010000*%
%ADD11C,0.120000*%
%ADD12C,0.300000*%
%ADD13C,0.150000*%
G04 APERTURE END LIST*
D10*
%TO.C,G\u002A\u002A\u002A*%
G36*
X133287547Y-107069800D02*
G01*
X133295059Y-107093778D01*
X133284731Y-107110178D01*
X133255410Y-107144849D01*
X133209584Y-107195297D01*
X133149747Y-107259023D01*
X133078388Y-107333531D01*
X132997999Y-107416325D01*
X132911070Y-107504907D01*
X132820092Y-107596782D01*
X132727557Y-107689453D01*
X132635956Y-107780423D01*
X132547778Y-107867195D01*
X132465516Y-107947273D01*
X132391661Y-108018160D01*
X132328702Y-108077360D01*
X132279132Y-108122375D01*
X132245441Y-108150710D01*
X132231551Y-108159704D01*
X132196186Y-108176832D01*
X132157238Y-108203734D01*
X132154648Y-108205868D01*
X132122892Y-108229192D01*
X132099444Y-108240867D01*
X132097040Y-108241176D01*
X132076531Y-108250076D01*
X132045131Y-108272112D01*
X132037275Y-108278529D01*
X132003911Y-108302766D01*
X131977651Y-108315375D01*
X131973934Y-108315882D01*
X131950471Y-108326085D01*
X131927941Y-108345765D01*
X131901516Y-108368178D01*
X131882856Y-108375647D01*
X131861252Y-108384351D01*
X131826995Y-108406428D01*
X131808412Y-108420471D01*
X131771058Y-108446997D01*
X131740749Y-108463078D01*
X131731651Y-108465294D01*
X131705932Y-108475026D01*
X131684686Y-108491441D01*
X131653581Y-108514945D01*
X131610983Y-108539394D01*
X131602509Y-108543494D01*
X131567761Y-108562787D01*
X131548387Y-108579551D01*
X131546941Y-108583395D01*
X131534088Y-108596148D01*
X131503667Y-108606895D01*
X131461644Y-108624469D01*
X131433000Y-108646669D01*
X131399301Y-108675289D01*
X131360480Y-108698917D01*
X131252685Y-108757035D01*
X131181600Y-108805707D01*
X131149754Y-108827822D01*
X131126888Y-108838615D01*
X131124995Y-108838824D01*
X131105082Y-108847702D01*
X131074026Y-108869691D01*
X131066099Y-108876176D01*
X131032735Y-108900414D01*
X131006475Y-108913022D01*
X131002758Y-108913529D01*
X130979045Y-108923723D01*
X130957981Y-108942068D01*
X130922981Y-108968087D01*
X130892922Y-108980453D01*
X130854402Y-108998665D01*
X130820029Y-109026620D01*
X130788528Y-109051995D01*
X130759117Y-109062932D01*
X130758467Y-109062941D01*
X130729728Y-109073602D01*
X130698922Y-109099345D01*
X130698087Y-109100294D01*
X130665609Y-109137647D01*
X128728864Y-109137647D01*
X128678235Y-109100294D01*
X128640589Y-109076690D01*
X128608990Y-109063770D01*
X128602642Y-109062941D01*
X128574100Y-109054137D01*
X128539431Y-109032845D01*
X128538074Y-109031790D01*
X128495610Y-109006278D01*
X128446097Y-108986496D01*
X128442677Y-108985534D01*
X128397265Y-108968383D01*
X128360139Y-108946460D01*
X128357000Y-108943826D01*
X128321603Y-108922895D01*
X128276232Y-108908197D01*
X128273139Y-108907613D01*
X128229457Y-108893464D01*
X128195694Y-108871943D01*
X128193722Y-108869893D01*
X128161026Y-108847197D01*
X128119016Y-108832540D01*
X128076610Y-108817738D01*
X128044600Y-108795508D01*
X128013247Y-108774619D01*
X127969380Y-108759860D01*
X127962893Y-108758673D01*
X127918376Y-108745233D01*
X127896481Y-108731981D01*
X128901435Y-108731981D01*
X128901915Y-108819512D01*
X128902917Y-108896796D01*
X128904459Y-108958820D01*
X128906554Y-109000570D01*
X128908972Y-109016739D01*
X128927758Y-109024233D01*
X128967858Y-109029466D01*
X129020838Y-109032372D01*
X129078263Y-109032886D01*
X129131697Y-109030941D01*
X129172706Y-109026473D01*
X129192855Y-109019416D01*
X129193194Y-109018946D01*
X129196275Y-109000275D01*
X129199743Y-108956518D01*
X129203334Y-108892465D01*
X129206784Y-108812906D01*
X129209830Y-108722630D01*
X129210203Y-108709616D01*
X129214221Y-108593077D01*
X129219077Y-108503675D01*
X129223716Y-108452868D01*
X130099048Y-108452868D01*
X130099716Y-108553792D01*
X130101121Y-108665242D01*
X130105118Y-109025588D01*
X130284412Y-109033789D01*
X130355493Y-109037221D01*
X130416029Y-109040483D01*
X130459556Y-109043203D01*
X130479527Y-109044995D01*
X130503306Y-109039168D01*
X130519195Y-109029324D01*
X130526713Y-109019873D01*
X130532686Y-109002338D01*
X130537376Y-108973263D01*
X130541045Y-108929193D01*
X130543955Y-108866672D01*
X130546366Y-108782246D01*
X130548541Y-108672458D01*
X130549205Y-108632947D01*
X130550867Y-108510453D01*
X130551323Y-108414880D01*
X130550477Y-108343287D01*
X130548232Y-108292733D01*
X130544493Y-108260279D01*
X130539164Y-108242983D01*
X130536361Y-108239474D01*
X130512190Y-108232646D01*
X130461753Y-108228674D01*
X130388549Y-108227746D01*
X130336031Y-108228704D01*
X130266559Y-108230293D01*
X130211963Y-108232947D01*
X130170498Y-108239909D01*
X130140418Y-108254424D01*
X130119979Y-108279733D01*
X130107434Y-108319082D01*
X130101039Y-108375712D01*
X130099048Y-108452868D01*
X129223716Y-108452868D01*
X129225013Y-108438673D01*
X129232268Y-108395332D01*
X129239716Y-108373352D01*
X129259082Y-108317329D01*
X129253613Y-108273868D01*
X129243012Y-108259106D01*
X129221696Y-108251794D01*
X129179192Y-108246240D01*
X129123228Y-108242572D01*
X129061530Y-108240918D01*
X129001825Y-108241406D01*
X128951839Y-108244166D01*
X128919298Y-108249327D01*
X128911387Y-108253587D01*
X128908651Y-108272438D01*
X128906326Y-108316143D01*
X128904429Y-108379688D01*
X128902976Y-108458059D01*
X128901982Y-108546241D01*
X128901463Y-108639220D01*
X128901435Y-108731981D01*
X127896481Y-108731981D01*
X127883596Y-108724183D01*
X127880426Y-108721000D01*
X127847345Y-108697909D01*
X127805251Y-108683129D01*
X127762845Y-108668326D01*
X127730835Y-108646096D01*
X127699482Y-108625207D01*
X127655615Y-108610448D01*
X127649128Y-108609262D01*
X127604131Y-108595379D01*
X127568484Y-108573310D01*
X127565323Y-108570109D01*
X127532484Y-108547134D01*
X127504184Y-108540000D01*
X127470662Y-108530631D01*
X127432073Y-108507590D01*
X127425901Y-108502647D01*
X127389706Y-108478129D01*
X127357522Y-108465682D01*
X127352952Y-108465294D01*
X127323250Y-108456752D01*
X127284591Y-108435493D01*
X127273765Y-108427941D01*
X127234035Y-108404129D01*
X127198121Y-108391304D01*
X127190867Y-108390588D01*
X127158536Y-108380775D01*
X127122280Y-108356793D01*
X127118294Y-108353235D01*
X127081645Y-108327973D01*
X127045833Y-108316027D01*
X127042553Y-108315882D01*
X127007919Y-108306473D01*
X126968745Y-108283346D01*
X126962725Y-108278529D01*
X126926379Y-108253997D01*
X126893882Y-108241559D01*
X126889278Y-108241176D01*
X126860878Y-108232643D01*
X126823471Y-108211534D01*
X126786520Y-108184589D01*
X126759489Y-108158547D01*
X126751368Y-108142965D01*
X126739452Y-108125538D01*
X126706759Y-108094049D01*
X126656922Y-108051674D01*
X126593574Y-108001589D01*
X126564059Y-107979203D01*
X126529094Y-107952497D01*
X126479974Y-107914383D01*
X126425923Y-107872064D01*
X126376163Y-107832746D01*
X126358409Y-107818576D01*
X126318989Y-107784644D01*
X126284744Y-107751853D01*
X126257719Y-107728159D01*
X126238030Y-107718236D01*
X126237966Y-107718235D01*
X126217811Y-107708699D01*
X126192102Y-107687469D01*
X126162183Y-107660681D01*
X126120031Y-107625783D01*
X126093412Y-107604781D01*
X126027786Y-107553730D01*
X125980813Y-107516125D01*
X125947190Y-107487551D01*
X125921614Y-107463591D01*
X125911215Y-107453029D01*
X125883630Y-107429079D01*
X125862864Y-107418775D01*
X125843689Y-107409207D01*
X125810749Y-107385142D01*
X125781762Y-107360942D01*
X125738991Y-107314655D01*
X125724908Y-107275691D01*
X125739423Y-107243322D01*
X125764933Y-107225055D01*
X125780402Y-107219182D01*
X125796801Y-107221456D01*
X125819080Y-107234984D01*
X125852187Y-107262870D01*
X125901070Y-107308220D01*
X125908219Y-107314972D01*
X125934155Y-107336466D01*
X125949962Y-107344706D01*
X125965224Y-107353736D01*
X125998838Y-107378433D01*
X126046303Y-107415210D01*
X126103119Y-107460480D01*
X126164787Y-107510655D01*
X126226807Y-107562148D01*
X126284677Y-107611371D01*
X126287311Y-107613647D01*
X126320176Y-107640628D01*
X126367815Y-107678002D01*
X126420913Y-107718482D01*
X126430559Y-107725706D01*
X126483387Y-107765912D01*
X126532179Y-107804369D01*
X126567756Y-107833818D01*
X126572229Y-107837765D01*
X126640221Y-107897156D01*
X126704924Y-107950730D01*
X126737911Y-107976485D01*
X126772392Y-108002589D01*
X126815391Y-108035239D01*
X126828397Y-108045133D01*
X126883558Y-108087119D01*
X127831071Y-108095528D01*
X128079132Y-108097464D01*
X128328305Y-108098902D01*
X128576715Y-108099858D01*
X128822486Y-108100346D01*
X129063743Y-108100384D01*
X129298613Y-108099987D01*
X129525218Y-108099172D01*
X129741686Y-108097953D01*
X129946140Y-108096347D01*
X130136706Y-108094370D01*
X130311508Y-108092038D01*
X130468673Y-108089367D01*
X130606324Y-108086372D01*
X130722587Y-108083070D01*
X130815587Y-108079476D01*
X130883449Y-108075606D01*
X130924298Y-108071477D01*
X130934353Y-108069189D01*
X130970366Y-108060704D01*
X131032532Y-108052429D01*
X131117121Y-108044564D01*
X131220401Y-108037304D01*
X131338645Y-108030848D01*
X131468120Y-108025393D01*
X131605098Y-108021136D01*
X131745849Y-108018276D01*
X131886643Y-108017008D01*
X131920783Y-108016964D01*
X132242331Y-108017059D01*
X132719598Y-107538933D01*
X132818586Y-107440130D01*
X132911707Y-107347878D01*
X132996727Y-107264343D01*
X133071410Y-107191688D01*
X133133522Y-107132076D01*
X133180827Y-107087674D01*
X133211090Y-107060643D01*
X133221445Y-107053006D01*
X133260093Y-107051568D01*
X133287547Y-107069800D01*
G37*
X133287547Y-107069800D02*
X133295059Y-107093778D01*
X133284731Y-107110178D01*
X133255410Y-107144849D01*
X133209584Y-107195297D01*
X133149747Y-107259023D01*
X133078388Y-107333531D01*
X132997999Y-107416325D01*
X132911070Y-107504907D01*
X132820092Y-107596782D01*
X132727557Y-107689453D01*
X132635956Y-107780423D01*
X132547778Y-107867195D01*
X132465516Y-107947273D01*
X132391661Y-108018160D01*
X132328702Y-108077360D01*
X132279132Y-108122375D01*
X132245441Y-108150710D01*
X132231551Y-108159704D01*
X132196186Y-108176832D01*
X132157238Y-108203734D01*
X132154648Y-108205868D01*
X132122892Y-108229192D01*
X132099444Y-108240867D01*
X132097040Y-108241176D01*
X132076531Y-108250076D01*
X132045131Y-108272112D01*
X132037275Y-108278529D01*
X132003911Y-108302766D01*
X131977651Y-108315375D01*
X131973934Y-108315882D01*
X131950471Y-108326085D01*
X131927941Y-108345765D01*
X131901516Y-108368178D01*
X131882856Y-108375647D01*
X131861252Y-108384351D01*
X131826995Y-108406428D01*
X131808412Y-108420471D01*
X131771058Y-108446997D01*
X131740749Y-108463078D01*
X131731651Y-108465294D01*
X131705932Y-108475026D01*
X131684686Y-108491441D01*
X131653581Y-108514945D01*
X131610983Y-108539394D01*
X131602509Y-108543494D01*
X131567761Y-108562787D01*
X131548387Y-108579551D01*
X131546941Y-108583395D01*
X131534088Y-108596148D01*
X131503667Y-108606895D01*
X131461644Y-108624469D01*
X131433000Y-108646669D01*
X131399301Y-108675289D01*
X131360480Y-108698917D01*
X131252685Y-108757035D01*
X131181600Y-108805707D01*
X131149754Y-108827822D01*
X131126888Y-108838615D01*
X131124995Y-108838824D01*
X131105082Y-108847702D01*
X131074026Y-108869691D01*
X131066099Y-108876176D01*
X131032735Y-108900414D01*
X131006475Y-108913022D01*
X131002758Y-108913529D01*
X130979045Y-108923723D01*
X130957981Y-108942068D01*
X130922981Y-108968087D01*
X130892922Y-108980453D01*
X130854402Y-108998665D01*
X130820029Y-109026620D01*
X130788528Y-109051995D01*
X130759117Y-109062932D01*
X130758467Y-109062941D01*
X130729728Y-109073602D01*
X130698922Y-109099345D01*
X130698087Y-109100294D01*
X130665609Y-109137647D01*
X128728864Y-109137647D01*
X128678235Y-109100294D01*
X128640589Y-109076690D01*
X128608990Y-109063770D01*
X128602642Y-109062941D01*
X128574100Y-109054137D01*
X128539431Y-109032845D01*
X128538074Y-109031790D01*
X128495610Y-109006278D01*
X128446097Y-108986496D01*
X128442677Y-108985534D01*
X128397265Y-108968383D01*
X128360139Y-108946460D01*
X128357000Y-108943826D01*
X128321603Y-108922895D01*
X128276232Y-108908197D01*
X128273139Y-108907613D01*
X128229457Y-108893464D01*
X128195694Y-108871943D01*
X128193722Y-108869893D01*
X128161026Y-108847197D01*
X128119016Y-108832540D01*
X128076610Y-108817738D01*
X128044600Y-108795508D01*
X128013247Y-108774619D01*
X127969380Y-108759860D01*
X127962893Y-108758673D01*
X127918376Y-108745233D01*
X127896481Y-108731981D01*
X128901435Y-108731981D01*
X128901915Y-108819512D01*
X128902917Y-108896796D01*
X128904459Y-108958820D01*
X128906554Y-109000570D01*
X128908972Y-109016739D01*
X128927758Y-109024233D01*
X128967858Y-109029466D01*
X129020838Y-109032372D01*
X129078263Y-109032886D01*
X129131697Y-109030941D01*
X129172706Y-109026473D01*
X129192855Y-109019416D01*
X129193194Y-109018946D01*
X129196275Y-109000275D01*
X129199743Y-108956518D01*
X129203334Y-108892465D01*
X129206784Y-108812906D01*
X129209830Y-108722630D01*
X129210203Y-108709616D01*
X129214221Y-108593077D01*
X129219077Y-108503675D01*
X129223716Y-108452868D01*
X130099048Y-108452868D01*
X130099716Y-108553792D01*
X130101121Y-108665242D01*
X130105118Y-109025588D01*
X130284412Y-109033789D01*
X130355493Y-109037221D01*
X130416029Y-109040483D01*
X130459556Y-109043203D01*
X130479527Y-109044995D01*
X130503306Y-109039168D01*
X130519195Y-109029324D01*
X130526713Y-109019873D01*
X130532686Y-109002338D01*
X130537376Y-108973263D01*
X130541045Y-108929193D01*
X130543955Y-108866672D01*
X130546366Y-108782246D01*
X130548541Y-108672458D01*
X130549205Y-108632947D01*
X130550867Y-108510453D01*
X130551323Y-108414880D01*
X130550477Y-108343287D01*
X130548232Y-108292733D01*
X130544493Y-108260279D01*
X130539164Y-108242983D01*
X130536361Y-108239474D01*
X130512190Y-108232646D01*
X130461753Y-108228674D01*
X130388549Y-108227746D01*
X130336031Y-108228704D01*
X130266559Y-108230293D01*
X130211963Y-108232947D01*
X130170498Y-108239909D01*
X130140418Y-108254424D01*
X130119979Y-108279733D01*
X130107434Y-108319082D01*
X130101039Y-108375712D01*
X130099048Y-108452868D01*
X129223716Y-108452868D01*
X129225013Y-108438673D01*
X129232268Y-108395332D01*
X129239716Y-108373352D01*
X129259082Y-108317329D01*
X129253613Y-108273868D01*
X129243012Y-108259106D01*
X129221696Y-108251794D01*
X129179192Y-108246240D01*
X129123228Y-108242572D01*
X129061530Y-108240918D01*
X129001825Y-108241406D01*
X128951839Y-108244166D01*
X128919298Y-108249327D01*
X128911387Y-108253587D01*
X128908651Y-108272438D01*
X128906326Y-108316143D01*
X128904429Y-108379688D01*
X128902976Y-108458059D01*
X128901982Y-108546241D01*
X128901463Y-108639220D01*
X128901435Y-108731981D01*
X127896481Y-108731981D01*
X127883596Y-108724183D01*
X127880426Y-108721000D01*
X127847345Y-108697909D01*
X127805251Y-108683129D01*
X127762845Y-108668326D01*
X127730835Y-108646096D01*
X127699482Y-108625207D01*
X127655615Y-108610448D01*
X127649128Y-108609262D01*
X127604131Y-108595379D01*
X127568484Y-108573310D01*
X127565323Y-108570109D01*
X127532484Y-108547134D01*
X127504184Y-108540000D01*
X127470662Y-108530631D01*
X127432073Y-108507590D01*
X127425901Y-108502647D01*
X127389706Y-108478129D01*
X127357522Y-108465682D01*
X127352952Y-108465294D01*
X127323250Y-108456752D01*
X127284591Y-108435493D01*
X127273765Y-108427941D01*
X127234035Y-108404129D01*
X127198121Y-108391304D01*
X127190867Y-108390588D01*
X127158536Y-108380775D01*
X127122280Y-108356793D01*
X127118294Y-108353235D01*
X127081645Y-108327973D01*
X127045833Y-108316027D01*
X127042553Y-108315882D01*
X127007919Y-108306473D01*
X126968745Y-108283346D01*
X126962725Y-108278529D01*
X126926379Y-108253997D01*
X126893882Y-108241559D01*
X126889278Y-108241176D01*
X126860878Y-108232643D01*
X126823471Y-108211534D01*
X126786520Y-108184589D01*
X126759489Y-108158547D01*
X126751368Y-108142965D01*
X126739452Y-108125538D01*
X126706759Y-108094049D01*
X126656922Y-108051674D01*
X126593574Y-108001589D01*
X126564059Y-107979203D01*
X126529094Y-107952497D01*
X126479974Y-107914383D01*
X126425923Y-107872064D01*
X126376163Y-107832746D01*
X126358409Y-107818576D01*
X126318989Y-107784644D01*
X126284744Y-107751853D01*
X126257719Y-107728159D01*
X126238030Y-107718236D01*
X126237966Y-107718235D01*
X126217811Y-107708699D01*
X126192102Y-107687469D01*
X126162183Y-107660681D01*
X126120031Y-107625783D01*
X126093412Y-107604781D01*
X126027786Y-107553730D01*
X125980813Y-107516125D01*
X125947190Y-107487551D01*
X125921614Y-107463591D01*
X125911215Y-107453029D01*
X125883630Y-107429079D01*
X125862864Y-107418775D01*
X125843689Y-107409207D01*
X125810749Y-107385142D01*
X125781762Y-107360942D01*
X125738991Y-107314655D01*
X125724908Y-107275691D01*
X125739423Y-107243322D01*
X125764933Y-107225055D01*
X125780402Y-107219182D01*
X125796801Y-107221456D01*
X125819080Y-107234984D01*
X125852187Y-107262870D01*
X125901070Y-107308220D01*
X125908219Y-107314972D01*
X125934155Y-107336466D01*
X125949962Y-107344706D01*
X125965224Y-107353736D01*
X125998838Y-107378433D01*
X126046303Y-107415210D01*
X126103119Y-107460480D01*
X126164787Y-107510655D01*
X126226807Y-107562148D01*
X126284677Y-107611371D01*
X126287311Y-107613647D01*
X126320176Y-107640628D01*
X126367815Y-107678002D01*
X126420913Y-107718482D01*
X126430559Y-107725706D01*
X126483387Y-107765912D01*
X126532179Y-107804369D01*
X126567756Y-107833818D01*
X126572229Y-107837765D01*
X126640221Y-107897156D01*
X126704924Y-107950730D01*
X126737911Y-107976485D01*
X126772392Y-108002589D01*
X126815391Y-108035239D01*
X126828397Y-108045133D01*
X126883558Y-108087119D01*
X127831071Y-108095528D01*
X128079132Y-108097464D01*
X128328305Y-108098902D01*
X128576715Y-108099858D01*
X128822486Y-108100346D01*
X129063743Y-108100384D01*
X129298613Y-108099987D01*
X129525218Y-108099172D01*
X129741686Y-108097953D01*
X129946140Y-108096347D01*
X130136706Y-108094370D01*
X130311508Y-108092038D01*
X130468673Y-108089367D01*
X130606324Y-108086372D01*
X130722587Y-108083070D01*
X130815587Y-108079476D01*
X130883449Y-108075606D01*
X130924298Y-108071477D01*
X130934353Y-108069189D01*
X130970366Y-108060704D01*
X131032532Y-108052429D01*
X131117121Y-108044564D01*
X131220401Y-108037304D01*
X131338645Y-108030848D01*
X131468120Y-108025393D01*
X131605098Y-108021136D01*
X131745849Y-108018276D01*
X131886643Y-108017008D01*
X131920783Y-108016964D01*
X132242331Y-108017059D01*
X132719598Y-107538933D01*
X132818586Y-107440130D01*
X132911707Y-107347878D01*
X132996727Y-107264343D01*
X133071410Y-107191688D01*
X133133522Y-107132076D01*
X133180827Y-107087674D01*
X133211090Y-107060643D01*
X133221445Y-107053006D01*
X133260093Y-107051568D01*
X133287547Y-107069800D01*
G36*
X128399999Y-102741183D02*
G01*
X128463776Y-102796298D01*
X128531368Y-102856342D01*
X128591776Y-102911490D01*
X128613257Y-102931683D01*
X128671883Y-102987308D01*
X128738301Y-103049991D01*
X128798423Y-103106436D01*
X128800022Y-103107932D01*
X128894882Y-103196628D01*
X128906273Y-103384343D01*
X128911628Y-103481101D01*
X128917518Y-103602435D01*
X128923739Y-103743049D01*
X128930084Y-103897647D01*
X128936350Y-104060933D01*
X128942331Y-104227610D01*
X128947821Y-104392381D01*
X128952615Y-104549951D01*
X128955491Y-104654787D01*
X128959015Y-104762963D01*
X128963435Y-104854307D01*
X128968519Y-104925555D01*
X128974034Y-104973444D01*
X128979738Y-104994698D01*
X128999780Y-105001237D01*
X129044751Y-105006553D01*
X129109723Y-105010656D01*
X129189768Y-105013553D01*
X129279957Y-105015252D01*
X129375363Y-105015760D01*
X129471057Y-105015086D01*
X129562111Y-105013238D01*
X129643597Y-105010223D01*
X129710587Y-105006048D01*
X129758152Y-105000723D01*
X129781365Y-104994254D01*
X129782259Y-104993426D01*
X129785793Y-104980261D01*
X129788726Y-104949109D01*
X129791071Y-104898607D01*
X129792844Y-104827395D01*
X129794056Y-104734111D01*
X129794722Y-104617395D01*
X129794855Y-104475884D01*
X129794819Y-104460166D01*
X130394998Y-104460166D01*
X130395004Y-104472843D01*
X130395235Y-104628803D01*
X130395750Y-104775883D01*
X130396518Y-104911354D01*
X130397511Y-105032491D01*
X130398699Y-105136564D01*
X130400052Y-105220848D01*
X130401540Y-105282615D01*
X130403134Y-105319138D01*
X130404299Y-105328225D01*
X130424368Y-105341990D01*
X130453319Y-105330506D01*
X130492695Y-105292970D01*
X130509187Y-105273574D01*
X130572244Y-105198703D01*
X130636357Y-105127588D01*
X130666470Y-105095533D01*
X130687651Y-105069034D01*
X130695294Y-105052282D01*
X130704704Y-105033222D01*
X130725573Y-105007984D01*
X130748529Y-104982569D01*
X130784267Y-104941252D01*
X130826603Y-104891221D01*
X130845927Y-104868060D01*
X130905443Y-104797055D01*
X130954435Y-104740407D01*
X131000898Y-104689020D01*
X131039999Y-104647298D01*
X131061168Y-104620946D01*
X131068824Y-104604447D01*
X131077908Y-104586612D01*
X131100843Y-104556056D01*
X131113647Y-104540953D01*
X131148108Y-104492092D01*
X131159443Y-104446332D01*
X131157834Y-104440197D01*
X131371020Y-104440197D01*
X131388296Y-104479388D01*
X131429705Y-104528866D01*
X131434590Y-104533945D01*
X131493627Y-104595343D01*
X131562475Y-104667756D01*
X131637491Y-104747272D01*
X131715031Y-104829977D01*
X131791453Y-104911961D01*
X131863113Y-104989309D01*
X131926368Y-105058111D01*
X131977575Y-105114454D01*
X132013090Y-105154425D01*
X132021098Y-105163774D01*
X132042101Y-105189277D01*
X132071279Y-105225295D01*
X132079112Y-105235044D01*
X132118143Y-105271854D01*
X132150307Y-105279867D01*
X132159361Y-105278004D01*
X132166452Y-105273154D01*
X132171768Y-105262107D01*
X132175496Y-105241651D01*
X132177823Y-105208573D01*
X132178938Y-105159662D01*
X132179026Y-105091707D01*
X132178275Y-105001496D01*
X132176873Y-104885818D01*
X132176219Y-104835394D01*
X132174105Y-104698877D01*
X132171579Y-104589247D01*
X132168475Y-104503507D01*
X132164626Y-104438663D01*
X132159868Y-104391719D01*
X132154033Y-104359679D01*
X132148983Y-104343942D01*
X132141674Y-104320039D01*
X132136332Y-104285753D01*
X132132783Y-104237273D01*
X132130856Y-104170790D01*
X132130377Y-104082493D01*
X132131175Y-103968571D01*
X132131337Y-103954001D01*
X132131978Y-103855729D01*
X132131639Y-103767071D01*
X132130413Y-103692534D01*
X132128391Y-103636621D01*
X132125665Y-103603838D01*
X132124074Y-103597541D01*
X132099590Y-103580121D01*
X132065834Y-103589735D01*
X132024522Y-103625628D01*
X132003653Y-103650500D01*
X131961809Y-103702454D01*
X131912922Y-103760679D01*
X131882045Y-103796176D01*
X131840021Y-103844944D01*
X131789586Y-103905540D01*
X131740573Y-103966124D01*
X131733168Y-103975471D01*
X131669067Y-104055203D01*
X131605665Y-104131413D01*
X131547698Y-104198574D01*
X131499905Y-104251161D01*
X131475971Y-104275455D01*
X131452249Y-104302349D01*
X131442353Y-104321935D01*
X131442353Y-104321962D01*
X131432389Y-104341060D01*
X131408092Y-104368458D01*
X131405000Y-104371412D01*
X131376911Y-104405978D01*
X131371020Y-104440197D01*
X131157834Y-104440197D01*
X131146899Y-104398507D01*
X131109726Y-104343449D01*
X131080029Y-104309834D01*
X131035329Y-104261588D01*
X130979403Y-104200643D01*
X130920989Y-104136539D01*
X130889529Y-104101803D01*
X130833691Y-104040313D01*
X130775307Y-103976575D01*
X130723099Y-103920088D01*
X130699113Y-103894420D01*
X130661727Y-103853365D01*
X130634013Y-103820440D01*
X130621049Y-103801735D01*
X130620672Y-103800292D01*
X130610851Y-103785423D01*
X130584698Y-103754992D01*
X130547057Y-103714519D01*
X130529689Y-103696571D01*
X130481773Y-103649787D01*
X130448808Y-103623493D01*
X130426910Y-103614979D01*
X130416688Y-103617749D01*
X130411899Y-103623977D01*
X130407843Y-103637562D01*
X130404464Y-103660742D01*
X130401706Y-103695756D01*
X130399511Y-103744840D01*
X130397823Y-103810233D01*
X130396585Y-103894174D01*
X130395740Y-103998899D01*
X130395232Y-104126647D01*
X130395004Y-104279657D01*
X130394998Y-104460166D01*
X129794819Y-104460166D01*
X129794469Y-104308217D01*
X129793577Y-104113034D01*
X129792606Y-103951279D01*
X129791427Y-103777676D01*
X129790198Y-103611710D01*
X129788945Y-103455983D01*
X129787694Y-103313097D01*
X129786471Y-103185655D01*
X129785300Y-103076259D01*
X129784208Y-102987510D01*
X129783704Y-102954054D01*
X130025153Y-102954054D01*
X130025605Y-102978900D01*
X130049340Y-103014243D01*
X130087544Y-103055332D01*
X130128851Y-103097349D01*
X130181969Y-103151738D01*
X130237978Y-103209354D01*
X130261614Y-103233760D01*
X130311140Y-103283892D01*
X130345847Y-103315338D01*
X130370905Y-103331628D01*
X130391482Y-103336294D01*
X130408350Y-103333989D01*
X130431485Y-103331648D01*
X130481217Y-103328897D01*
X130554266Y-103325846D01*
X130647352Y-103322603D01*
X130757196Y-103319277D01*
X130880515Y-103315978D01*
X131014031Y-103312815D01*
X131101588Y-103310947D01*
X131278218Y-103307040D01*
X131426303Y-103303097D01*
X131547182Y-103299057D01*
X131642194Y-103294857D01*
X131712677Y-103290436D01*
X131759968Y-103285733D01*
X131785407Y-103280686D01*
X131788456Y-103279391D01*
X131827564Y-103267113D01*
X131873938Y-103263105D01*
X131874119Y-103263112D01*
X131915012Y-103259933D01*
X131944291Y-103249580D01*
X131945516Y-103248638D01*
X131963938Y-103217520D01*
X131957422Y-103183511D01*
X131931676Y-103159331D01*
X131896974Y-103134040D01*
X131878535Y-103113982D01*
X131854141Y-103091910D01*
X131837447Y-103086471D01*
X131818095Y-103079438D01*
X131815882Y-103073913D01*
X131805098Y-103059691D01*
X131775964Y-103031156D01*
X131733307Y-102992855D01*
X131696183Y-102961158D01*
X131576484Y-102860962D01*
X131184448Y-102868714D01*
X130964381Y-102874178D01*
X130758721Y-102881812D01*
X130555619Y-102892198D01*
X130343226Y-102905919D01*
X130179973Y-102918027D01*
X130100689Y-102926065D01*
X130049632Y-102937258D01*
X130025153Y-102954054D01*
X129783704Y-102954054D01*
X129783220Y-102922013D01*
X129782363Y-102882368D01*
X129781957Y-102872542D01*
X129785084Y-102824408D01*
X129799587Y-102801800D01*
X129819327Y-102798494D01*
X129865363Y-102795469D01*
X129934107Y-102792821D01*
X130021973Y-102790645D01*
X130125375Y-102789036D01*
X130240725Y-102788090D01*
X130322175Y-102787876D01*
X130464570Y-102787575D01*
X130579833Y-102786744D01*
X130670715Y-102785278D01*
X130739965Y-102783070D01*
X130790331Y-102780014D01*
X130824563Y-102776003D01*
X130845409Y-102770931D01*
X130852587Y-102767367D01*
X130872248Y-102760025D01*
X130909867Y-102753744D01*
X130968029Y-102748317D01*
X131049318Y-102743539D01*
X131156318Y-102739201D01*
X131235910Y-102736665D01*
X131589761Y-102726243D01*
X131646792Y-102768377D01*
X131689644Y-102802095D01*
X131741017Y-102845370D01*
X131777269Y-102877520D01*
X131824084Y-102920147D01*
X131869621Y-102961476D01*
X131896799Y-102986041D01*
X131931957Y-103017745D01*
X131960814Y-103043819D01*
X131965294Y-103047878D01*
X131999861Y-103077629D01*
X132049915Y-103118825D01*
X132107155Y-103164826D01*
X132163278Y-103208995D01*
X132209983Y-103244692D01*
X132226765Y-103256972D01*
X132232867Y-103262087D01*
X132238118Y-103269572D01*
X132242618Y-103281660D01*
X132246464Y-103300587D01*
X132249755Y-103328587D01*
X132252589Y-103367895D01*
X132255064Y-103420746D01*
X132257280Y-103489373D01*
X132259334Y-103576011D01*
X132261325Y-103682896D01*
X132263352Y-103812262D01*
X132265511Y-103966343D01*
X132267903Y-104147374D01*
X132268710Y-104209576D01*
X132271337Y-104404828D01*
X132273828Y-104572288D01*
X132276258Y-104714048D01*
X132278698Y-104832199D01*
X132281223Y-104928830D01*
X132283903Y-105006032D01*
X132286814Y-105065897D01*
X132290026Y-105110514D01*
X132293614Y-105141974D01*
X132297650Y-105162368D01*
X132302207Y-105173786D01*
X132302328Y-105173974D01*
X132314480Y-105207335D01*
X132321537Y-105263961D01*
X132323881Y-105346963D01*
X132323882Y-105349533D01*
X132323456Y-105418410D01*
X132319596Y-105469553D01*
X132308432Y-105505599D01*
X132286093Y-105529190D01*
X132248708Y-105542963D01*
X132192408Y-105549558D01*
X132113320Y-105551614D01*
X132027288Y-105551765D01*
X131942437Y-105552762D01*
X131864866Y-105555511D01*
X131800986Y-105559649D01*
X131757207Y-105564812D01*
X131744428Y-105567811D01*
X131707634Y-105576094D01*
X131651770Y-105583535D01*
X131587646Y-105588759D01*
X131574111Y-105589447D01*
X131509395Y-105592765D01*
X131425808Y-105597632D01*
X131334278Y-105603385D01*
X131248118Y-105609196D01*
X131167396Y-105613786D01*
X131065767Y-105617928D01*
X130952205Y-105621349D01*
X130835684Y-105623777D01*
X130730741Y-105624913D01*
X130616665Y-105625989D01*
X130529772Y-105628060D01*
X130467371Y-105631289D01*
X130426775Y-105635843D01*
X130405295Y-105641886D01*
X130401140Y-105645147D01*
X130397091Y-105665813D01*
X130394426Y-105712347D01*
X130393038Y-105780773D01*
X130392817Y-105867114D01*
X130393655Y-105967393D01*
X130395443Y-106077634D01*
X130398073Y-106193860D01*
X130401436Y-106312094D01*
X130405422Y-106428360D01*
X130409925Y-106538681D01*
X130414834Y-106639080D01*
X130420042Y-106725581D01*
X130425439Y-106794208D01*
X130430917Y-106840982D01*
X130434256Y-106857098D01*
X130447329Y-106920550D01*
X130454363Y-106997503D01*
X130455188Y-107076946D01*
X130449633Y-107147871D01*
X130439461Y-107194131D01*
X130415677Y-107234212D01*
X130386194Y-107256126D01*
X130358731Y-107261020D01*
X130307702Y-107265157D01*
X130239419Y-107268203D01*
X130160196Y-107269824D01*
X130123882Y-107270000D01*
X130040874Y-107270900D01*
X129965096Y-107273374D01*
X129903181Y-107277087D01*
X129861765Y-107281700D01*
X129852178Y-107283795D01*
X129792554Y-107300083D01*
X129730985Y-107313025D01*
X129662214Y-107323222D01*
X129580988Y-107331274D01*
X129482051Y-107337780D01*
X129360150Y-107343340D01*
X129315970Y-107344998D01*
X129217281Y-107348869D01*
X129126852Y-107352998D01*
X129049590Y-107357116D01*
X128990398Y-107360952D01*
X128954184Y-107364235D01*
X128947176Y-107365345D01*
X128903316Y-107366198D01*
X128874560Y-107359092D01*
X128850343Y-107343971D01*
X128808747Y-107312819D01*
X128754584Y-107269615D01*
X128692671Y-107218337D01*
X128627823Y-107162963D01*
X128564854Y-107107470D01*
X128516464Y-107063235D01*
X128481551Y-107032100D01*
X128432956Y-106990610D01*
X128380376Y-106947026D01*
X128373086Y-106941095D01*
X128325653Y-106899328D01*
X128286405Y-106858785D01*
X128262436Y-106826944D01*
X128259882Y-106821764D01*
X128253237Y-106787614D01*
X128249631Y-106726586D01*
X128249003Y-106641523D01*
X128251291Y-106535267D01*
X128256432Y-106410663D01*
X128264363Y-106270551D01*
X128275022Y-106117777D01*
X128275457Y-106112059D01*
X128282086Y-106015262D01*
X128287901Y-105911912D01*
X128292320Y-105813630D01*
X128294762Y-105732039D01*
X128294899Y-105723588D01*
X128297235Y-105559235D01*
X128073118Y-105554851D01*
X127985279Y-105554301D01*
X127905289Y-105555971D01*
X127839927Y-105559586D01*
X127795974Y-105564868D01*
X127789235Y-105566388D01*
X127755086Y-105571837D01*
X127697145Y-105577147D01*
X127621501Y-105581923D01*
X127534245Y-105585775D01*
X127453059Y-105588078D01*
X127350069Y-105590663D01*
X127243287Y-105594093D01*
X127141931Y-105598024D01*
X127055218Y-105602108D01*
X127010905Y-105604692D01*
X126937988Y-105609124D01*
X126887552Y-105610491D01*
X126852271Y-105607901D01*
X126824824Y-105600462D01*
X126797885Y-105587282D01*
X126779317Y-105576481D01*
X126732534Y-105544796D01*
X126677964Y-105502213D01*
X126636503Y-105466153D01*
X126606430Y-105438881D01*
X126990627Y-105438881D01*
X126992777Y-105448094D01*
X126995475Y-105455140D01*
X127012560Y-105462096D01*
X127055079Y-105467888D01*
X127118607Y-105472517D01*
X127198717Y-105475984D01*
X127290985Y-105478290D01*
X127390985Y-105479438D01*
X127494291Y-105479428D01*
X127596477Y-105478262D01*
X127693118Y-105475942D01*
X127779789Y-105472468D01*
X127852063Y-105467842D01*
X127905516Y-105462067D01*
X127935722Y-105455142D01*
X127936389Y-105454838D01*
X127959506Y-105447124D01*
X127994685Y-105441070D01*
X128045492Y-105436438D01*
X128115489Y-105432989D01*
X128208242Y-105430486D01*
X128327118Y-105428691D01*
X128670765Y-105424765D01*
X128675613Y-105382427D01*
X128674893Y-105362040D01*
X128665799Y-105339699D01*
X128658598Y-105329749D01*
X128968757Y-105329749D01*
X128975428Y-105380971D01*
X128994897Y-105412120D01*
X129030122Y-105427701D01*
X129084059Y-105432217D01*
X129088992Y-105432235D01*
X129143747Y-105435757D01*
X129192891Y-105444718D01*
X129211410Y-105450912D01*
X129243917Y-105458346D01*
X129305904Y-105464843D01*
X129397476Y-105470411D01*
X129518736Y-105475055D01*
X129627000Y-105477888D01*
X129757017Y-105480835D01*
X129860256Y-105483111D01*
X129939818Y-105484492D01*
X129998805Y-105484756D01*
X130040318Y-105483679D01*
X130067458Y-105481038D01*
X130083327Y-105476612D01*
X130091025Y-105470176D01*
X130093653Y-105461508D01*
X130094314Y-105450385D01*
X130094825Y-105444266D01*
X130093414Y-105422146D01*
X130081584Y-105397566D01*
X130055741Y-105365628D01*
X130012288Y-105321435D01*
X129986501Y-105296690D01*
X129939586Y-105250427D01*
X129902191Y-105210322D01*
X129878931Y-105181522D01*
X129873529Y-105170695D01*
X129871506Y-105154390D01*
X129863391Y-105141488D01*
X129846116Y-105131616D01*
X129816615Y-105124402D01*
X129771819Y-105119473D01*
X129708662Y-105116457D01*
X129624076Y-105114982D01*
X129514993Y-105114676D01*
X129414638Y-105114992D01*
X129306487Y-105115897D01*
X129208168Y-105117519D01*
X129123625Y-105119729D01*
X129056803Y-105122397D01*
X129011644Y-105125394D01*
X128992093Y-105128592D01*
X128991742Y-105128865D01*
X128985414Y-105148666D01*
X128978632Y-105189982D01*
X128972712Y-105244495D01*
X128971927Y-105253953D01*
X128968757Y-105329749D01*
X128658598Y-105329749D01*
X128645093Y-105311089D01*
X128609538Y-105271898D01*
X128555895Y-105217810D01*
X128541142Y-105203285D01*
X128482214Y-105144595D01*
X128425235Y-105086395D01*
X128376765Y-105035474D01*
X128343773Y-104999094D01*
X128313352Y-104965126D01*
X128267116Y-104915172D01*
X128210129Y-104854625D01*
X128147451Y-104788878D01*
X128109276Y-104749239D01*
X128049612Y-104686760D01*
X127996578Y-104629761D01*
X127954026Y-104582496D01*
X127925809Y-104549222D01*
X127916536Y-104536327D01*
X127888023Y-104511309D01*
X127853398Y-104505882D01*
X127824633Y-104510353D01*
X127794440Y-104526576D01*
X127756538Y-104558762D01*
X127719453Y-104595728D01*
X127679565Y-104638148D01*
X127649284Y-104672779D01*
X127633528Y-104693903D01*
X127632353Y-104696982D01*
X127622483Y-104712865D01*
X127596998Y-104741959D01*
X127571719Y-104767754D01*
X127532300Y-104809029D01*
X127498201Y-104849268D01*
X127484772Y-104867720D01*
X127463262Y-104896097D01*
X127427049Y-104939045D01*
X127382125Y-104989577D01*
X127354905Y-105019110D01*
X127257879Y-105122929D01*
X127179355Y-105207158D01*
X127117464Y-105274067D01*
X127070335Y-105325924D01*
X127036096Y-105365000D01*
X127012876Y-105393564D01*
X126998805Y-105413886D01*
X126992013Y-105428235D01*
X126990627Y-105438881D01*
X126606430Y-105438881D01*
X126581107Y-105415917D01*
X126519263Y-105361381D01*
X126480004Y-105327647D01*
X126432985Y-105286488D01*
X126389829Y-105246332D01*
X126363144Y-105219324D01*
X126334574Y-105192319D01*
X126312208Y-105178649D01*
X126309527Y-105178235D01*
X126289552Y-105168270D01*
X126260279Y-105143531D01*
X126252312Y-105135518D01*
X126211387Y-105092802D01*
X126215899Y-103951430D01*
X126216771Y-103735174D01*
X126217634Y-103546821D01*
X126218478Y-103404567D01*
X127008639Y-103404567D01*
X127008898Y-103422349D01*
X127024060Y-103448675D01*
X127056303Y-103486940D01*
X127107804Y-103540541D01*
X127131824Y-103564588D01*
X127181134Y-103614681D01*
X127221516Y-103657679D01*
X127248801Y-103689006D01*
X127258823Y-103704085D01*
X127258824Y-103704085D01*
X127268860Y-103718798D01*
X127296458Y-103750347D01*
X127337850Y-103794640D01*
X127389268Y-103847583D01*
X127411971Y-103870438D01*
X127480758Y-103939969D01*
X127555022Y-104016226D01*
X127625857Y-104089998D01*
X127684354Y-104152074D01*
X127684647Y-104152390D01*
X127733565Y-104203066D01*
X127777041Y-104244410D01*
X127810182Y-104272003D01*
X127827574Y-104281456D01*
X127850454Y-104271095D01*
X127882456Y-104244381D01*
X127900194Y-104225735D01*
X127998476Y-104114504D01*
X128077700Y-104026255D01*
X128137885Y-103960969D01*
X128179047Y-103918626D01*
X128188912Y-103909270D01*
X128215818Y-103881226D01*
X128229547Y-103860187D01*
X128230000Y-103857700D01*
X128239531Y-103840774D01*
X128264758Y-103808677D01*
X128300631Y-103767746D01*
X128308441Y-103759270D01*
X128361083Y-103701638D01*
X128418870Y-103636920D01*
X128461588Y-103588019D01*
X128511717Y-103531709D01*
X128567539Y-103471904D01*
X128610653Y-103427877D01*
X128649950Y-103387144D01*
X128669833Y-103359975D01*
X128673683Y-103340609D01*
X128668789Y-103328836D01*
X128642433Y-103307337D01*
X128624313Y-103303118D01*
X128602279Y-103303544D01*
X128554606Y-103304745D01*
X128485521Y-103306606D01*
X128399254Y-103309009D01*
X128300034Y-103311839D01*
X128194983Y-103314896D01*
X128065477Y-103319081D01*
X127963004Y-103323325D01*
X127884716Y-103327844D01*
X127827766Y-103332854D01*
X127789305Y-103338573D01*
X127766485Y-103345216D01*
X127761612Y-103347835D01*
X127743147Y-103355223D01*
X127710573Y-103361196D01*
X127660699Y-103365985D01*
X127590332Y-103369823D01*
X127496278Y-103372944D01*
X127383354Y-103375433D01*
X127284102Y-103377686D01*
X127194559Y-103380491D01*
X127119149Y-103383647D01*
X127062291Y-103386952D01*
X127028408Y-103390205D01*
X127021107Y-103391935D01*
X127008639Y-103404567D01*
X126218478Y-103404567D01*
X126218598Y-103384392D01*
X126219772Y-103245910D01*
X126221268Y-103129394D01*
X126223195Y-103032867D01*
X126225662Y-102954348D01*
X126228619Y-102895084D01*
X126481882Y-102895084D01*
X126492025Y-102912729D01*
X126519443Y-102946216D01*
X126559624Y-102990938D01*
X126608057Y-103042286D01*
X126660228Y-103095653D01*
X126711625Y-103146431D01*
X126757735Y-103190011D01*
X126794046Y-103221786D01*
X126816045Y-103237148D01*
X126817325Y-103237617D01*
X126846436Y-103241369D01*
X126895698Y-103242946D01*
X126955441Y-103242089D01*
X126967471Y-103241617D01*
X127011202Y-103240160D01*
X127080302Y-103238422D01*
X127170256Y-103236489D01*
X127276552Y-103234451D01*
X127394678Y-103232396D01*
X127520121Y-103230410D01*
X127606735Y-103229153D01*
X127749169Y-103226983D01*
X127864653Y-103224750D01*
X127956122Y-103222294D01*
X128026506Y-103219453D01*
X128078741Y-103216069D01*
X128115758Y-103211981D01*
X128140491Y-103207030D01*
X128155872Y-103201054D01*
X128159148Y-103199006D01*
X128180808Y-103188937D01*
X128215193Y-103182126D01*
X128267217Y-103178080D01*
X128341795Y-103176307D01*
X128387351Y-103176118D01*
X128486859Y-103174328D01*
X128558910Y-103168619D01*
X128605733Y-103158480D01*
X128629558Y-103143399D01*
X128632616Y-103122866D01*
X128631732Y-103120120D01*
X128619152Y-103105078D01*
X128588164Y-103073940D01*
X128542683Y-103030473D01*
X128486624Y-102978447D01*
X128448702Y-102943933D01*
X128271464Y-102783785D01*
X127807329Y-102786602D01*
X127691471Y-102787740D01*
X127584490Y-102789621D01*
X127490251Y-102792111D01*
X127412620Y-102795078D01*
X127355460Y-102798389D01*
X127322636Y-102801910D01*
X127316933Y-102803474D01*
X127289746Y-102810298D01*
X127242324Y-102815295D01*
X127184297Y-102817498D01*
X127176647Y-102817529D01*
X127118044Y-102819277D01*
X127068898Y-102823889D01*
X127038800Y-102830417D01*
X127036806Y-102831347D01*
X127013696Y-102836372D01*
X126966321Y-102841421D01*
X126900298Y-102846073D01*
X126821241Y-102849908D01*
X126763069Y-102851831D01*
X126663893Y-102854902D01*
X126590780Y-102858406D01*
X126539909Y-102862929D01*
X126507462Y-102869059D01*
X126489620Y-102877384D01*
X126482561Y-102888491D01*
X126481882Y-102895084D01*
X126228619Y-102895084D01*
X126228780Y-102891861D01*
X126232659Y-102843425D01*
X126237408Y-102807062D01*
X126243138Y-102780793D01*
X126249958Y-102762640D01*
X126257979Y-102750624D01*
X126267309Y-102742765D01*
X126278061Y-102737085D01*
X126283497Y-102734667D01*
X126304421Y-102731683D01*
X126351490Y-102728621D01*
X126420968Y-102725607D01*
X126509118Y-102722769D01*
X126612203Y-102720232D01*
X126726488Y-102718123D01*
X126803118Y-102717065D01*
X126954113Y-102714873D01*
X127077711Y-102712199D01*
X127176394Y-102708925D01*
X127252645Y-102704933D01*
X127308945Y-102700105D01*
X127347778Y-102694323D01*
X127363412Y-102690445D01*
X127398166Y-102683706D01*
X127457690Y-102676431D01*
X127536884Y-102668952D01*
X127630646Y-102661601D01*
X127733876Y-102654709D01*
X127841475Y-102648608D01*
X127948342Y-102643628D01*
X128049377Y-102640103D01*
X128139479Y-102638362D01*
X128166687Y-102638235D01*
X128278644Y-102638235D01*
X128399999Y-102741183D01*
G37*
X128399999Y-102741183D02*
X128463776Y-102796298D01*
X128531368Y-102856342D01*
X128591776Y-102911490D01*
X128613257Y-102931683D01*
X128671883Y-102987308D01*
X128738301Y-103049991D01*
X128798423Y-103106436D01*
X128800022Y-103107932D01*
X128894882Y-103196628D01*
X128906273Y-103384343D01*
X128911628Y-103481101D01*
X128917518Y-103602435D01*
X128923739Y-103743049D01*
X128930084Y-103897647D01*
X128936350Y-104060933D01*
X128942331Y-104227610D01*
X128947821Y-104392381D01*
X128952615Y-104549951D01*
X128955491Y-104654787D01*
X128959015Y-104762963D01*
X128963435Y-104854307D01*
X128968519Y-104925555D01*
X128974034Y-104973444D01*
X128979738Y-104994698D01*
X128999780Y-105001237D01*
X129044751Y-105006553D01*
X129109723Y-105010656D01*
X129189768Y-105013553D01*
X129279957Y-105015252D01*
X129375363Y-105015760D01*
X129471057Y-105015086D01*
X129562111Y-105013238D01*
X129643597Y-105010223D01*
X129710587Y-105006048D01*
X129758152Y-105000723D01*
X129781365Y-104994254D01*
X129782259Y-104993426D01*
X129785793Y-104980261D01*
X129788726Y-104949109D01*
X129791071Y-104898607D01*
X129792844Y-104827395D01*
X129794056Y-104734111D01*
X129794722Y-104617395D01*
X129794855Y-104475884D01*
X129794819Y-104460166D01*
X130394998Y-104460166D01*
X130395004Y-104472843D01*
X130395235Y-104628803D01*
X130395750Y-104775883D01*
X130396518Y-104911354D01*
X130397511Y-105032491D01*
X130398699Y-105136564D01*
X130400052Y-105220848D01*
X130401540Y-105282615D01*
X130403134Y-105319138D01*
X130404299Y-105328225D01*
X130424368Y-105341990D01*
X130453319Y-105330506D01*
X130492695Y-105292970D01*
X130509187Y-105273574D01*
X130572244Y-105198703D01*
X130636357Y-105127588D01*
X130666470Y-105095533D01*
X130687651Y-105069034D01*
X130695294Y-105052282D01*
X130704704Y-105033222D01*
X130725573Y-105007984D01*
X130748529Y-104982569D01*
X130784267Y-104941252D01*
X130826603Y-104891221D01*
X130845927Y-104868060D01*
X130905443Y-104797055D01*
X130954435Y-104740407D01*
X131000898Y-104689020D01*
X131039999Y-104647298D01*
X131061168Y-104620946D01*
X131068824Y-104604447D01*
X131077908Y-104586612D01*
X131100843Y-104556056D01*
X131113647Y-104540953D01*
X131148108Y-104492092D01*
X131159443Y-104446332D01*
X131157834Y-104440197D01*
X131371020Y-104440197D01*
X131388296Y-104479388D01*
X131429705Y-104528866D01*
X131434590Y-104533945D01*
X131493627Y-104595343D01*
X131562475Y-104667756D01*
X131637491Y-104747272D01*
X131715031Y-104829977D01*
X131791453Y-104911961D01*
X131863113Y-104989309D01*
X131926368Y-105058111D01*
X131977575Y-105114454D01*
X132013090Y-105154425D01*
X132021098Y-105163774D01*
X132042101Y-105189277D01*
X132071279Y-105225295D01*
X132079112Y-105235044D01*
X132118143Y-105271854D01*
X132150307Y-105279867D01*
X132159361Y-105278004D01*
X132166452Y-105273154D01*
X132171768Y-105262107D01*
X132175496Y-105241651D01*
X132177823Y-105208573D01*
X132178938Y-105159662D01*
X132179026Y-105091707D01*
X132178275Y-105001496D01*
X132176873Y-104885818D01*
X132176219Y-104835394D01*
X132174105Y-104698877D01*
X132171579Y-104589247D01*
X132168475Y-104503507D01*
X132164626Y-104438663D01*
X132159868Y-104391719D01*
X132154033Y-104359679D01*
X132148983Y-104343942D01*
X132141674Y-104320039D01*
X132136332Y-104285753D01*
X132132783Y-104237273D01*
X132130856Y-104170790D01*
X132130377Y-104082493D01*
X132131175Y-103968571D01*
X132131337Y-103954001D01*
X132131978Y-103855729D01*
X132131639Y-103767071D01*
X132130413Y-103692534D01*
X132128391Y-103636621D01*
X132125665Y-103603838D01*
X132124074Y-103597541D01*
X132099590Y-103580121D01*
X132065834Y-103589735D01*
X132024522Y-103625628D01*
X132003653Y-103650500D01*
X131961809Y-103702454D01*
X131912922Y-103760679D01*
X131882045Y-103796176D01*
X131840021Y-103844944D01*
X131789586Y-103905540D01*
X131740573Y-103966124D01*
X131733168Y-103975471D01*
X131669067Y-104055203D01*
X131605665Y-104131413D01*
X131547698Y-104198574D01*
X131499905Y-104251161D01*
X131475971Y-104275455D01*
X131452249Y-104302349D01*
X131442353Y-104321935D01*
X131442353Y-104321962D01*
X131432389Y-104341060D01*
X131408092Y-104368458D01*
X131405000Y-104371412D01*
X131376911Y-104405978D01*
X131371020Y-104440197D01*
X131157834Y-104440197D01*
X131146899Y-104398507D01*
X131109726Y-104343449D01*
X131080029Y-104309834D01*
X131035329Y-104261588D01*
X130979403Y-104200643D01*
X130920989Y-104136539D01*
X130889529Y-104101803D01*
X130833691Y-104040313D01*
X130775307Y-103976575D01*
X130723099Y-103920088D01*
X130699113Y-103894420D01*
X130661727Y-103853365D01*
X130634013Y-103820440D01*
X130621049Y-103801735D01*
X130620672Y-103800292D01*
X130610851Y-103785423D01*
X130584698Y-103754992D01*
X130547057Y-103714519D01*
X130529689Y-103696571D01*
X130481773Y-103649787D01*
X130448808Y-103623493D01*
X130426910Y-103614979D01*
X130416688Y-103617749D01*
X130411899Y-103623977D01*
X130407843Y-103637562D01*
X130404464Y-103660742D01*
X130401706Y-103695756D01*
X130399511Y-103744840D01*
X130397823Y-103810233D01*
X130396585Y-103894174D01*
X130395740Y-103998899D01*
X130395232Y-104126647D01*
X130395004Y-104279657D01*
X130394998Y-104460166D01*
X129794819Y-104460166D01*
X129794469Y-104308217D01*
X129793577Y-104113034D01*
X129792606Y-103951279D01*
X129791427Y-103777676D01*
X129790198Y-103611710D01*
X129788945Y-103455983D01*
X129787694Y-103313097D01*
X129786471Y-103185655D01*
X129785300Y-103076259D01*
X129784208Y-102987510D01*
X129783704Y-102954054D01*
X130025153Y-102954054D01*
X130025605Y-102978900D01*
X130049340Y-103014243D01*
X130087544Y-103055332D01*
X130128851Y-103097349D01*
X130181969Y-103151738D01*
X130237978Y-103209354D01*
X130261614Y-103233760D01*
X130311140Y-103283892D01*
X130345847Y-103315338D01*
X130370905Y-103331628D01*
X130391482Y-103336294D01*
X130408350Y-103333989D01*
X130431485Y-103331648D01*
X130481217Y-103328897D01*
X130554266Y-103325846D01*
X130647352Y-103322603D01*
X130757196Y-103319277D01*
X130880515Y-103315978D01*
X131014031Y-103312815D01*
X131101588Y-103310947D01*
X131278218Y-103307040D01*
X131426303Y-103303097D01*
X131547182Y-103299057D01*
X131642194Y-103294857D01*
X131712677Y-103290436D01*
X131759968Y-103285733D01*
X131785407Y-103280686D01*
X131788456Y-103279391D01*
X131827564Y-103267113D01*
X131873938Y-103263105D01*
X131874119Y-103263112D01*
X131915012Y-103259933D01*
X131944291Y-103249580D01*
X131945516Y-103248638D01*
X131963938Y-103217520D01*
X131957422Y-103183511D01*
X131931676Y-103159331D01*
X131896974Y-103134040D01*
X131878535Y-103113982D01*
X131854141Y-103091910D01*
X131837447Y-103086471D01*
X131818095Y-103079438D01*
X131815882Y-103073913D01*
X131805098Y-103059691D01*
X131775964Y-103031156D01*
X131733307Y-102992855D01*
X131696183Y-102961158D01*
X131576484Y-102860962D01*
X131184448Y-102868714D01*
X130964381Y-102874178D01*
X130758721Y-102881812D01*
X130555619Y-102892198D01*
X130343226Y-102905919D01*
X130179973Y-102918027D01*
X130100689Y-102926065D01*
X130049632Y-102937258D01*
X130025153Y-102954054D01*
X129783704Y-102954054D01*
X129783220Y-102922013D01*
X129782363Y-102882368D01*
X129781957Y-102872542D01*
X129785084Y-102824408D01*
X129799587Y-102801800D01*
X129819327Y-102798494D01*
X129865363Y-102795469D01*
X129934107Y-102792821D01*
X130021973Y-102790645D01*
X130125375Y-102789036D01*
X130240725Y-102788090D01*
X130322175Y-102787876D01*
X130464570Y-102787575D01*
X130579833Y-102786744D01*
X130670715Y-102785278D01*
X130739965Y-102783070D01*
X130790331Y-102780014D01*
X130824563Y-102776003D01*
X130845409Y-102770931D01*
X130852587Y-102767367D01*
X130872248Y-102760025D01*
X130909867Y-102753744D01*
X130968029Y-102748317D01*
X131049318Y-102743539D01*
X131156318Y-102739201D01*
X131235910Y-102736665D01*
X131589761Y-102726243D01*
X131646792Y-102768377D01*
X131689644Y-102802095D01*
X131741017Y-102845370D01*
X131777269Y-102877520D01*
X131824084Y-102920147D01*
X131869621Y-102961476D01*
X131896799Y-102986041D01*
X131931957Y-103017745D01*
X131960814Y-103043819D01*
X131965294Y-103047878D01*
X131999861Y-103077629D01*
X132049915Y-103118825D01*
X132107155Y-103164826D01*
X132163278Y-103208995D01*
X132209983Y-103244692D01*
X132226765Y-103256972D01*
X132232867Y-103262087D01*
X132238118Y-103269572D01*
X132242618Y-103281660D01*
X132246464Y-103300587D01*
X132249755Y-103328587D01*
X132252589Y-103367895D01*
X132255064Y-103420746D01*
X132257280Y-103489373D01*
X132259334Y-103576011D01*
X132261325Y-103682896D01*
X132263352Y-103812262D01*
X132265511Y-103966343D01*
X132267903Y-104147374D01*
X132268710Y-104209576D01*
X132271337Y-104404828D01*
X132273828Y-104572288D01*
X132276258Y-104714048D01*
X132278698Y-104832199D01*
X132281223Y-104928830D01*
X132283903Y-105006032D01*
X132286814Y-105065897D01*
X132290026Y-105110514D01*
X132293614Y-105141974D01*
X132297650Y-105162368D01*
X132302207Y-105173786D01*
X132302328Y-105173974D01*
X132314480Y-105207335D01*
X132321537Y-105263961D01*
X132323881Y-105346963D01*
X132323882Y-105349533D01*
X132323456Y-105418410D01*
X132319596Y-105469553D01*
X132308432Y-105505599D01*
X132286093Y-105529190D01*
X132248708Y-105542963D01*
X132192408Y-105549558D01*
X132113320Y-105551614D01*
X132027288Y-105551765D01*
X131942437Y-105552762D01*
X131864866Y-105555511D01*
X131800986Y-105559649D01*
X131757207Y-105564812D01*
X131744428Y-105567811D01*
X131707634Y-105576094D01*
X131651770Y-105583535D01*
X131587646Y-105588759D01*
X131574111Y-105589447D01*
X131509395Y-105592765D01*
X131425808Y-105597632D01*
X131334278Y-105603385D01*
X131248118Y-105609196D01*
X131167396Y-105613786D01*
X131065767Y-105617928D01*
X130952205Y-105621349D01*
X130835684Y-105623777D01*
X130730741Y-105624913D01*
X130616665Y-105625989D01*
X130529772Y-105628060D01*
X130467371Y-105631289D01*
X130426775Y-105635843D01*
X130405295Y-105641886D01*
X130401140Y-105645147D01*
X130397091Y-105665813D01*
X130394426Y-105712347D01*
X130393038Y-105780773D01*
X130392817Y-105867114D01*
X130393655Y-105967393D01*
X130395443Y-106077634D01*
X130398073Y-106193860D01*
X130401436Y-106312094D01*
X130405422Y-106428360D01*
X130409925Y-106538681D01*
X130414834Y-106639080D01*
X130420042Y-106725581D01*
X130425439Y-106794208D01*
X130430917Y-106840982D01*
X130434256Y-106857098D01*
X130447329Y-106920550D01*
X130454363Y-106997503D01*
X130455188Y-107076946D01*
X130449633Y-107147871D01*
X130439461Y-107194131D01*
X130415677Y-107234212D01*
X130386194Y-107256126D01*
X130358731Y-107261020D01*
X130307702Y-107265157D01*
X130239419Y-107268203D01*
X130160196Y-107269824D01*
X130123882Y-107270000D01*
X130040874Y-107270900D01*
X129965096Y-107273374D01*
X129903181Y-107277087D01*
X129861765Y-107281700D01*
X129852178Y-107283795D01*
X129792554Y-107300083D01*
X129730985Y-107313025D01*
X129662214Y-107323222D01*
X129580988Y-107331274D01*
X129482051Y-107337780D01*
X129360150Y-107343340D01*
X129315970Y-107344998D01*
X129217281Y-107348869D01*
X129126852Y-107352998D01*
X129049590Y-107357116D01*
X128990398Y-107360952D01*
X128954184Y-107364235D01*
X128947176Y-107365345D01*
X128903316Y-107366198D01*
X128874560Y-107359092D01*
X128850343Y-107343971D01*
X128808747Y-107312819D01*
X128754584Y-107269615D01*
X128692671Y-107218337D01*
X128627823Y-107162963D01*
X128564854Y-107107470D01*
X128516464Y-107063235D01*
X128481551Y-107032100D01*
X128432956Y-106990610D01*
X128380376Y-106947026D01*
X128373086Y-106941095D01*
X128325653Y-106899328D01*
X128286405Y-106858785D01*
X128262436Y-106826944D01*
X128259882Y-106821764D01*
X128253237Y-106787614D01*
X128249631Y-106726586D01*
X128249003Y-106641523D01*
X128251291Y-106535267D01*
X128256432Y-106410663D01*
X128264363Y-106270551D01*
X128275022Y-106117777D01*
X128275457Y-106112059D01*
X128282086Y-106015262D01*
X128287901Y-105911912D01*
X128292320Y-105813630D01*
X128294762Y-105732039D01*
X128294899Y-105723588D01*
X128297235Y-105559235D01*
X128073118Y-105554851D01*
X127985279Y-105554301D01*
X127905289Y-105555971D01*
X127839927Y-105559586D01*
X127795974Y-105564868D01*
X127789235Y-105566388D01*
X127755086Y-105571837D01*
X127697145Y-105577147D01*
X127621501Y-105581923D01*
X127534245Y-105585775D01*
X127453059Y-105588078D01*
X127350069Y-105590663D01*
X127243287Y-105594093D01*
X127141931Y-105598024D01*
X127055218Y-105602108D01*
X127010905Y-105604692D01*
X126937988Y-105609124D01*
X126887552Y-105610491D01*
X126852271Y-105607901D01*
X126824824Y-105600462D01*
X126797885Y-105587282D01*
X126779317Y-105576481D01*
X126732534Y-105544796D01*
X126677964Y-105502213D01*
X126636503Y-105466153D01*
X126606430Y-105438881D01*
X126990627Y-105438881D01*
X126992777Y-105448094D01*
X126995475Y-105455140D01*
X127012560Y-105462096D01*
X127055079Y-105467888D01*
X127118607Y-105472517D01*
X127198717Y-105475984D01*
X127290985Y-105478290D01*
X127390985Y-105479438D01*
X127494291Y-105479428D01*
X127596477Y-105478262D01*
X127693118Y-105475942D01*
X127779789Y-105472468D01*
X127852063Y-105467842D01*
X127905516Y-105462067D01*
X127935722Y-105455142D01*
X127936389Y-105454838D01*
X127959506Y-105447124D01*
X127994685Y-105441070D01*
X128045492Y-105436438D01*
X128115489Y-105432989D01*
X128208242Y-105430486D01*
X128327118Y-105428691D01*
X128670765Y-105424765D01*
X128675613Y-105382427D01*
X128674893Y-105362040D01*
X128665799Y-105339699D01*
X128658598Y-105329749D01*
X128968757Y-105329749D01*
X128975428Y-105380971D01*
X128994897Y-105412120D01*
X129030122Y-105427701D01*
X129084059Y-105432217D01*
X129088992Y-105432235D01*
X129143747Y-105435757D01*
X129192891Y-105444718D01*
X129211410Y-105450912D01*
X129243917Y-105458346D01*
X129305904Y-105464843D01*
X129397476Y-105470411D01*
X129518736Y-105475055D01*
X129627000Y-105477888D01*
X129757017Y-105480835D01*
X129860256Y-105483111D01*
X129939818Y-105484492D01*
X129998805Y-105484756D01*
X130040318Y-105483679D01*
X130067458Y-105481038D01*
X130083327Y-105476612D01*
X130091025Y-105470176D01*
X130093653Y-105461508D01*
X130094314Y-105450385D01*
X130094825Y-105444266D01*
X130093414Y-105422146D01*
X130081584Y-105397566D01*
X130055741Y-105365628D01*
X130012288Y-105321435D01*
X129986501Y-105296690D01*
X129939586Y-105250427D01*
X129902191Y-105210322D01*
X129878931Y-105181522D01*
X129873529Y-105170695D01*
X129871506Y-105154390D01*
X129863391Y-105141488D01*
X129846116Y-105131616D01*
X129816615Y-105124402D01*
X129771819Y-105119473D01*
X129708662Y-105116457D01*
X129624076Y-105114982D01*
X129514993Y-105114676D01*
X129414638Y-105114992D01*
X129306487Y-105115897D01*
X129208168Y-105117519D01*
X129123625Y-105119729D01*
X129056803Y-105122397D01*
X129011644Y-105125394D01*
X128992093Y-105128592D01*
X128991742Y-105128865D01*
X128985414Y-105148666D01*
X128978632Y-105189982D01*
X128972712Y-105244495D01*
X128971927Y-105253953D01*
X128968757Y-105329749D01*
X128658598Y-105329749D01*
X128645093Y-105311089D01*
X128609538Y-105271898D01*
X128555895Y-105217810D01*
X128541142Y-105203285D01*
X128482214Y-105144595D01*
X128425235Y-105086395D01*
X128376765Y-105035474D01*
X128343773Y-104999094D01*
X128313352Y-104965126D01*
X128267116Y-104915172D01*
X128210129Y-104854625D01*
X128147451Y-104788878D01*
X128109276Y-104749239D01*
X128049612Y-104686760D01*
X127996578Y-104629761D01*
X127954026Y-104582496D01*
X127925809Y-104549222D01*
X127916536Y-104536327D01*
X127888023Y-104511309D01*
X127853398Y-104505882D01*
X127824633Y-104510353D01*
X127794440Y-104526576D01*
X127756538Y-104558762D01*
X127719453Y-104595728D01*
X127679565Y-104638148D01*
X127649284Y-104672779D01*
X127633528Y-104693903D01*
X127632353Y-104696982D01*
X127622483Y-104712865D01*
X127596998Y-104741959D01*
X127571719Y-104767754D01*
X127532300Y-104809029D01*
X127498201Y-104849268D01*
X127484772Y-104867720D01*
X127463262Y-104896097D01*
X127427049Y-104939045D01*
X127382125Y-104989577D01*
X127354905Y-105019110D01*
X127257879Y-105122929D01*
X127179355Y-105207158D01*
X127117464Y-105274067D01*
X127070335Y-105325924D01*
X127036096Y-105365000D01*
X127012876Y-105393564D01*
X126998805Y-105413886D01*
X126992013Y-105428235D01*
X126990627Y-105438881D01*
X126606430Y-105438881D01*
X126581107Y-105415917D01*
X126519263Y-105361381D01*
X126480004Y-105327647D01*
X126432985Y-105286488D01*
X126389829Y-105246332D01*
X126363144Y-105219324D01*
X126334574Y-105192319D01*
X126312208Y-105178649D01*
X126309527Y-105178235D01*
X126289552Y-105168270D01*
X126260279Y-105143531D01*
X126252312Y-105135518D01*
X126211387Y-105092802D01*
X126215899Y-103951430D01*
X126216771Y-103735174D01*
X126217634Y-103546821D01*
X126218478Y-103404567D01*
X127008639Y-103404567D01*
X127008898Y-103422349D01*
X127024060Y-103448675D01*
X127056303Y-103486940D01*
X127107804Y-103540541D01*
X127131824Y-103564588D01*
X127181134Y-103614681D01*
X127221516Y-103657679D01*
X127248801Y-103689006D01*
X127258823Y-103704085D01*
X127258824Y-103704085D01*
X127268860Y-103718798D01*
X127296458Y-103750347D01*
X127337850Y-103794640D01*
X127389268Y-103847583D01*
X127411971Y-103870438D01*
X127480758Y-103939969D01*
X127555022Y-104016226D01*
X127625857Y-104089998D01*
X127684354Y-104152074D01*
X127684647Y-104152390D01*
X127733565Y-104203066D01*
X127777041Y-104244410D01*
X127810182Y-104272003D01*
X127827574Y-104281456D01*
X127850454Y-104271095D01*
X127882456Y-104244381D01*
X127900194Y-104225735D01*
X127998476Y-104114504D01*
X128077700Y-104026255D01*
X128137885Y-103960969D01*
X128179047Y-103918626D01*
X128188912Y-103909270D01*
X128215818Y-103881226D01*
X128229547Y-103860187D01*
X128230000Y-103857700D01*
X128239531Y-103840774D01*
X128264758Y-103808677D01*
X128300631Y-103767746D01*
X128308441Y-103759270D01*
X128361083Y-103701638D01*
X128418870Y-103636920D01*
X128461588Y-103588019D01*
X128511717Y-103531709D01*
X128567539Y-103471904D01*
X128610653Y-103427877D01*
X128649950Y-103387144D01*
X128669833Y-103359975D01*
X128673683Y-103340609D01*
X128668789Y-103328836D01*
X128642433Y-103307337D01*
X128624313Y-103303118D01*
X128602279Y-103303544D01*
X128554606Y-103304745D01*
X128485521Y-103306606D01*
X128399254Y-103309009D01*
X128300034Y-103311839D01*
X128194983Y-103314896D01*
X128065477Y-103319081D01*
X127963004Y-103323325D01*
X127884716Y-103327844D01*
X127827766Y-103332854D01*
X127789305Y-103338573D01*
X127766485Y-103345216D01*
X127761612Y-103347835D01*
X127743147Y-103355223D01*
X127710573Y-103361196D01*
X127660699Y-103365985D01*
X127590332Y-103369823D01*
X127496278Y-103372944D01*
X127383354Y-103375433D01*
X127284102Y-103377686D01*
X127194559Y-103380491D01*
X127119149Y-103383647D01*
X127062291Y-103386952D01*
X127028408Y-103390205D01*
X127021107Y-103391935D01*
X127008639Y-103404567D01*
X126218478Y-103404567D01*
X126218598Y-103384392D01*
X126219772Y-103245910D01*
X126221268Y-103129394D01*
X126223195Y-103032867D01*
X126225662Y-102954348D01*
X126228619Y-102895084D01*
X126481882Y-102895084D01*
X126492025Y-102912729D01*
X126519443Y-102946216D01*
X126559624Y-102990938D01*
X126608057Y-103042286D01*
X126660228Y-103095653D01*
X126711625Y-103146431D01*
X126757735Y-103190011D01*
X126794046Y-103221786D01*
X126816045Y-103237148D01*
X126817325Y-103237617D01*
X126846436Y-103241369D01*
X126895698Y-103242946D01*
X126955441Y-103242089D01*
X126967471Y-103241617D01*
X127011202Y-103240160D01*
X127080302Y-103238422D01*
X127170256Y-103236489D01*
X127276552Y-103234451D01*
X127394678Y-103232396D01*
X127520121Y-103230410D01*
X127606735Y-103229153D01*
X127749169Y-103226983D01*
X127864653Y-103224750D01*
X127956122Y-103222294D01*
X128026506Y-103219453D01*
X128078741Y-103216069D01*
X128115758Y-103211981D01*
X128140491Y-103207030D01*
X128155872Y-103201054D01*
X128159148Y-103199006D01*
X128180808Y-103188937D01*
X128215193Y-103182126D01*
X128267217Y-103178080D01*
X128341795Y-103176307D01*
X128387351Y-103176118D01*
X128486859Y-103174328D01*
X128558910Y-103168619D01*
X128605733Y-103158480D01*
X128629558Y-103143399D01*
X128632616Y-103122866D01*
X128631732Y-103120120D01*
X128619152Y-103105078D01*
X128588164Y-103073940D01*
X128542683Y-103030473D01*
X128486624Y-102978447D01*
X128448702Y-102943933D01*
X128271464Y-102783785D01*
X127807329Y-102786602D01*
X127691471Y-102787740D01*
X127584490Y-102789621D01*
X127490251Y-102792111D01*
X127412620Y-102795078D01*
X127355460Y-102798389D01*
X127322636Y-102801910D01*
X127316933Y-102803474D01*
X127289746Y-102810298D01*
X127242324Y-102815295D01*
X127184297Y-102817498D01*
X127176647Y-102817529D01*
X127118044Y-102819277D01*
X127068898Y-102823889D01*
X127038800Y-102830417D01*
X127036806Y-102831347D01*
X127013696Y-102836372D01*
X126966321Y-102841421D01*
X126900298Y-102846073D01*
X126821241Y-102849908D01*
X126763069Y-102851831D01*
X126663893Y-102854902D01*
X126590780Y-102858406D01*
X126539909Y-102862929D01*
X126507462Y-102869059D01*
X126489620Y-102877384D01*
X126482561Y-102888491D01*
X126481882Y-102895084D01*
X126228619Y-102895084D01*
X126228780Y-102891861D01*
X126232659Y-102843425D01*
X126237408Y-102807062D01*
X126243138Y-102780793D01*
X126249958Y-102762640D01*
X126257979Y-102750624D01*
X126267309Y-102742765D01*
X126278061Y-102737085D01*
X126283497Y-102734667D01*
X126304421Y-102731683D01*
X126351490Y-102728621D01*
X126420968Y-102725607D01*
X126509118Y-102722769D01*
X126612203Y-102720232D01*
X126726488Y-102718123D01*
X126803118Y-102717065D01*
X126954113Y-102714873D01*
X127077711Y-102712199D01*
X127176394Y-102708925D01*
X127252645Y-102704933D01*
X127308945Y-102700105D01*
X127347778Y-102694323D01*
X127363412Y-102690445D01*
X127398166Y-102683706D01*
X127457690Y-102676431D01*
X127536884Y-102668952D01*
X127630646Y-102661601D01*
X127733876Y-102654709D01*
X127841475Y-102648608D01*
X127948342Y-102643628D01*
X128049377Y-102640103D01*
X128139479Y-102638362D01*
X128166687Y-102638235D01*
X128278644Y-102638235D01*
X128399999Y-102741183D01*
D11*
%TO.C,C2*%
X151060000Y-72840580D02*
X151060000Y-72559420D01*
X150040000Y-72840580D02*
X150040000Y-72559420D01*
%TO.C,XU1*%
X135270000Y-99850000D02*
X132730000Y-99850000D01*
X123340000Y-96550000D02*
X125600000Y-96550000D01*
X123340000Y-98830000D02*
X125200000Y-98830000D01*
X123340000Y-75730000D02*
X123340000Y-98830000D01*
X173940000Y-75730000D02*
X123340000Y-75730000D01*
X173940000Y-98830000D02*
X173940000Y-75730000D01*
X130100000Y-98830000D02*
X173940000Y-98830000D01*
X128550000Y-98100000D02*
G75*
G03*
X128550000Y-98100000I-900000J0D01*
G01*
X130200000Y-98100000D02*
G75*
G03*
X130200000Y-98100000I-2550000J0D01*
G01*
%TO.C,U3*%
X178490000Y-72300000D02*
X178490000Y-74750000D01*
X181710000Y-74100000D02*
X181710000Y-72300000D01*
%TO.C,U2*%
X149030000Y-72260000D02*
X149030000Y-70610000D01*
X128590000Y-72260000D02*
X149030000Y-72260000D01*
X128590000Y-66960000D02*
X128590000Y-72260000D01*
X149030000Y-66960000D02*
X128590000Y-66960000D01*
X149030000Y-68610000D02*
X149030000Y-66960000D01*
X149030000Y-70610000D02*
G75*
G02*
X149030000Y-68610000I0J1000000D01*
G01*
%TO.C,U1*%
X156330000Y-107360000D02*
X156330000Y-105710000D01*
X135890000Y-107360000D02*
X156330000Y-107360000D01*
X135890000Y-102060000D02*
X135890000Y-107360000D01*
X156330000Y-102060000D02*
X135890000Y-102060000D01*
X156330000Y-103710000D02*
X156330000Y-102060000D01*
X156330000Y-105710000D02*
G75*
G02*
X156330000Y-103710000I0J1000000D01*
G01*
%TO.C,R15*%
X159127500Y-72312742D02*
X159127500Y-72787258D01*
X160172500Y-72312742D02*
X160172500Y-72787258D01*
%TO.C,R14*%
X167222500Y-104237258D02*
X167222500Y-103762742D01*
X166177500Y-104237258D02*
X166177500Y-103762742D01*
%TO.C,R13*%
X173122500Y-101287258D02*
X173122500Y-100812742D01*
X172077500Y-101287258D02*
X172077500Y-100812742D01*
%TO.C,R12*%
X151087258Y-67427500D02*
X150612742Y-67427500D01*
X151087258Y-68472500D02*
X150612742Y-68472500D01*
%TO.C,R11*%
X189635000Y-77885000D02*
X189635000Y-75600000D01*
X188165000Y-77885000D02*
X189635000Y-77885000D01*
X188165000Y-75600000D02*
X188165000Y-77885000D01*
%TO.C,R10*%
X181385000Y-75265000D02*
X179100000Y-75265000D01*
X181385000Y-76735000D02*
X181385000Y-75265000D01*
X179100000Y-76735000D02*
X181385000Y-76735000D01*
%TO.C,R9*%
X160172500Y-69187258D02*
X160172500Y-68712742D01*
X159127500Y-69187258D02*
X159127500Y-68712742D01*
%TO.C,R8*%
X166177500Y-107362742D02*
X166177500Y-107837258D01*
X167222500Y-107362742D02*
X167222500Y-107837258D01*
%TO.C,R7*%
X182177500Y-73062742D02*
X182177500Y-73537258D01*
X183222500Y-73062742D02*
X183222500Y-73537258D01*
%TO.C,R6*%
X172077500Y-104162742D02*
X172077500Y-104637258D01*
X173122500Y-104162742D02*
X173122500Y-104637258D01*
%TO.C,R5*%
X181515000Y-78435000D02*
X183800000Y-78435000D01*
X181515000Y-76965000D02*
X181515000Y-78435000D01*
X183800000Y-76965000D02*
X181515000Y-76965000D01*
%TO.C,R4*%
X184585000Y-75265000D02*
X182300000Y-75265000D01*
X184585000Y-76735000D02*
X184585000Y-75265000D01*
X182300000Y-76735000D02*
X184585000Y-76735000D01*
%TO.C,R3*%
X172777500Y-108062742D02*
X172777500Y-108537258D01*
X173822500Y-108062742D02*
X173822500Y-108537258D01*
%TO.C,R2*%
X154172500Y-69287258D02*
X154172500Y-68812742D01*
X153127500Y-69287258D02*
X153127500Y-68812742D01*
%TO.C,R1*%
X175277500Y-108062742D02*
X175277500Y-108537258D01*
X176322500Y-108062742D02*
X176322500Y-108537258D01*
%TO.C,Q8*%
X156290000Y-70970000D02*
X157750000Y-70970000D01*
X156290000Y-74130000D02*
X158450000Y-74130000D01*
X156290000Y-74130000D02*
X156290000Y-73200000D01*
X156290000Y-70970000D02*
X156290000Y-71900000D01*
%TO.C,Q7*%
X170060000Y-105480000D02*
X168600000Y-105480000D01*
X170060000Y-102320000D02*
X167900000Y-102320000D01*
X170060000Y-102320000D02*
X170060000Y-103250000D01*
X170060000Y-105480000D02*
X170060000Y-104550000D01*
%TO.C,Q6*%
X176160000Y-102680000D02*
X174700000Y-102680000D01*
X176160000Y-99520000D02*
X174000000Y-99520000D01*
X176160000Y-99520000D02*
X176160000Y-100450000D01*
X176160000Y-102680000D02*
X176160000Y-101750000D01*
%TO.C,Q5*%
X156290000Y-67370000D02*
X157750000Y-67370000D01*
X156290000Y-70530000D02*
X158450000Y-70530000D01*
X156290000Y-70530000D02*
X156290000Y-69600000D01*
X156290000Y-67370000D02*
X156290000Y-68300000D01*
%TO.C,Q4*%
X170060000Y-109080000D02*
X168600000Y-109080000D01*
X170060000Y-105920000D02*
X167900000Y-105920000D01*
X170060000Y-105920000D02*
X170060000Y-106850000D01*
X170060000Y-109080000D02*
X170060000Y-108150000D01*
%TO.C,Q3*%
X176160000Y-106280000D02*
X174700000Y-106280000D01*
X176160000Y-103120000D02*
X174000000Y-103120000D01*
X176160000Y-103120000D02*
X176160000Y-104050000D01*
X176160000Y-106280000D02*
X176160000Y-105350000D01*
%TO.C,Q2*%
X185640000Y-74920000D02*
X187100000Y-74920000D01*
X185640000Y-78080000D02*
X187800000Y-78080000D01*
X185640000Y-78080000D02*
X185640000Y-77150000D01*
X185640000Y-74920000D02*
X185640000Y-75850000D01*
%TO.C,Q1*%
X178240000Y-67820000D02*
X179700000Y-67820000D01*
X178240000Y-70980000D02*
X180400000Y-70980000D01*
X178240000Y-70980000D02*
X178240000Y-70050000D01*
X178240000Y-67820000D02*
X178240000Y-68750000D01*
D12*
%TO.C,L1*%
X171250000Y-74950000D02*
G75*
G03*
X171250000Y-74950000I-150000J0D01*
G01*
D11*
%TO.C,J2*%
X181550000Y-96580000D02*
X181550000Y-95250000D01*
X182880000Y-96580000D02*
X181550000Y-96580000D01*
X184150000Y-96580000D02*
X184150000Y-93920000D01*
X184150000Y-93920000D02*
X186750000Y-93920000D01*
X184150000Y-96580000D02*
X186750000Y-96580000D01*
X186750000Y-96580000D02*
X186750000Y-93920000D01*
%TO.C,J1*%
X181550000Y-90230000D02*
X181550000Y-88900000D01*
X182880000Y-90230000D02*
X181550000Y-90230000D01*
X184150000Y-90230000D02*
X184150000Y-87570000D01*
X184150000Y-87570000D02*
X186750000Y-87570000D01*
X184150000Y-90230000D02*
X186750000Y-90230000D01*
X186750000Y-90230000D02*
X186750000Y-87570000D01*
%TO.C,D1*%
X180200000Y-67450000D02*
X174800000Y-67450000D01*
X180200000Y-64150000D02*
X174800000Y-64150000D01*
X180200000Y-67450000D02*
X180200000Y-64150000D01*
%TO.C,C9*%
X185340000Y-64990000D02*
X185340000Y-73050000D01*
X189860000Y-64990000D02*
X185340000Y-64990000D01*
X189860000Y-73050000D02*
X189860000Y-64990000D01*
%TO.C,C8*%
X182535000Y-68961252D02*
X182535000Y-68438748D01*
X181065000Y-68961252D02*
X181065000Y-68438748D01*
%TO.C,C7*%
X184635000Y-68961252D02*
X184635000Y-68438748D01*
X183165000Y-68961252D02*
X183165000Y-68438748D01*
%TO.C,C6*%
X180890000Y-64859420D02*
X180890000Y-65140580D01*
X181910000Y-64859420D02*
X181910000Y-65140580D01*
%TO.C,C5*%
X176559420Y-76510000D02*
X176840580Y-76510000D01*
X176559420Y-75490000D02*
X176840580Y-75490000D01*
%TO.C,C4*%
X176238748Y-78535000D02*
X176761252Y-78535000D01*
X176238748Y-77065000D02*
X176761252Y-77065000D01*
%TO.C,C3*%
X158410000Y-107440580D02*
X158410000Y-107159420D01*
X157390000Y-107440580D02*
X157390000Y-107159420D01*
%TO.C,XA1*%
D13*
X113621904Y-58746380D02*
X114288571Y-59746380D01*
X114288571Y-58746380D02*
X113621904Y-59746380D01*
X114621904Y-59460666D02*
X115098095Y-59460666D01*
X114526666Y-59746380D02*
X114860000Y-58746380D01*
X115193333Y-59746380D01*
X116050476Y-59746380D02*
X115479047Y-59746380D01*
X115764761Y-59746380D02*
X115764761Y-58746380D01*
X115669523Y-58889238D01*
X115574285Y-58984476D01*
X115479047Y-59032095D01*
X174804000Y-82003142D02*
X174851619Y-82050761D01*
X174804000Y-82098380D01*
X174756380Y-82050761D01*
X174804000Y-82003142D01*
X174804000Y-82098380D01*
%TO.C,C2*%
X152357142Y-72866666D02*
X152404761Y-72914285D01*
X152452380Y-73057142D01*
X152452380Y-73152380D01*
X152404761Y-73295238D01*
X152309523Y-73390476D01*
X152214285Y-73438095D01*
X152023809Y-73485714D01*
X151880952Y-73485714D01*
X151690476Y-73438095D01*
X151595238Y-73390476D01*
X151500000Y-73295238D01*
X151452380Y-73152380D01*
X151452380Y-73057142D01*
X151500000Y-72914285D01*
X151547619Y-72866666D01*
X151547619Y-72485714D02*
X151500000Y-72438095D01*
X151452380Y-72342857D01*
X151452380Y-72104761D01*
X151500000Y-72009523D01*
X151547619Y-71961904D01*
X151642857Y-71914285D01*
X151738095Y-71914285D01*
X151880952Y-71961904D01*
X152452380Y-72533333D01*
X152452380Y-71914285D01*
%TO.C,XU1*%
X124166666Y-74452380D02*
X124833333Y-75452380D01*
X124833333Y-74452380D02*
X124166666Y-75452380D01*
X125214285Y-74452380D02*
X125214285Y-75261904D01*
X125261904Y-75357142D01*
X125309523Y-75404761D01*
X125404761Y-75452380D01*
X125595238Y-75452380D01*
X125690476Y-75404761D01*
X125738095Y-75357142D01*
X125785714Y-75261904D01*
X125785714Y-74452380D01*
X126785714Y-75452380D02*
X126214285Y-75452380D01*
X126500000Y-75452380D02*
X126500000Y-74452380D01*
X126404761Y-74595238D01*
X126309523Y-74690476D01*
X126214285Y-74738095D01*
%TO.C,U3*%
X183702380Y-72761904D02*
X184511904Y-72761904D01*
X184607142Y-72714285D01*
X184654761Y-72666666D01*
X184702380Y-72571428D01*
X184702380Y-72380952D01*
X184654761Y-72285714D01*
X184607142Y-72238095D01*
X184511904Y-72190476D01*
X183702380Y-72190476D01*
X183702380Y-71809523D02*
X183702380Y-71190476D01*
X184083333Y-71523809D01*
X184083333Y-71380952D01*
X184130952Y-71285714D01*
X184178571Y-71238095D01*
X184273809Y-71190476D01*
X184511904Y-71190476D01*
X184607142Y-71238095D01*
X184654761Y-71285714D01*
X184702380Y-71380952D01*
X184702380Y-71666666D01*
X184654761Y-71761904D01*
X184607142Y-71809523D01*
%TO.C,U2*%
X126952380Y-70511904D02*
X127761904Y-70511904D01*
X127857142Y-70464285D01*
X127904761Y-70416666D01*
X127952380Y-70321428D01*
X127952380Y-70130952D01*
X127904761Y-70035714D01*
X127857142Y-69988095D01*
X127761904Y-69940476D01*
X126952380Y-69940476D01*
X127047619Y-69511904D02*
X127000000Y-69464285D01*
X126952380Y-69369047D01*
X126952380Y-69130952D01*
X127000000Y-69035714D01*
X127047619Y-68988095D01*
X127142857Y-68940476D01*
X127238095Y-68940476D01*
X127380952Y-68988095D01*
X127952380Y-69559523D01*
X127952380Y-68940476D01*
%TO.C,U1*%
X134452380Y-106011904D02*
X135261904Y-106011904D01*
X135357142Y-105964285D01*
X135404761Y-105916666D01*
X135452380Y-105821428D01*
X135452380Y-105630952D01*
X135404761Y-105535714D01*
X135357142Y-105488095D01*
X135261904Y-105440476D01*
X134452380Y-105440476D01*
X135452380Y-104440476D02*
X135452380Y-105011904D01*
X135452380Y-104726190D02*
X134452380Y-104726190D01*
X134595238Y-104821428D01*
X134690476Y-104916666D01*
X134738095Y-105011904D01*
%TO.C,R15*%
X161702380Y-73192857D02*
X161226190Y-73526190D01*
X161702380Y-73764285D02*
X160702380Y-73764285D01*
X160702380Y-73383333D01*
X160750000Y-73288095D01*
X160797619Y-73240476D01*
X160892857Y-73192857D01*
X161035714Y-73192857D01*
X161130952Y-73240476D01*
X161178571Y-73288095D01*
X161226190Y-73383333D01*
X161226190Y-73764285D01*
X161702380Y-72240476D02*
X161702380Y-72811904D01*
X161702380Y-72526190D02*
X160702380Y-72526190D01*
X160845238Y-72621428D01*
X160940476Y-72716666D01*
X160988095Y-72811904D01*
X160702380Y-71335714D02*
X160702380Y-71811904D01*
X161178571Y-71859523D01*
X161130952Y-71811904D01*
X161083333Y-71716666D01*
X161083333Y-71478571D01*
X161130952Y-71383333D01*
X161178571Y-71335714D01*
X161273809Y-71288095D01*
X161511904Y-71288095D01*
X161607142Y-71335714D01*
X161654761Y-71383333D01*
X161702380Y-71478571D01*
X161702380Y-71716666D01*
X161654761Y-71811904D01*
X161607142Y-71859523D01*
%TO.C,R14*%
X164452380Y-104642857D02*
X163976190Y-104976190D01*
X164452380Y-105214285D02*
X163452380Y-105214285D01*
X163452380Y-104833333D01*
X163500000Y-104738095D01*
X163547619Y-104690476D01*
X163642857Y-104642857D01*
X163785714Y-104642857D01*
X163880952Y-104690476D01*
X163928571Y-104738095D01*
X163976190Y-104833333D01*
X163976190Y-105214285D01*
X164452380Y-103690476D02*
X164452380Y-104261904D01*
X164452380Y-103976190D02*
X163452380Y-103976190D01*
X163595238Y-104071428D01*
X163690476Y-104166666D01*
X163738095Y-104261904D01*
X163785714Y-102833333D02*
X164452380Y-102833333D01*
X163404761Y-103071428D02*
X164119047Y-103309523D01*
X164119047Y-102690476D01*
%TO.C,R13*%
X171622380Y-101692857D02*
X171146190Y-102026190D01*
X171622380Y-102264285D02*
X170622380Y-102264285D01*
X170622380Y-101883333D01*
X170670000Y-101788095D01*
X170717619Y-101740476D01*
X170812857Y-101692857D01*
X170955714Y-101692857D01*
X171050952Y-101740476D01*
X171098571Y-101788095D01*
X171146190Y-101883333D01*
X171146190Y-102264285D01*
X171622380Y-100740476D02*
X171622380Y-101311904D01*
X171622380Y-101026190D02*
X170622380Y-101026190D01*
X170765238Y-101121428D01*
X170860476Y-101216666D01*
X170908095Y-101311904D01*
X170622380Y-100407142D02*
X170622380Y-99788095D01*
X171003333Y-100121428D01*
X171003333Y-99978571D01*
X171050952Y-99883333D01*
X171098571Y-99835714D01*
X171193809Y-99788095D01*
X171431904Y-99788095D01*
X171527142Y-99835714D01*
X171574761Y-99883333D01*
X171622380Y-99978571D01*
X171622380Y-100264285D01*
X171574761Y-100359523D01*
X171527142Y-100407142D01*
%TO.C,R12*%
X150207142Y-69832380D02*
X149873809Y-69356190D01*
X149635714Y-69832380D02*
X149635714Y-68832380D01*
X150016666Y-68832380D01*
X150111904Y-68880000D01*
X150159523Y-68927619D01*
X150207142Y-69022857D01*
X150207142Y-69165714D01*
X150159523Y-69260952D01*
X150111904Y-69308571D01*
X150016666Y-69356190D01*
X149635714Y-69356190D01*
X151159523Y-69832380D02*
X150588095Y-69832380D01*
X150873809Y-69832380D02*
X150873809Y-68832380D01*
X150778571Y-68975238D01*
X150683333Y-69070476D01*
X150588095Y-69118095D01*
X151540476Y-68927619D02*
X151588095Y-68880000D01*
X151683333Y-68832380D01*
X151921428Y-68832380D01*
X152016666Y-68880000D01*
X152064285Y-68927619D01*
X152111904Y-69022857D01*
X152111904Y-69118095D01*
X152064285Y-69260952D01*
X151492857Y-69832380D01*
X152111904Y-69832380D01*
%TO.C,R11*%
X189452380Y-80142857D02*
X188976190Y-80476190D01*
X189452380Y-80714285D02*
X188452380Y-80714285D01*
X188452380Y-80333333D01*
X188500000Y-80238095D01*
X188547619Y-80190476D01*
X188642857Y-80142857D01*
X188785714Y-80142857D01*
X188880952Y-80190476D01*
X188928571Y-80238095D01*
X188976190Y-80333333D01*
X188976190Y-80714285D01*
X189452380Y-79190476D02*
X189452380Y-79761904D01*
X189452380Y-79476190D02*
X188452380Y-79476190D01*
X188595238Y-79571428D01*
X188690476Y-79666666D01*
X188738095Y-79761904D01*
X189452380Y-78238095D02*
X189452380Y-78809523D01*
X189452380Y-78523809D02*
X188452380Y-78523809D01*
X188595238Y-78619047D01*
X188690476Y-78714285D01*
X188738095Y-78809523D01*
%TO.C,R10*%
X179257142Y-78202380D02*
X178923809Y-77726190D01*
X178685714Y-78202380D02*
X178685714Y-77202380D01*
X179066666Y-77202380D01*
X179161904Y-77250000D01*
X179209523Y-77297619D01*
X179257142Y-77392857D01*
X179257142Y-77535714D01*
X179209523Y-77630952D01*
X179161904Y-77678571D01*
X179066666Y-77726190D01*
X178685714Y-77726190D01*
X180209523Y-78202380D02*
X179638095Y-78202380D01*
X179923809Y-78202380D02*
X179923809Y-77202380D01*
X179828571Y-77345238D01*
X179733333Y-77440476D01*
X179638095Y-77488095D01*
X180828571Y-77202380D02*
X180923809Y-77202380D01*
X181019047Y-77250000D01*
X181066666Y-77297619D01*
X181114285Y-77392857D01*
X181161904Y-77583333D01*
X181161904Y-77821428D01*
X181114285Y-78011904D01*
X181066666Y-78107142D01*
X181019047Y-78154761D01*
X180923809Y-78202380D01*
X180828571Y-78202380D01*
X180733333Y-78154761D01*
X180685714Y-78107142D01*
X180638095Y-78011904D01*
X180590476Y-77821428D01*
X180590476Y-77583333D01*
X180638095Y-77392857D01*
X180685714Y-77297619D01*
X180733333Y-77250000D01*
X180828571Y-77202380D01*
%TO.C,R9*%
X161702380Y-69166666D02*
X161226190Y-69500000D01*
X161702380Y-69738095D02*
X160702380Y-69738095D01*
X160702380Y-69357142D01*
X160750000Y-69261904D01*
X160797619Y-69214285D01*
X160892857Y-69166666D01*
X161035714Y-69166666D01*
X161130952Y-69214285D01*
X161178571Y-69261904D01*
X161226190Y-69357142D01*
X161226190Y-69738095D01*
X161702380Y-68690476D02*
X161702380Y-68500000D01*
X161654761Y-68404761D01*
X161607142Y-68357142D01*
X161464285Y-68261904D01*
X161273809Y-68214285D01*
X160892857Y-68214285D01*
X160797619Y-68261904D01*
X160750000Y-68309523D01*
X160702380Y-68404761D01*
X160702380Y-68595238D01*
X160750000Y-68690476D01*
X160797619Y-68738095D01*
X160892857Y-68785714D01*
X161130952Y-68785714D01*
X161226190Y-68738095D01*
X161273809Y-68690476D01*
X161321428Y-68595238D01*
X161321428Y-68404761D01*
X161273809Y-68309523D01*
X161226190Y-68261904D01*
X161130952Y-68214285D01*
%TO.C,R8*%
X164452380Y-107916666D02*
X163976190Y-108250000D01*
X164452380Y-108488095D02*
X163452380Y-108488095D01*
X163452380Y-108107142D01*
X163500000Y-108011904D01*
X163547619Y-107964285D01*
X163642857Y-107916666D01*
X163785714Y-107916666D01*
X163880952Y-107964285D01*
X163928571Y-108011904D01*
X163976190Y-108107142D01*
X163976190Y-108488095D01*
X163880952Y-107345238D02*
X163833333Y-107440476D01*
X163785714Y-107488095D01*
X163690476Y-107535714D01*
X163642857Y-107535714D01*
X163547619Y-107488095D01*
X163500000Y-107440476D01*
X163452380Y-107345238D01*
X163452380Y-107154761D01*
X163500000Y-107059523D01*
X163547619Y-107011904D01*
X163642857Y-106964285D01*
X163690476Y-106964285D01*
X163785714Y-107011904D01*
X163833333Y-107059523D01*
X163880952Y-107154761D01*
X163880952Y-107345238D01*
X163928571Y-107440476D01*
X163976190Y-107488095D01*
X164071428Y-107535714D01*
X164261904Y-107535714D01*
X164357142Y-107488095D01*
X164404761Y-107440476D01*
X164452380Y-107345238D01*
X164452380Y-107154761D01*
X164404761Y-107059523D01*
X164357142Y-107011904D01*
X164261904Y-106964285D01*
X164071428Y-106964285D01*
X163976190Y-107011904D01*
X163928571Y-107059523D01*
X163880952Y-107154761D01*
%TO.C,R7*%
X185202380Y-74166666D02*
X184726190Y-74500000D01*
X185202380Y-74738095D02*
X184202380Y-74738095D01*
X184202380Y-74357142D01*
X184250000Y-74261904D01*
X184297619Y-74214285D01*
X184392857Y-74166666D01*
X184535714Y-74166666D01*
X184630952Y-74214285D01*
X184678571Y-74261904D01*
X184726190Y-74357142D01*
X184726190Y-74738095D01*
X184202380Y-73833333D02*
X184202380Y-73166666D01*
X185202380Y-73595238D01*
%TO.C,R6*%
X172452380Y-106916666D02*
X171976190Y-107250000D01*
X172452380Y-107488095D02*
X171452380Y-107488095D01*
X171452380Y-107107142D01*
X171500000Y-107011904D01*
X171547619Y-106964285D01*
X171642857Y-106916666D01*
X171785714Y-106916666D01*
X171880952Y-106964285D01*
X171928571Y-107011904D01*
X171976190Y-107107142D01*
X171976190Y-107488095D01*
X171452380Y-106059523D02*
X171452380Y-106250000D01*
X171500000Y-106345238D01*
X171547619Y-106392857D01*
X171690476Y-106488095D01*
X171880952Y-106535714D01*
X172261904Y-106535714D01*
X172357142Y-106488095D01*
X172404761Y-106440476D01*
X172452380Y-106345238D01*
X172452380Y-106154761D01*
X172404761Y-106059523D01*
X172357142Y-106011904D01*
X172261904Y-105964285D01*
X172023809Y-105964285D01*
X171928571Y-106011904D01*
X171880952Y-106059523D01*
X171833333Y-106154761D01*
X171833333Y-106345238D01*
X171880952Y-106440476D01*
X171928571Y-106488095D01*
X172023809Y-106535714D01*
%TO.C,R5*%
X182833333Y-81202380D02*
X182500000Y-80726190D01*
X182261904Y-81202380D02*
X182261904Y-80202380D01*
X182642857Y-80202380D01*
X182738095Y-80250000D01*
X182785714Y-80297619D01*
X182833333Y-80392857D01*
X182833333Y-80535714D01*
X182785714Y-80630952D01*
X182738095Y-80678571D01*
X182642857Y-80726190D01*
X182261904Y-80726190D01*
X183738095Y-80202380D02*
X183261904Y-80202380D01*
X183214285Y-80678571D01*
X183261904Y-80630952D01*
X183357142Y-80583333D01*
X183595238Y-80583333D01*
X183690476Y-80630952D01*
X183738095Y-80678571D01*
X183785714Y-80773809D01*
X183785714Y-81011904D01*
X183738095Y-81107142D01*
X183690476Y-81154761D01*
X183595238Y-81202380D01*
X183357142Y-81202380D01*
X183261904Y-81154761D01*
X183214285Y-81107142D01*
%TO.C,R4*%
X182833333Y-79952380D02*
X182500000Y-79476190D01*
X182261904Y-79952380D02*
X182261904Y-78952380D01*
X182642857Y-78952380D01*
X182738095Y-79000000D01*
X182785714Y-79047619D01*
X182833333Y-79142857D01*
X182833333Y-79285714D01*
X182785714Y-79380952D01*
X182738095Y-79428571D01*
X182642857Y-79476190D01*
X182261904Y-79476190D01*
X183690476Y-79285714D02*
X183690476Y-79952380D01*
X183452380Y-78904761D02*
X183214285Y-79619047D01*
X183833333Y-79619047D01*
%TO.C,R3*%
X172452380Y-108916666D02*
X171976190Y-109250000D01*
X172452380Y-109488095D02*
X171452380Y-109488095D01*
X171452380Y-109107142D01*
X171500000Y-109011904D01*
X171547619Y-108964285D01*
X171642857Y-108916666D01*
X171785714Y-108916666D01*
X171880952Y-108964285D01*
X171928571Y-109011904D01*
X171976190Y-109107142D01*
X171976190Y-109488095D01*
X171452380Y-108583333D02*
X171452380Y-107964285D01*
X171833333Y-108297619D01*
X171833333Y-108154761D01*
X171880952Y-108059523D01*
X171928571Y-108011904D01*
X172023809Y-107964285D01*
X172261904Y-107964285D01*
X172357142Y-108011904D01*
X172404761Y-108059523D01*
X172452380Y-108154761D01*
X172452380Y-108440476D01*
X172404761Y-108535714D01*
X172357142Y-108583333D01*
%TO.C,R2*%
X154202380Y-71916666D02*
X153726190Y-72250000D01*
X154202380Y-72488095D02*
X153202380Y-72488095D01*
X153202380Y-72107142D01*
X153250000Y-72011904D01*
X153297619Y-71964285D01*
X153392857Y-71916666D01*
X153535714Y-71916666D01*
X153630952Y-71964285D01*
X153678571Y-72011904D01*
X153726190Y-72107142D01*
X153726190Y-72488095D01*
X153297619Y-71535714D02*
X153250000Y-71488095D01*
X153202380Y-71392857D01*
X153202380Y-71154761D01*
X153250000Y-71059523D01*
X153297619Y-71011904D01*
X153392857Y-70964285D01*
X153488095Y-70964285D01*
X153630952Y-71011904D01*
X154202380Y-71583333D01*
X154202380Y-70964285D01*
%TO.C,R1*%
X177952380Y-108416666D02*
X177476190Y-108750000D01*
X177952380Y-108988095D02*
X176952380Y-108988095D01*
X176952380Y-108607142D01*
X177000000Y-108511904D01*
X177047619Y-108464285D01*
X177142857Y-108416666D01*
X177285714Y-108416666D01*
X177380952Y-108464285D01*
X177428571Y-108511904D01*
X177476190Y-108607142D01*
X177476190Y-108988095D01*
X177952380Y-107464285D02*
X177952380Y-108035714D01*
X177952380Y-107750000D02*
X176952380Y-107750000D01*
X177095238Y-107845238D01*
X177190476Y-107940476D01*
X177238095Y-108035714D01*
%TO.C,Q8*%
X157154761Y-75547619D02*
X157059523Y-75500000D01*
X156964285Y-75404761D01*
X156821428Y-75261904D01*
X156726190Y-75214285D01*
X156630952Y-75214285D01*
X156678571Y-75452380D02*
X156583333Y-75404761D01*
X156488095Y-75309523D01*
X156440476Y-75119047D01*
X156440476Y-74785714D01*
X156488095Y-74595238D01*
X156583333Y-74500000D01*
X156678571Y-74452380D01*
X156869047Y-74452380D01*
X156964285Y-74500000D01*
X157059523Y-74595238D01*
X157107142Y-74785714D01*
X157107142Y-75119047D01*
X157059523Y-75309523D01*
X156964285Y-75404761D01*
X156869047Y-75452380D01*
X156678571Y-75452380D01*
X157678571Y-74880952D02*
X157583333Y-74833333D01*
X157535714Y-74785714D01*
X157488095Y-74690476D01*
X157488095Y-74642857D01*
X157535714Y-74547619D01*
X157583333Y-74500000D01*
X157678571Y-74452380D01*
X157869047Y-74452380D01*
X157964285Y-74500000D01*
X158011904Y-74547619D01*
X158059523Y-74642857D01*
X158059523Y-74690476D01*
X158011904Y-74785714D01*
X157964285Y-74833333D01*
X157869047Y-74880952D01*
X157678571Y-74880952D01*
X157583333Y-74928571D01*
X157535714Y-74976190D01*
X157488095Y-75071428D01*
X157488095Y-75261904D01*
X157535714Y-75357142D01*
X157583333Y-75404761D01*
X157678571Y-75452380D01*
X157869047Y-75452380D01*
X157964285Y-75404761D01*
X158011904Y-75357142D01*
X158059523Y-75261904D01*
X158059523Y-75071428D01*
X158011904Y-74976190D01*
X157964285Y-74928571D01*
X157869047Y-74880952D01*
%TO.C,Q7*%
X165797619Y-104095238D02*
X165750000Y-104190476D01*
X165654761Y-104285714D01*
X165511904Y-104428571D01*
X165464285Y-104523809D01*
X165464285Y-104619047D01*
X165702380Y-104571428D02*
X165654761Y-104666666D01*
X165559523Y-104761904D01*
X165369047Y-104809523D01*
X165035714Y-104809523D01*
X164845238Y-104761904D01*
X164750000Y-104666666D01*
X164702380Y-104571428D01*
X164702380Y-104380952D01*
X164750000Y-104285714D01*
X164845238Y-104190476D01*
X165035714Y-104142857D01*
X165369047Y-104142857D01*
X165559523Y-104190476D01*
X165654761Y-104285714D01*
X165702380Y-104380952D01*
X165702380Y-104571428D01*
X164702380Y-103809523D02*
X164702380Y-103142857D01*
X165702380Y-103571428D01*
%TO.C,Q6*%
X178154761Y-101297619D02*
X178059523Y-101250000D01*
X177964285Y-101154761D01*
X177821428Y-101011904D01*
X177726190Y-100964285D01*
X177630952Y-100964285D01*
X177678571Y-101202380D02*
X177583333Y-101154761D01*
X177488095Y-101059523D01*
X177440476Y-100869047D01*
X177440476Y-100535714D01*
X177488095Y-100345238D01*
X177583333Y-100250000D01*
X177678571Y-100202380D01*
X177869047Y-100202380D01*
X177964285Y-100250000D01*
X178059523Y-100345238D01*
X178107142Y-100535714D01*
X178107142Y-100869047D01*
X178059523Y-101059523D01*
X177964285Y-101154761D01*
X177869047Y-101202380D01*
X177678571Y-101202380D01*
X178964285Y-100202380D02*
X178773809Y-100202380D01*
X178678571Y-100250000D01*
X178630952Y-100297619D01*
X178535714Y-100440476D01*
X178488095Y-100630952D01*
X178488095Y-101011904D01*
X178535714Y-101107142D01*
X178583333Y-101154761D01*
X178678571Y-101202380D01*
X178869047Y-101202380D01*
X178964285Y-101154761D01*
X179011904Y-101107142D01*
X179059523Y-101011904D01*
X179059523Y-100773809D01*
X179011904Y-100678571D01*
X178964285Y-100630952D01*
X178869047Y-100583333D01*
X178678571Y-100583333D01*
X178583333Y-100630952D01*
X178535714Y-100678571D01*
X178488095Y-100773809D01*
%TO.C,Q5*%
X157154761Y-67047619D02*
X157059523Y-67000000D01*
X156964285Y-66904761D01*
X156821428Y-66761904D01*
X156726190Y-66714285D01*
X156630952Y-66714285D01*
X156678571Y-66952380D02*
X156583333Y-66904761D01*
X156488095Y-66809523D01*
X156440476Y-66619047D01*
X156440476Y-66285714D01*
X156488095Y-66095238D01*
X156583333Y-66000000D01*
X156678571Y-65952380D01*
X156869047Y-65952380D01*
X156964285Y-66000000D01*
X157059523Y-66095238D01*
X157107142Y-66285714D01*
X157107142Y-66619047D01*
X157059523Y-66809523D01*
X156964285Y-66904761D01*
X156869047Y-66952380D01*
X156678571Y-66952380D01*
X158011904Y-65952380D02*
X157535714Y-65952380D01*
X157488095Y-66428571D01*
X157535714Y-66380952D01*
X157630952Y-66333333D01*
X157869047Y-66333333D01*
X157964285Y-66380952D01*
X158011904Y-66428571D01*
X158059523Y-66523809D01*
X158059523Y-66761904D01*
X158011904Y-66857142D01*
X157964285Y-66904761D01*
X157869047Y-66952380D01*
X157630952Y-66952380D01*
X157535714Y-66904761D01*
X157488095Y-66857142D01*
%TO.C,Q4*%
X165797619Y-107845238D02*
X165750000Y-107940476D01*
X165654761Y-108035714D01*
X165511904Y-108178571D01*
X165464285Y-108273809D01*
X165464285Y-108369047D01*
X165702380Y-108321428D02*
X165654761Y-108416666D01*
X165559523Y-108511904D01*
X165369047Y-108559523D01*
X165035714Y-108559523D01*
X164845238Y-108511904D01*
X164750000Y-108416666D01*
X164702380Y-108321428D01*
X164702380Y-108130952D01*
X164750000Y-108035714D01*
X164845238Y-107940476D01*
X165035714Y-107892857D01*
X165369047Y-107892857D01*
X165559523Y-107940476D01*
X165654761Y-108035714D01*
X165702380Y-108130952D01*
X165702380Y-108321428D01*
X165035714Y-107035714D02*
X165702380Y-107035714D01*
X164654761Y-107273809D02*
X165369047Y-107511904D01*
X165369047Y-106892857D01*
%TO.C,Q3*%
X178154761Y-104047619D02*
X178059523Y-104000000D01*
X177964285Y-103904761D01*
X177821428Y-103761904D01*
X177726190Y-103714285D01*
X177630952Y-103714285D01*
X177678571Y-103952380D02*
X177583333Y-103904761D01*
X177488095Y-103809523D01*
X177440476Y-103619047D01*
X177440476Y-103285714D01*
X177488095Y-103095238D01*
X177583333Y-103000000D01*
X177678571Y-102952380D01*
X177869047Y-102952380D01*
X177964285Y-103000000D01*
X178059523Y-103095238D01*
X178107142Y-103285714D01*
X178107142Y-103619047D01*
X178059523Y-103809523D01*
X177964285Y-103904761D01*
X177869047Y-103952380D01*
X177678571Y-103952380D01*
X178440476Y-102952380D02*
X179059523Y-102952380D01*
X178726190Y-103333333D01*
X178869047Y-103333333D01*
X178964285Y-103380952D01*
X179011904Y-103428571D01*
X179059523Y-103523809D01*
X179059523Y-103761904D01*
X179011904Y-103857142D01*
X178964285Y-103904761D01*
X178869047Y-103952380D01*
X178583333Y-103952380D01*
X178488095Y-103904761D01*
X178440476Y-103857142D01*
%TO.C,Q2*%
X186654761Y-79797619D02*
X186559523Y-79750000D01*
X186464285Y-79654761D01*
X186321428Y-79511904D01*
X186226190Y-79464285D01*
X186130952Y-79464285D01*
X186178571Y-79702380D02*
X186083333Y-79654761D01*
X185988095Y-79559523D01*
X185940476Y-79369047D01*
X185940476Y-79035714D01*
X185988095Y-78845238D01*
X186083333Y-78750000D01*
X186178571Y-78702380D01*
X186369047Y-78702380D01*
X186464285Y-78750000D01*
X186559523Y-78845238D01*
X186607142Y-79035714D01*
X186607142Y-79369047D01*
X186559523Y-79559523D01*
X186464285Y-79654761D01*
X186369047Y-79702380D01*
X186178571Y-79702380D01*
X186988095Y-78797619D02*
X187035714Y-78750000D01*
X187130952Y-78702380D01*
X187369047Y-78702380D01*
X187464285Y-78750000D01*
X187511904Y-78797619D01*
X187559523Y-78892857D01*
X187559523Y-78988095D01*
X187511904Y-79130952D01*
X186940476Y-79702380D01*
X187559523Y-79702380D01*
%TO.C,Q1*%
X182654761Y-71797619D02*
X182559523Y-71750000D01*
X182464285Y-71654761D01*
X182321428Y-71511904D01*
X182226190Y-71464285D01*
X182130952Y-71464285D01*
X182178571Y-71702380D02*
X182083333Y-71654761D01*
X181988095Y-71559523D01*
X181940476Y-71369047D01*
X181940476Y-71035714D01*
X181988095Y-70845238D01*
X182083333Y-70750000D01*
X182178571Y-70702380D01*
X182369047Y-70702380D01*
X182464285Y-70750000D01*
X182559523Y-70845238D01*
X182607142Y-71035714D01*
X182607142Y-71369047D01*
X182559523Y-71559523D01*
X182464285Y-71654761D01*
X182369047Y-71702380D01*
X182178571Y-71702380D01*
X183559523Y-71702380D02*
X182988095Y-71702380D01*
X183273809Y-71702380D02*
X183273809Y-70702380D01*
X183178571Y-70845238D01*
X183083333Y-70940476D01*
X182988095Y-70988095D01*
%TO.C,L1*%
X170452380Y-70666666D02*
X170452380Y-71142857D01*
X169452380Y-71142857D01*
X170452380Y-69809523D02*
X170452380Y-70380952D01*
X170452380Y-70095238D02*
X169452380Y-70095238D01*
X169595238Y-70190476D01*
X169690476Y-70285714D01*
X169738095Y-70380952D01*
%TO.C,J2*%
X180002380Y-95583333D02*
X180716666Y-95583333D01*
X180859523Y-95630952D01*
X180954761Y-95726190D01*
X181002380Y-95869047D01*
X181002380Y-95964285D01*
X180097619Y-95154761D02*
X180050000Y-95107142D01*
X180002380Y-95011904D01*
X180002380Y-94773809D01*
X180050000Y-94678571D01*
X180097619Y-94630952D01*
X180192857Y-94583333D01*
X180288095Y-94583333D01*
X180430952Y-94630952D01*
X181002380Y-95202380D01*
X181002380Y-94583333D01*
%TO.C,J1*%
X180002380Y-89233333D02*
X180716666Y-89233333D01*
X180859523Y-89280952D01*
X180954761Y-89376190D01*
X181002380Y-89519047D01*
X181002380Y-89614285D01*
X181002380Y-88233333D02*
X181002380Y-88804761D01*
X181002380Y-88519047D02*
X180002380Y-88519047D01*
X180145238Y-88614285D01*
X180240476Y-88709523D01*
X180288095Y-88804761D01*
%TO.C,D1*%
X177761904Y-63952380D02*
X177761904Y-62952380D01*
X178000000Y-62952380D01*
X178142857Y-63000000D01*
X178238095Y-63095238D01*
X178285714Y-63190476D01*
X178333333Y-63380952D01*
X178333333Y-63523809D01*
X178285714Y-63714285D01*
X178238095Y-63809523D01*
X178142857Y-63904761D01*
X178000000Y-63952380D01*
X177761904Y-63952380D01*
X179285714Y-63952380D02*
X178714285Y-63952380D01*
X179000000Y-63952380D02*
X179000000Y-62952380D01*
X178904761Y-63095238D01*
X178809523Y-63190476D01*
X178714285Y-63238095D01*
%TO.C,C9*%
X187857142Y-64166666D02*
X187904761Y-64214285D01*
X187952380Y-64357142D01*
X187952380Y-64452380D01*
X187904761Y-64595238D01*
X187809523Y-64690476D01*
X187714285Y-64738095D01*
X187523809Y-64785714D01*
X187380952Y-64785714D01*
X187190476Y-64738095D01*
X187095238Y-64690476D01*
X187000000Y-64595238D01*
X186952380Y-64452380D01*
X186952380Y-64357142D01*
X187000000Y-64214285D01*
X187047619Y-64166666D01*
X187952380Y-63690476D02*
X187952380Y-63500000D01*
X187904761Y-63404761D01*
X187857142Y-63357142D01*
X187714285Y-63261904D01*
X187523809Y-63214285D01*
X187142857Y-63214285D01*
X187047619Y-63261904D01*
X187000000Y-63309523D01*
X186952380Y-63404761D01*
X186952380Y-63595238D01*
X187000000Y-63690476D01*
X187047619Y-63738095D01*
X187142857Y-63785714D01*
X187380952Y-63785714D01*
X187476190Y-63738095D01*
X187523809Y-63690476D01*
X187571428Y-63595238D01*
X187571428Y-63404761D01*
X187523809Y-63309523D01*
X187476190Y-63261904D01*
X187380952Y-63214285D01*
%TO.C,C8*%
X183357142Y-66166666D02*
X183404761Y-66214285D01*
X183452380Y-66357142D01*
X183452380Y-66452380D01*
X183404761Y-66595238D01*
X183309523Y-66690476D01*
X183214285Y-66738095D01*
X183023809Y-66785714D01*
X182880952Y-66785714D01*
X182690476Y-66738095D01*
X182595238Y-66690476D01*
X182500000Y-66595238D01*
X182452380Y-66452380D01*
X182452380Y-66357142D01*
X182500000Y-66214285D01*
X182547619Y-66166666D01*
X182880952Y-65595238D02*
X182833333Y-65690476D01*
X182785714Y-65738095D01*
X182690476Y-65785714D01*
X182642857Y-65785714D01*
X182547619Y-65738095D01*
X182500000Y-65690476D01*
X182452380Y-65595238D01*
X182452380Y-65404761D01*
X182500000Y-65309523D01*
X182547619Y-65261904D01*
X182642857Y-65214285D01*
X182690476Y-65214285D01*
X182785714Y-65261904D01*
X182833333Y-65309523D01*
X182880952Y-65404761D01*
X182880952Y-65595238D01*
X182928571Y-65690476D01*
X182976190Y-65738095D01*
X183071428Y-65785714D01*
X183261904Y-65785714D01*
X183357142Y-65738095D01*
X183404761Y-65690476D01*
X183452380Y-65595238D01*
X183452380Y-65404761D01*
X183404761Y-65309523D01*
X183357142Y-65261904D01*
X183261904Y-65214285D01*
X183071428Y-65214285D01*
X182976190Y-65261904D01*
X182928571Y-65309523D01*
X182880952Y-65404761D01*
%TO.C,C7*%
X184857142Y-66166666D02*
X184904761Y-66214285D01*
X184952380Y-66357142D01*
X184952380Y-66452380D01*
X184904761Y-66595238D01*
X184809523Y-66690476D01*
X184714285Y-66738095D01*
X184523809Y-66785714D01*
X184380952Y-66785714D01*
X184190476Y-66738095D01*
X184095238Y-66690476D01*
X184000000Y-66595238D01*
X183952380Y-66452380D01*
X183952380Y-66357142D01*
X184000000Y-66214285D01*
X184047619Y-66166666D01*
X183952380Y-65833333D02*
X183952380Y-65166666D01*
X184952380Y-65595238D01*
%TO.C,C6*%
X181857142Y-62416666D02*
X181904761Y-62464285D01*
X181952380Y-62607142D01*
X181952380Y-62702380D01*
X181904761Y-62845238D01*
X181809523Y-62940476D01*
X181714285Y-62988095D01*
X181523809Y-63035714D01*
X181380952Y-63035714D01*
X181190476Y-62988095D01*
X181095238Y-62940476D01*
X181000000Y-62845238D01*
X180952380Y-62702380D01*
X180952380Y-62607142D01*
X181000000Y-62464285D01*
X181047619Y-62416666D01*
X180952380Y-61559523D02*
X180952380Y-61750000D01*
X181000000Y-61845238D01*
X181047619Y-61892857D01*
X181190476Y-61988095D01*
X181380952Y-62035714D01*
X181761904Y-62035714D01*
X181857142Y-61988095D01*
X181904761Y-61940476D01*
X181952380Y-61845238D01*
X181952380Y-61654761D01*
X181904761Y-61559523D01*
X181857142Y-61511904D01*
X181761904Y-61464285D01*
X181523809Y-61464285D01*
X181428571Y-61511904D01*
X181380952Y-61559523D01*
X181333333Y-61654761D01*
X181333333Y-61845238D01*
X181380952Y-61940476D01*
X181428571Y-61988095D01*
X181523809Y-62035714D01*
%TO.C,C5*%
X176833333Y-80107142D02*
X176785714Y-80154761D01*
X176642857Y-80202380D01*
X176547619Y-80202380D01*
X176404761Y-80154761D01*
X176309523Y-80059523D01*
X176261904Y-79964285D01*
X176214285Y-79773809D01*
X176214285Y-79630952D01*
X176261904Y-79440476D01*
X176309523Y-79345238D01*
X176404761Y-79250000D01*
X176547619Y-79202380D01*
X176642857Y-79202380D01*
X176785714Y-79250000D01*
X176833333Y-79297619D01*
X177738095Y-79202380D02*
X177261904Y-79202380D01*
X177214285Y-79678571D01*
X177261904Y-79630952D01*
X177357142Y-79583333D01*
X177595238Y-79583333D01*
X177690476Y-79630952D01*
X177738095Y-79678571D01*
X177785714Y-79773809D01*
X177785714Y-80011904D01*
X177738095Y-80107142D01*
X177690476Y-80154761D01*
X177595238Y-80202380D01*
X177357142Y-80202380D01*
X177261904Y-80154761D01*
X177214285Y-80107142D01*
%TO.C,C4*%
X176833333Y-81607142D02*
X176785714Y-81654761D01*
X176642857Y-81702380D01*
X176547619Y-81702380D01*
X176404761Y-81654761D01*
X176309523Y-81559523D01*
X176261904Y-81464285D01*
X176214285Y-81273809D01*
X176214285Y-81130952D01*
X176261904Y-80940476D01*
X176309523Y-80845238D01*
X176404761Y-80750000D01*
X176547619Y-80702380D01*
X176642857Y-80702380D01*
X176785714Y-80750000D01*
X176833333Y-80797619D01*
X177690476Y-81035714D02*
X177690476Y-81702380D01*
X177452380Y-80654761D02*
X177214285Y-81369047D01*
X177833333Y-81369047D01*
%TO.C,C3*%
X158357142Y-104666666D02*
X158404761Y-104714285D01*
X158452380Y-104857142D01*
X158452380Y-104952380D01*
X158404761Y-105095238D01*
X158309523Y-105190476D01*
X158214285Y-105238095D01*
X158023809Y-105285714D01*
X157880952Y-105285714D01*
X157690476Y-105238095D01*
X157595238Y-105190476D01*
X157500000Y-105095238D01*
X157452380Y-104952380D01*
X157452380Y-104857142D01*
X157500000Y-104714285D01*
X157547619Y-104666666D01*
X157452380Y-104333333D02*
X157452380Y-103714285D01*
X157833333Y-104047619D01*
X157833333Y-103904761D01*
X157880952Y-103809523D01*
X157928571Y-103761904D01*
X158023809Y-103714285D01*
X158261904Y-103714285D01*
X158357142Y-103761904D01*
X158404761Y-103809523D01*
X158452380Y-103904761D01*
X158452380Y-104190476D01*
X158404761Y-104285714D01*
X158357142Y-104333333D01*
%TD*%
M02*
