%TF.GenerationSoftware,KiCad,Pcbnew,(5.1.9)-1*%
%TF.CreationDate,2023-04-19T23:26:57+02:00*%
%TF.ProjectId,w27c512_ardu_prog_K24DP6B78EA,77323763-3531-4325-9f61-7264755f7072,rev?*%
%TF.SameCoordinates,Original*%
%TF.FileFunction,Copper,L2,Bot*%
%TF.FilePolarity,Positive*%
%FSLAX46Y46*%
G04 Gerber Fmt 4.6, Leading zero omitted, Abs format (unit mm)*
G04 Created by KiCad (PCBNEW (5.1.9)-1) date 2023-04-19 23:26:57*
%MOMM*%
%LPD*%
G01*
G04 APERTURE LIST*
%TA.AperFunction,ComponentPad*%
%ADD10O,1.727200X1.727200*%
%TD*%
%TA.AperFunction,ComponentPad*%
%ADD11O,1.440000X2.000000*%
%TD*%
%TA.AperFunction,ComponentPad*%
%ADD12R,1.440000X2.000000*%
%TD*%
%TA.AperFunction,ComponentPad*%
%ADD13O,1.600000X1.600000*%
%TD*%
%TA.AperFunction,ComponentPad*%
%ADD14R,1.600000X1.600000*%
%TD*%
%TA.AperFunction,ComponentPad*%
%ADD15O,1.700000X1.700000*%
%TD*%
%TA.AperFunction,ComponentPad*%
%ADD16R,1.700000X1.700000*%
%TD*%
%TA.AperFunction,ViaPad*%
%ADD17C,0.600000*%
%TD*%
%TA.AperFunction,ViaPad*%
%ADD18C,0.800000*%
%TD*%
%TA.AperFunction,Conductor*%
%ADD19C,0.500000*%
%TD*%
%TA.AperFunction,Conductor*%
%ADD20C,0.400000*%
%TD*%
%TA.AperFunction,Conductor*%
%ADD21C,0.300000*%
%TD*%
%TA.AperFunction,Conductor*%
%ADD22C,0.250000*%
%TD*%
%TA.AperFunction,Conductor*%
%ADD23C,0.254000*%
%TD*%
%TA.AperFunction,Conductor*%
%ADD24C,0.100000*%
%TD*%
G04 APERTURE END LIST*
D10*
%TO.P,XA1,A5*%
%TO.N,Net-(R1-Pad2)*%
X175820000Y-111110000D03*
%TO.P,XA1,A4*%
%TO.N,Net-(R3-Pad2)*%
X173280000Y-111110000D03*
%TO.P,XA1,A3*%
%TO.N,/\u005CCE*%
X170740000Y-111110000D03*
%TO.P,XA1,A2*%
%TO.N,Net-(U1-Pad11)*%
X168200000Y-111110000D03*
%TO.P,XA1,A1*%
%TO.N,Net-(U1-Pad12)*%
X165660000Y-111110000D03*
%TO.P,XA1,*%
%TO.N,*%
X140260000Y-111110000D03*
%TO.P,XA1,D11*%
%TO.N,Net-(Q8-Pad1)*%
X146356000Y-62850000D03*
%TO.P,XA1,D12*%
%TO.N,Net-(Q7-Pad1)*%
X143816000Y-62850000D03*
%TO.P,XA1,D13*%
%TO.N,Net-(XA1-PadD13)*%
X141276000Y-62850000D03*
%TO.P,XA1,AREF*%
%TO.N,Net-(XA1-PadAREF)*%
X136196000Y-62850000D03*
%TO.P,XA1,SDA*%
%TO.N,Net-(XA1-PadSDA)*%
X133656000Y-62850000D03*
%TO.P,XA1,SCL*%
%TO.N,Net-(XA1-PadSCL)*%
X131116000Y-62850000D03*
%TO.P,XA1,D10*%
%TO.N,/D7*%
X148896000Y-62850000D03*
%TO.P,XA1,D9*%
%TO.N,Net-(Q6-Pad1)*%
X151436000Y-62850000D03*
%TO.P,XA1,D8*%
%TO.N,/D6*%
X153976000Y-62850000D03*
%TO.P,XA1,GND1*%
%TO.N,GND*%
X138736000Y-62850000D03*
%TO.P,XA1,D7*%
%TO.N,/D5*%
X158040000Y-62850000D03*
%TO.P,XA1,D6*%
%TO.N,/D4*%
X160580000Y-62850000D03*
%TO.P,XA1,D5*%
%TO.N,/D3*%
X163120000Y-62850000D03*
%TO.P,XA1,D4*%
%TO.N,/D2*%
X165660000Y-62850000D03*
%TO.P,XA1,D3*%
%TO.N,/D1*%
X168200000Y-62850000D03*
%TO.P,XA1,D2*%
%TO.N,/D0*%
X170740000Y-62850000D03*
%TO.P,XA1,D1*%
%TO.N,Net-(XA1-PadD1)*%
X173280000Y-62850000D03*
%TO.P,XA1,D0*%
%TO.N,Net-(XA1-PadD0)*%
X175820000Y-62850000D03*
%TO.P,XA1,IORF*%
%TO.N,Net-(XA1-PadIORF)*%
X142800000Y-111110000D03*
%TO.P,XA1,RST1*%
%TO.N,Net-(XA1-PadRST1)*%
X145340000Y-111110000D03*
%TO.P,XA1,3V3*%
%TO.N,Net-(XA1-Pad3V3)*%
X147880000Y-111110000D03*
%TO.P,XA1,5V1*%
%TO.N,+5V*%
X150420000Y-111110000D03*
%TO.P,XA1,GND2*%
%TO.N,GND*%
X152960000Y-111110000D03*
%TO.P,XA1,GND3*%
X155500000Y-111110000D03*
%TO.P,XA1,VIN*%
%TO.N,Net-(XA1-PadVIN)*%
X158040000Y-111110000D03*
%TO.P,XA1,A0*%
%TO.N,Net-(U1-Pad14)*%
X163120000Y-111110000D03*
%TD*%
D11*
%TO.P,XU1,15*%
%TO.N,/D3*%
X167020000Y-79660000D03*
%TO.P,XU1,14*%
%TO.N,GND*%
X167020000Y-94900000D03*
%TO.P,XU1,16*%
%TO.N,/D4*%
X164480000Y-79660000D03*
%TO.P,XU1,13*%
%TO.N,/D2*%
X164480000Y-94900000D03*
%TO.P,XU1,17*%
%TO.N,/D5*%
X161940000Y-79660000D03*
%TO.P,XU1,12*%
%TO.N,/D1*%
X161940000Y-94900000D03*
%TO.P,XU1,18*%
%TO.N,/D6*%
X159400000Y-79660000D03*
%TO.P,XU1,11*%
%TO.N,/D0*%
X159400000Y-94900000D03*
%TO.P,XU1,19*%
%TO.N,/D7*%
X156860000Y-79660000D03*
%TO.P,XU1,10*%
%TO.N,Net-(U1-Pad15)*%
X156860000Y-94900000D03*
%TO.P,XU1,20*%
%TO.N,/\u005CCE*%
X154320000Y-79660000D03*
%TO.P,XU1,9*%
%TO.N,Net-(U1-Pad1)*%
X154320000Y-94900000D03*
%TO.P,XU1,21*%
%TO.N,Net-(XA1-PadD13)*%
X151780000Y-79660000D03*
%TO.P,XU1,8*%
%TO.N,Net-(U1-Pad2)*%
X151780000Y-94900000D03*
%TO.P,XU1,22*%
%TO.N,/\u005COE*%
X149240000Y-79660000D03*
%TO.P,XU1,7*%
%TO.N,Net-(U1-Pad3)*%
X149240000Y-94900000D03*
%TO.P,XU1,23*%
%TO.N,Net-(U2-Pad3)*%
X146700000Y-79660000D03*
%TO.P,XU1,6*%
%TO.N,Net-(U1-Pad4)*%
X146700000Y-94900000D03*
%TO.P,XU1,24*%
%TO.N,Net-(Q5-Pad3)*%
X144160000Y-79660000D03*
%TO.P,XU1,5*%
%TO.N,Net-(U1-Pad5)*%
X144160000Y-94900000D03*
%TO.P,XU1,25*%
%TO.N,Net-(U2-Pad15)*%
X141620000Y-79660000D03*
%TO.P,XU1,4*%
%TO.N,Net-(U1-Pad6)*%
X141620000Y-94900000D03*
%TO.P,XU1,26*%
%TO.N,Net-(U2-Pad5)*%
X139080000Y-79660000D03*
%TO.P,XU1,3*%
%TO.N,Net-(U1-Pad7)*%
X139080000Y-94900000D03*
%TO.P,XU1,27*%
%TO.N,Net-(U2-Pad6)*%
X136540000Y-79660000D03*
%TO.P,XU1,2*%
%TO.N,Net-(U2-Pad4)*%
X136540000Y-94900000D03*
%TO.P,XU1,28*%
%TO.N,+5V*%
X134000000Y-79660000D03*
D12*
%TO.P,XU1,1*%
%TO.N,Net-(Q3-Pad3)*%
X134000000Y-94900000D03*
%TD*%
D13*
%TO.P,U2,16*%
%TO.N,+5V*%
X147700000Y-73420000D03*
%TO.P,U2,8*%
%TO.N,GND*%
X129920000Y-65800000D03*
%TO.P,U2,15*%
%TO.N,Net-(U2-Pad15)*%
X145160000Y-73420000D03*
%TO.P,U2,7*%
%TO.N,Net-(U2-Pad7)*%
X132460000Y-65800000D03*
%TO.P,U2,14*%
%TO.N,Net-(U1-Pad9)*%
X142620000Y-73420000D03*
%TO.P,U2,6*%
%TO.N,Net-(U2-Pad6)*%
X135000000Y-65800000D03*
%TO.P,U2,13*%
%TO.N,GND*%
X140080000Y-73420000D03*
%TO.P,U2,5*%
%TO.N,Net-(U2-Pad5)*%
X137540000Y-65800000D03*
%TO.P,U2,12*%
%TO.N,Net-(U1-Pad12)*%
X137540000Y-73420000D03*
%TO.P,U2,4*%
%TO.N,Net-(U2-Pad4)*%
X140080000Y-65800000D03*
%TO.P,U2,11*%
%TO.N,Net-(U1-Pad11)*%
X135000000Y-73420000D03*
%TO.P,U2,3*%
%TO.N,Net-(U2-Pad3)*%
X142620000Y-65800000D03*
%TO.P,U2,10*%
%TO.N,+5V*%
X132460000Y-73420000D03*
%TO.P,U2,2*%
%TO.N,Net-(R12-Pad2)*%
X145160000Y-65800000D03*
%TO.P,U2,9*%
%TO.N,Net-(U2-Pad9)*%
X129920000Y-73420000D03*
D14*
%TO.P,U2,1*%
%TO.N,Net-(R2-Pad2)*%
X147700000Y-65800000D03*
%TD*%
D13*
%TO.P,U1,16*%
%TO.N,+5V*%
X155000000Y-108520000D03*
%TO.P,U1,8*%
%TO.N,GND*%
X137220000Y-100900000D03*
%TO.P,U1,15*%
%TO.N,Net-(U1-Pad15)*%
X152460000Y-108520000D03*
%TO.P,U1,7*%
%TO.N,Net-(U1-Pad7)*%
X139760000Y-100900000D03*
%TO.P,U1,14*%
%TO.N,Net-(U1-Pad14)*%
X149920000Y-108520000D03*
%TO.P,U1,6*%
%TO.N,Net-(U1-Pad6)*%
X142300000Y-100900000D03*
%TO.P,U1,13*%
%TO.N,GND*%
X147380000Y-108520000D03*
%TO.P,U1,5*%
%TO.N,Net-(U1-Pad5)*%
X144840000Y-100900000D03*
%TO.P,U1,12*%
%TO.N,Net-(U1-Pad12)*%
X144840000Y-108520000D03*
%TO.P,U1,4*%
%TO.N,Net-(U1-Pad4)*%
X147380000Y-100900000D03*
%TO.P,U1,11*%
%TO.N,Net-(U1-Pad11)*%
X142300000Y-108520000D03*
%TO.P,U1,3*%
%TO.N,Net-(U1-Pad3)*%
X149920000Y-100900000D03*
%TO.P,U1,10*%
%TO.N,+5V*%
X139760000Y-108520000D03*
%TO.P,U1,2*%
%TO.N,Net-(U1-Pad2)*%
X152460000Y-100900000D03*
%TO.P,U1,9*%
%TO.N,Net-(U1-Pad9)*%
X137220000Y-108520000D03*
D14*
%TO.P,U1,1*%
%TO.N,Net-(U1-Pad1)*%
X155000000Y-100900000D03*
%TD*%
D15*
%TO.P,J2,2*%
%TO.N,GND*%
X185420000Y-95250000D03*
D16*
%TO.P,J2,1*%
%TO.N,+12V*%
X182880000Y-95250000D03*
%TD*%
D15*
%TO.P,J1,2*%
%TO.N,GND*%
X185420000Y-88900000D03*
D16*
%TO.P,J1,1*%
%TO.N,+5V*%
X182880000Y-88900000D03*
%TD*%
%TO.P,C1,2*%
%TO.N,GND*%
%TA.AperFunction,SMDPad,CuDef*%
G36*
G01*
X130275000Y-79350000D02*
X130275000Y-79850000D01*
G75*
G02*
X130050000Y-80075000I-225000J0D01*
G01*
X129600000Y-80075000D01*
G75*
G02*
X129375000Y-79850000I0J225000D01*
G01*
X129375000Y-79350000D01*
G75*
G02*
X129600000Y-79125000I225000J0D01*
G01*
X130050000Y-79125000D01*
G75*
G02*
X130275000Y-79350000I0J-225000D01*
G01*
G37*
%TD.AperFunction*%
%TO.P,C1,1*%
%TO.N,+5V*%
%TA.AperFunction,SMDPad,CuDef*%
G36*
G01*
X131825000Y-79350000D02*
X131825000Y-79850000D01*
G75*
G02*
X131600000Y-80075000I-225000J0D01*
G01*
X131150000Y-80075000D01*
G75*
G02*
X130925000Y-79850000I0J225000D01*
G01*
X130925000Y-79350000D01*
G75*
G02*
X131150000Y-79125000I225000J0D01*
G01*
X131600000Y-79125000D01*
G75*
G02*
X131825000Y-79350000I0J-225000D01*
G01*
G37*
%TD.AperFunction*%
%TD*%
D17*
%TO.N,GND*%
X156950000Y-103750000D03*
X157200000Y-105250000D03*
X155650000Y-104800000D03*
X153900000Y-102900000D03*
X152050000Y-104400000D03*
X147350000Y-102900000D03*
X148450000Y-104700000D03*
X150400000Y-103150000D03*
X144850000Y-102850000D03*
X139700000Y-102950000D03*
X142500000Y-102950000D03*
X142400000Y-106200000D03*
X137800000Y-96600000D03*
X136350000Y-99200000D03*
X136400000Y-105200000D03*
X133700000Y-99700000D03*
X138500000Y-110150000D03*
X160550000Y-111100000D03*
X165150000Y-104900000D03*
X164150000Y-103400000D03*
X162000000Y-101000000D03*
X161800000Y-99400000D03*
X159300000Y-100250000D03*
X165600000Y-96700000D03*
X169050000Y-94350000D03*
X168300000Y-92700000D03*
X171200000Y-88450000D03*
X170400000Y-91000000D03*
X171050000Y-92850000D03*
X168850000Y-100100000D03*
X170000000Y-101500000D03*
X176500000Y-99400000D03*
X171300000Y-96750000D03*
X174550000Y-96550000D03*
X176800000Y-96600000D03*
X179150000Y-95250000D03*
X181000000Y-98000000D03*
X176050000Y-92750000D03*
X174400000Y-90500000D03*
X176600000Y-88750000D03*
X174050000Y-86050000D03*
X172150000Y-82300000D03*
X172300000Y-80400000D03*
X149250000Y-71900000D03*
X146850000Y-70150000D03*
X141350000Y-67850000D03*
X142400000Y-70900000D03*
X138750000Y-67600000D03*
X139400000Y-70700000D03*
X133900000Y-68300000D03*
X133800000Y-70900000D03*
X130550000Y-68150000D03*
X130600000Y-71000000D03*
X136450000Y-82450000D03*
X136950000Y-86100000D03*
X139000000Y-82300000D03*
X141700000Y-82850000D03*
X144200000Y-88150000D03*
X141700000Y-88200000D03*
X141650000Y-91350000D03*
X138600000Y-91900000D03*
X136050000Y-89950000D03*
X147500000Y-91600000D03*
X144350000Y-83450000D03*
X147100000Y-82850000D03*
X148150000Y-87600000D03*
X151150000Y-91350000D03*
X156050000Y-91600000D03*
X151200000Y-87550000D03*
X150900000Y-82100000D03*
X152000000Y-82150000D03*
X152800000Y-85150000D03*
X155850000Y-85350000D03*
X160850000Y-89250000D03*
X159050000Y-90700000D03*
X157250000Y-82450000D03*
X160600000Y-82850000D03*
X164000000Y-82550000D03*
X160600000Y-85250000D03*
X163350000Y-88000000D03*
X164650000Y-89000000D03*
X167250000Y-82300000D03*
X167300000Y-84300000D03*
X155000000Y-75200000D03*
X156300000Y-77000000D03*
X160850000Y-70450000D03*
X160850000Y-73150000D03*
X183250000Y-81850000D03*
X177650000Y-84100000D03*
X179500000Y-77450000D03*
X181500000Y-70750000D03*
X182250000Y-70800000D03*
X183550000Y-70800000D03*
X184350000Y-70950000D03*
X187850000Y-74250000D03*
X189100000Y-74150000D03*
X180550000Y-62750000D03*
X181600000Y-62750000D03*
X184950000Y-72700000D03*
X184350000Y-72000000D03*
X187500000Y-70100000D03*
X188550000Y-70100000D03*
X187700000Y-69350000D03*
X188500000Y-69250000D03*
X161500000Y-105950000D03*
X159350000Y-96750000D03*
X161700000Y-96900000D03*
X128600000Y-79200000D03*
X128650000Y-79950000D03*
X155900000Y-62750000D03*
X171600000Y-102000000D03*
X171350000Y-101150000D03*
X179450000Y-99650000D03*
X179300000Y-102650000D03*
X181900000Y-101000000D03*
X184450000Y-97950000D03*
X178400000Y-104700000D03*
X177600000Y-106650000D03*
X178050000Y-109600000D03*
X132050000Y-83250000D03*
X131900000Y-88000000D03*
X132450000Y-90400000D03*
X130950000Y-75800000D03*
X128250000Y-68450000D03*
X127950000Y-72950000D03*
X128100000Y-74500000D03*
X135400000Y-108000000D03*
X134200000Y-103350000D03*
X132100000Y-94600000D03*
X185500000Y-92050000D03*
X181800000Y-92550000D03*
X185850000Y-86100000D03*
X186500000Y-82900000D03*
X188250000Y-80750000D03*
X188950000Y-79250000D03*
X170950000Y-76500000D03*
X132350000Y-64100000D03*
X178800000Y-78200000D03*
X180350000Y-77450000D03*
X178700000Y-77050000D03*
X185050000Y-78900000D03*
X181150000Y-78900000D03*
X179550000Y-81250000D03*
X176300000Y-80950000D03*
D18*
%TO.N,+5V*%
X180800000Y-88900000D03*
X170500000Y-95350000D03*
X166650000Y-100400000D03*
X159700000Y-107350000D03*
%TO.N,+12V*%
X184400000Y-65700000D03*
X160750000Y-68850000D03*
X179700000Y-101050000D03*
X171375000Y-105225000D03*
X178650000Y-90250000D03*
X186349992Y-68050000D03*
X186349992Y-74350008D03*
D17*
%TO.N,/FB14EN*%
X181300000Y-80150000D03*
X152750000Y-71500000D03*
%TO.N,Net-(Q3-Pad3)*%
X178250000Y-97850000D03*
X133950000Y-97900000D03*
%TO.N,/\u005COE*%
X171650000Y-106600000D03*
X157700000Y-87900000D03*
X154100000Y-87900000D03*
X162700000Y-105500000D03*
%TO.N,Net-(Q5-Pad3)*%
X153150000Y-75099998D03*
X144160000Y-77660000D03*
%TO.N,Net-(Q6-Pad1)*%
X171300000Y-86450000D03*
X166400000Y-85950000D03*
X163550000Y-65200000D03*
%TO.N,Net-(R12-Pad2)*%
X146000000Y-68000000D03*
X147900000Y-68050000D03*
%TO.N,Net-(U1-Pad12)*%
X141800000Y-86250000D03*
X138800000Y-86400000D03*
%TO.N,Net-(U1-Pad11)*%
X140250000Y-89850000D03*
X137300000Y-88700000D03*
%TO.N,Net-(U1-Pad9)*%
X146000000Y-104300000D03*
X138000000Y-105750000D03*
%TO.N,Net-(U2-Pad15)*%
X141620000Y-77570002D03*
X146950000Y-76700000D03*
%TO.N,/\u005CCE*%
X170750000Y-109250000D03*
X161400000Y-107550000D03*
%TO.N,/D1*%
X166750000Y-90500000D03*
X161950000Y-90900000D03*
%TO.N,/D0*%
X165650000Y-92200000D03*
X159400000Y-92220509D03*
%TD*%
D19*
%TO.N,+5V*%
X133940000Y-79600000D02*
X134000000Y-79660000D01*
X131375000Y-79600000D02*
X133940000Y-79600000D01*
X147700000Y-73900000D02*
X147700000Y-73420000D01*
X146150000Y-75450000D02*
X147700000Y-73900000D01*
X137000000Y-75450000D02*
X146150000Y-75450000D01*
X134000000Y-78450000D02*
X137000000Y-75450000D01*
X134000000Y-79660000D02*
X134000000Y-78450000D01*
X180800000Y-88900000D02*
X180800000Y-90700000D01*
X180800000Y-90700000D02*
X176200000Y-95300000D01*
X170550000Y-95300000D02*
X170500000Y-95350000D01*
X176200000Y-95300000D02*
X170550000Y-95300000D01*
X166650000Y-100400000D02*
X165000000Y-100400000D01*
X165000000Y-100400000D02*
X159700000Y-105700000D01*
X159700000Y-105700000D02*
X159700000Y-107350000D01*
D20*
%TO.N,+12V*%
X181250000Y-68850000D02*
X160750000Y-68850000D01*
X184400000Y-65700000D02*
X181250000Y-68850000D01*
D19*
X171375000Y-105225000D02*
X174225000Y-105225000D01*
X174225000Y-105225000D02*
X178450000Y-101000000D01*
X179650000Y-101000000D02*
X179700000Y-101050000D01*
X178450000Y-101000000D02*
X179650000Y-101000000D01*
X186349992Y-74350008D02*
X186349992Y-68050000D01*
X186349992Y-81200008D02*
X186349992Y-74350008D01*
X178650000Y-88900000D02*
X186349992Y-81200008D01*
X178650000Y-90250000D02*
X178650000Y-88900000D01*
D21*
%TO.N,/FB14EN*%
X169150000Y-71500000D02*
X152750000Y-71500000D01*
X177800000Y-80150000D02*
X169150000Y-71500000D01*
X181300000Y-80150000D02*
X177800000Y-80150000D01*
%TO.N,Net-(Q3-Pad3)*%
X178250000Y-97850000D02*
X134000000Y-97850000D01*
X134000000Y-97850000D02*
X133950000Y-97900000D01*
%TO.N,/\u005COE*%
X157700000Y-87900000D02*
X154100000Y-87900000D01*
X171650000Y-106600000D02*
X163800000Y-106600000D01*
X163800000Y-106600000D02*
X162700000Y-105500000D01*
D22*
%TO.N,Net-(Q5-Pad3)*%
X153150000Y-75099998D02*
X150589998Y-77660000D01*
X150589998Y-77660000D02*
X144160000Y-77660000D01*
D21*
%TO.N,Net-(Q6-Pad1)*%
X171300000Y-86450000D02*
X166900000Y-86450000D01*
X166900000Y-86450000D02*
X166400000Y-85950000D01*
X153786000Y-65200000D02*
X163550000Y-65200000D01*
X151436000Y-62850000D02*
X153786000Y-65200000D01*
D22*
%TO.N,Net-(R12-Pad2)*%
X147850000Y-68000000D02*
X147900000Y-68050000D01*
X146000000Y-68000000D02*
X147850000Y-68000000D01*
D21*
%TO.N,Net-(U1-Pad14)*%
X163120000Y-111110000D02*
X161710000Y-109700000D01*
X151100000Y-109700000D02*
X149920000Y-108520000D01*
X161710000Y-109700000D02*
X151100000Y-109700000D01*
%TO.N,Net-(U1-Pad12)*%
X138950000Y-86250000D02*
X138800000Y-86400000D01*
X141800000Y-86250000D02*
X138950000Y-86250000D01*
X165660000Y-111110000D02*
X163749990Y-109199990D01*
X163749990Y-109199990D02*
X157699990Y-109199990D01*
X157699990Y-109199990D02*
X155350000Y-106850000D01*
X146510000Y-106850000D02*
X144840000Y-108520000D01*
X155350000Y-106850000D02*
X146510000Y-106850000D01*
%TO.N,Net-(U1-Pad11)*%
X138450000Y-89850000D02*
X137300000Y-88700000D01*
X140250000Y-89850000D02*
X138450000Y-89850000D01*
X168200000Y-111110000D02*
X165690000Y-108600000D01*
X165690000Y-108600000D02*
X158450000Y-108600000D01*
X158450000Y-108600000D02*
X156000000Y-106150000D01*
X144670000Y-106150000D02*
X142300000Y-108520000D01*
X156000000Y-106150000D02*
X144670000Y-106150000D01*
%TO.N,Net-(U1-Pad9)*%
X146000000Y-104300000D02*
X139450000Y-104300000D01*
X139450000Y-104300000D02*
X138000000Y-105750000D01*
%TO.N,Net-(U2-Pad15)*%
X142490002Y-76700000D02*
X146950000Y-76700000D01*
X141620000Y-77570002D02*
X142490002Y-76700000D01*
%TO.N,/\u005CCE*%
X161550000Y-107700000D02*
X161400000Y-107550000D01*
X169200000Y-107700000D02*
X161550000Y-107700000D01*
X170750000Y-109250000D02*
X169200000Y-107700000D01*
D22*
%TO.N,/D1*%
X166350000Y-90900000D02*
X161950000Y-90900000D01*
X166750000Y-90500000D02*
X166350000Y-90900000D01*
%TO.N,/D0*%
X165650000Y-92200000D02*
X159420509Y-92200000D01*
X159420509Y-92200000D02*
X159400000Y-92220509D01*
%TD*%
D23*
%TO.N,GND*%
X189840001Y-63273382D02*
X189840000Y-64532418D01*
X189840001Y-64532428D01*
X189840000Y-80726619D01*
X187556232Y-83010388D01*
X187531053Y-83031052D01*
X187510389Y-83056231D01*
X187510386Y-83056234D01*
X187448575Y-83131550D01*
X187387290Y-83246208D01*
X187349551Y-83370618D01*
X187336808Y-83500000D01*
X187340001Y-83532419D01*
X187340000Y-97226619D01*
X180556232Y-104010388D01*
X180531053Y-104031052D01*
X180510389Y-104056231D01*
X180510386Y-104056234D01*
X180448575Y-104131550D01*
X180387290Y-104246208D01*
X180349551Y-104370618D01*
X180336808Y-104500000D01*
X180340001Y-104532419D01*
X180340000Y-109726619D01*
X178056232Y-112010388D01*
X178031053Y-112031052D01*
X178010389Y-112056231D01*
X178010386Y-112056234D01*
X177948575Y-112131550D01*
X177887290Y-112246208D01*
X177849551Y-112370618D01*
X177836808Y-112500000D01*
X177840001Y-112532418D01*
X177840001Y-112840000D01*
X127273381Y-112840000D01*
X125660000Y-111226620D01*
X125660000Y-108378665D01*
X135785000Y-108378665D01*
X135785000Y-108661335D01*
X135840147Y-108938574D01*
X135948320Y-109199727D01*
X136105363Y-109434759D01*
X136305241Y-109634637D01*
X136540273Y-109791680D01*
X136801426Y-109899853D01*
X137078665Y-109955000D01*
X137361335Y-109955000D01*
X137638574Y-109899853D01*
X137899727Y-109791680D01*
X138134759Y-109634637D01*
X138334637Y-109434759D01*
X138490000Y-109202241D01*
X138645363Y-109434759D01*
X138845241Y-109634637D01*
X139080273Y-109791680D01*
X139341426Y-109899853D01*
X139366299Y-109904801D01*
X139304698Y-109945961D01*
X139095961Y-110154698D01*
X138931958Y-110400147D01*
X138818990Y-110672875D01*
X138761400Y-110962401D01*
X138761400Y-111257599D01*
X138818990Y-111547125D01*
X138931958Y-111819853D01*
X139095961Y-112065302D01*
X139304698Y-112274039D01*
X139550147Y-112438042D01*
X139822875Y-112551010D01*
X140112401Y-112608600D01*
X140407599Y-112608600D01*
X140697125Y-112551010D01*
X140969853Y-112438042D01*
X141215302Y-112274039D01*
X141424039Y-112065302D01*
X141530000Y-111906719D01*
X141635961Y-112065302D01*
X141844698Y-112274039D01*
X142090147Y-112438042D01*
X142362875Y-112551010D01*
X142652401Y-112608600D01*
X142947599Y-112608600D01*
X143237125Y-112551010D01*
X143509853Y-112438042D01*
X143755302Y-112274039D01*
X143964039Y-112065302D01*
X144070000Y-111906719D01*
X144175961Y-112065302D01*
X144384698Y-112274039D01*
X144630147Y-112438042D01*
X144902875Y-112551010D01*
X145192401Y-112608600D01*
X145487599Y-112608600D01*
X145777125Y-112551010D01*
X146049853Y-112438042D01*
X146295302Y-112274039D01*
X146504039Y-112065302D01*
X146610000Y-111906719D01*
X146715961Y-112065302D01*
X146924698Y-112274039D01*
X147170147Y-112438042D01*
X147442875Y-112551010D01*
X147732401Y-112608600D01*
X148027599Y-112608600D01*
X148317125Y-112551010D01*
X148589853Y-112438042D01*
X148835302Y-112274039D01*
X149044039Y-112065302D01*
X149150000Y-111906719D01*
X149255961Y-112065302D01*
X149464698Y-112274039D01*
X149710147Y-112438042D01*
X149982875Y-112551010D01*
X150272401Y-112608600D01*
X150567599Y-112608600D01*
X150857125Y-112551010D01*
X151129853Y-112438042D01*
X151375302Y-112274039D01*
X151584039Y-112065302D01*
X151691692Y-111904187D01*
X151853146Y-112120293D01*
X152071512Y-112316817D01*
X152324022Y-112466964D01*
X152600973Y-112564963D01*
X152833000Y-112444464D01*
X152833000Y-111237000D01*
X153087000Y-111237000D01*
X153087000Y-112444464D01*
X153319027Y-112564963D01*
X153595978Y-112466964D01*
X153848488Y-112316817D01*
X154066854Y-112120293D01*
X154230000Y-111901922D01*
X154393146Y-112120293D01*
X154611512Y-112316817D01*
X154864022Y-112466964D01*
X155140973Y-112564963D01*
X155373000Y-112444464D01*
X155373000Y-111237000D01*
X153087000Y-111237000D01*
X152833000Y-111237000D01*
X152813000Y-111237000D01*
X152813000Y-110983000D01*
X152833000Y-110983000D01*
X152833000Y-110963000D01*
X153087000Y-110963000D01*
X153087000Y-110983000D01*
X155373000Y-110983000D01*
X155373000Y-110963000D01*
X155627000Y-110963000D01*
X155627000Y-110983000D01*
X155647000Y-110983000D01*
X155647000Y-111237000D01*
X155627000Y-111237000D01*
X155627000Y-112444464D01*
X155859027Y-112564963D01*
X156135978Y-112466964D01*
X156388488Y-112316817D01*
X156606854Y-112120293D01*
X156768308Y-111904187D01*
X156875961Y-112065302D01*
X157084698Y-112274039D01*
X157330147Y-112438042D01*
X157602875Y-112551010D01*
X157892401Y-112608600D01*
X158187599Y-112608600D01*
X158477125Y-112551010D01*
X158749853Y-112438042D01*
X158995302Y-112274039D01*
X159204039Y-112065302D01*
X159368042Y-111819853D01*
X159481010Y-111547125D01*
X159538600Y-111257599D01*
X159538600Y-110962401D01*
X159481010Y-110672875D01*
X159403189Y-110485000D01*
X161384843Y-110485000D01*
X161661358Y-110761516D01*
X161621400Y-110962401D01*
X161621400Y-111257599D01*
X161678990Y-111547125D01*
X161791958Y-111819853D01*
X161955961Y-112065302D01*
X162164698Y-112274039D01*
X162410147Y-112438042D01*
X162682875Y-112551010D01*
X162972401Y-112608600D01*
X163267599Y-112608600D01*
X163557125Y-112551010D01*
X163829853Y-112438042D01*
X164075302Y-112274039D01*
X164284039Y-112065302D01*
X164390000Y-111906719D01*
X164495961Y-112065302D01*
X164704698Y-112274039D01*
X164950147Y-112438042D01*
X165222875Y-112551010D01*
X165512401Y-112608600D01*
X165807599Y-112608600D01*
X166097125Y-112551010D01*
X166369853Y-112438042D01*
X166615302Y-112274039D01*
X166824039Y-112065302D01*
X166930000Y-111906719D01*
X167035961Y-112065302D01*
X167244698Y-112274039D01*
X167490147Y-112438042D01*
X167762875Y-112551010D01*
X168052401Y-112608600D01*
X168347599Y-112608600D01*
X168637125Y-112551010D01*
X168909853Y-112438042D01*
X169155302Y-112274039D01*
X169364039Y-112065302D01*
X169470000Y-111906719D01*
X169575961Y-112065302D01*
X169784698Y-112274039D01*
X170030147Y-112438042D01*
X170302875Y-112551010D01*
X170592401Y-112608600D01*
X170887599Y-112608600D01*
X171177125Y-112551010D01*
X171449853Y-112438042D01*
X171695302Y-112274039D01*
X171904039Y-112065302D01*
X172010000Y-111906719D01*
X172115961Y-112065302D01*
X172324698Y-112274039D01*
X172570147Y-112438042D01*
X172842875Y-112551010D01*
X173132401Y-112608600D01*
X173427599Y-112608600D01*
X173717125Y-112551010D01*
X173989853Y-112438042D01*
X174235302Y-112274039D01*
X174444039Y-112065302D01*
X174550000Y-111906719D01*
X174655961Y-112065302D01*
X174864698Y-112274039D01*
X175110147Y-112438042D01*
X175382875Y-112551010D01*
X175672401Y-112608600D01*
X175967599Y-112608600D01*
X176257125Y-112551010D01*
X176529853Y-112438042D01*
X176775302Y-112274039D01*
X176984039Y-112065302D01*
X177148042Y-111819853D01*
X177261010Y-111547125D01*
X177318600Y-111257599D01*
X177318600Y-110962401D01*
X177261010Y-110672875D01*
X177148042Y-110400147D01*
X176984039Y-110154698D01*
X176775302Y-109945961D01*
X176529853Y-109781958D01*
X176257125Y-109668990D01*
X175967599Y-109611400D01*
X175672401Y-109611400D01*
X175382875Y-109668990D01*
X175110147Y-109781958D01*
X174864698Y-109945961D01*
X174655961Y-110154698D01*
X174550000Y-110313281D01*
X174444039Y-110154698D01*
X174235302Y-109945961D01*
X173989853Y-109781958D01*
X173717125Y-109668990D01*
X173427599Y-109611400D01*
X173132401Y-109611400D01*
X172842875Y-109668990D01*
X172570147Y-109781958D01*
X172324698Y-109945961D01*
X172115961Y-110154698D01*
X172010000Y-110313281D01*
X171904039Y-110154698D01*
X171695302Y-109945961D01*
X171497707Y-109813933D01*
X171578586Y-109692889D01*
X171649068Y-109522729D01*
X171685000Y-109342089D01*
X171685000Y-109157911D01*
X171649068Y-108977271D01*
X171578586Y-108807111D01*
X171476262Y-108653972D01*
X171346028Y-108523738D01*
X171192889Y-108421414D01*
X171022729Y-108350932D01*
X170945784Y-108335627D01*
X169995157Y-107385000D01*
X171141880Y-107385000D01*
X171207111Y-107428586D01*
X171377271Y-107499068D01*
X171557911Y-107535000D01*
X171742089Y-107535000D01*
X171922729Y-107499068D01*
X172092889Y-107428586D01*
X172246028Y-107326262D01*
X172376262Y-107196028D01*
X172478586Y-107042889D01*
X172549068Y-106872729D01*
X172585000Y-106692089D01*
X172585000Y-106507911D01*
X172549068Y-106327271D01*
X172478586Y-106157111D01*
X172447108Y-106110000D01*
X174181531Y-106110000D01*
X174225000Y-106114281D01*
X174268469Y-106110000D01*
X174268477Y-106110000D01*
X174398490Y-106097195D01*
X174565313Y-106046589D01*
X174719059Y-105964411D01*
X174853817Y-105853817D01*
X174881534Y-105820044D01*
X178816579Y-101885000D01*
X179086715Y-101885000D01*
X179209744Y-101967205D01*
X179398102Y-102045226D01*
X179598061Y-102085000D01*
X179801939Y-102085000D01*
X180001898Y-102045226D01*
X180190256Y-101967205D01*
X180359774Y-101853937D01*
X180503937Y-101709774D01*
X180617205Y-101540256D01*
X180695226Y-101351898D01*
X180735000Y-101151939D01*
X180735000Y-100948061D01*
X180695226Y-100748102D01*
X180617205Y-100559744D01*
X180503937Y-100390226D01*
X180359774Y-100246063D01*
X180190256Y-100132795D01*
X180001898Y-100054774D01*
X179801939Y-100015000D01*
X179598061Y-100015000D01*
X179398102Y-100054774D01*
X179252705Y-100115000D01*
X178493465Y-100115000D01*
X178449999Y-100110719D01*
X178406533Y-100115000D01*
X178406523Y-100115000D01*
X178276510Y-100127805D01*
X178109687Y-100178411D01*
X177955941Y-100260589D01*
X177955939Y-100260590D01*
X177955940Y-100260590D01*
X177854953Y-100343468D01*
X177854951Y-100343470D01*
X177821183Y-100371183D01*
X177793470Y-100404951D01*
X173858422Y-104340000D01*
X171913454Y-104340000D01*
X171865256Y-104307795D01*
X171676898Y-104229774D01*
X171476939Y-104190000D01*
X171273061Y-104190000D01*
X171073102Y-104229774D01*
X170884744Y-104307795D01*
X170715226Y-104421063D01*
X170571063Y-104565226D01*
X170457795Y-104734744D01*
X170379774Y-104923102D01*
X170340000Y-105123061D01*
X170340000Y-105326939D01*
X170379774Y-105526898D01*
X170457795Y-105715256D01*
X170524442Y-105815000D01*
X164125158Y-105815000D01*
X163614374Y-105304216D01*
X163599068Y-105227271D01*
X163528586Y-105057111D01*
X163426262Y-104903972D01*
X163296028Y-104773738D01*
X163142889Y-104671414D01*
X162972729Y-104600932D01*
X162792089Y-104565000D01*
X162607911Y-104565000D01*
X162427271Y-104600932D01*
X162257111Y-104671414D01*
X162103972Y-104773738D01*
X161973738Y-104903972D01*
X161871414Y-105057111D01*
X161800932Y-105227271D01*
X161765000Y-105407911D01*
X161765000Y-105592089D01*
X161800932Y-105772729D01*
X161871414Y-105942889D01*
X161973738Y-106096028D01*
X162103972Y-106226262D01*
X162257111Y-106328586D01*
X162427271Y-106399068D01*
X162504216Y-106414374D01*
X163004842Y-106915000D01*
X162087290Y-106915000D01*
X161996028Y-106823738D01*
X161842889Y-106721414D01*
X161672729Y-106650932D01*
X161492089Y-106615000D01*
X161307911Y-106615000D01*
X161127271Y-106650932D01*
X160957111Y-106721414D01*
X160803972Y-106823738D01*
X160673738Y-106953972D01*
X160662934Y-106970142D01*
X160617205Y-106859744D01*
X160585000Y-106811546D01*
X160585000Y-106066578D01*
X165366579Y-101285000D01*
X166111546Y-101285000D01*
X166159744Y-101317205D01*
X166348102Y-101395226D01*
X166548061Y-101435000D01*
X166751939Y-101435000D01*
X166951898Y-101395226D01*
X167140256Y-101317205D01*
X167309774Y-101203937D01*
X167453937Y-101059774D01*
X167567205Y-100890256D01*
X167645226Y-100701898D01*
X167685000Y-100501939D01*
X167685000Y-100298061D01*
X167645226Y-100098102D01*
X167567205Y-99909744D01*
X167453937Y-99740226D01*
X167309774Y-99596063D01*
X167140256Y-99482795D01*
X166951898Y-99404774D01*
X166751939Y-99365000D01*
X166548061Y-99365000D01*
X166348102Y-99404774D01*
X166159744Y-99482795D01*
X166111546Y-99515000D01*
X165043469Y-99515000D01*
X165000000Y-99510719D01*
X164956531Y-99515000D01*
X164956523Y-99515000D01*
X164826510Y-99527805D01*
X164659687Y-99578411D01*
X164566313Y-99628320D01*
X164505941Y-99660589D01*
X164404953Y-99743468D01*
X164404951Y-99743470D01*
X164371183Y-99771183D01*
X164343470Y-99804951D01*
X159104956Y-105043466D01*
X159071183Y-105071183D01*
X158960589Y-105205942D01*
X158878411Y-105359688D01*
X158827805Y-105526511D01*
X158815000Y-105656524D01*
X158815000Y-105656531D01*
X158810719Y-105700000D01*
X158815000Y-105743469D01*
X158815001Y-106811545D01*
X158782795Y-106859744D01*
X158704774Y-107048102D01*
X158665000Y-107248061D01*
X158665000Y-107451939D01*
X158704774Y-107651898D01*
X158770336Y-107810179D01*
X156582347Y-105622190D01*
X156557764Y-105592236D01*
X156438233Y-105494138D01*
X156301860Y-105421246D01*
X156153887Y-105376359D01*
X156038561Y-105365000D01*
X156038553Y-105365000D01*
X156000000Y-105361203D01*
X155961447Y-105365000D01*
X144708552Y-105365000D01*
X144669999Y-105361203D01*
X144631446Y-105365000D01*
X144631439Y-105365000D01*
X144530490Y-105374943D01*
X144516112Y-105376359D01*
X144368140Y-105421246D01*
X144231767Y-105494138D01*
X144171559Y-105543550D01*
X144142187Y-105567655D01*
X144142184Y-105567658D01*
X144112236Y-105592236D01*
X144087658Y-105622184D01*
X142594396Y-107115446D01*
X142441335Y-107085000D01*
X142158665Y-107085000D01*
X141881426Y-107140147D01*
X141620273Y-107248320D01*
X141385241Y-107405363D01*
X141185363Y-107605241D01*
X141030000Y-107837759D01*
X140874637Y-107605241D01*
X140674759Y-107405363D01*
X140439727Y-107248320D01*
X140178574Y-107140147D01*
X139901335Y-107085000D01*
X139618665Y-107085000D01*
X139341426Y-107140147D01*
X139080273Y-107248320D01*
X138845241Y-107405363D01*
X138645363Y-107605241D01*
X138490000Y-107837759D01*
X138334637Y-107605241D01*
X138134759Y-107405363D01*
X137899727Y-107248320D01*
X137638574Y-107140147D01*
X137361335Y-107085000D01*
X137078665Y-107085000D01*
X136801426Y-107140147D01*
X136540273Y-107248320D01*
X136305241Y-107405363D01*
X136105363Y-107605241D01*
X135948320Y-107840273D01*
X135840147Y-108101426D01*
X135785000Y-108378665D01*
X125660000Y-108378665D01*
X125660000Y-105657911D01*
X137065000Y-105657911D01*
X137065000Y-105842089D01*
X137100932Y-106022729D01*
X137171414Y-106192889D01*
X137273738Y-106346028D01*
X137403972Y-106476262D01*
X137557111Y-106578586D01*
X137727271Y-106649068D01*
X137907911Y-106685000D01*
X138092089Y-106685000D01*
X138272729Y-106649068D01*
X138442889Y-106578586D01*
X138596028Y-106476262D01*
X138726262Y-106346028D01*
X138828586Y-106192889D01*
X138899068Y-106022729D01*
X138914374Y-105945783D01*
X139775157Y-105085000D01*
X145491880Y-105085000D01*
X145557111Y-105128586D01*
X145727271Y-105199068D01*
X145907911Y-105235000D01*
X146092089Y-105235000D01*
X146272729Y-105199068D01*
X146442889Y-105128586D01*
X146596028Y-105026262D01*
X146726262Y-104896028D01*
X146828586Y-104742889D01*
X146899068Y-104572729D01*
X146935000Y-104392089D01*
X146935000Y-104207911D01*
X146899068Y-104027271D01*
X146828586Y-103857111D01*
X146726262Y-103703972D01*
X146596028Y-103573738D01*
X146442889Y-103471414D01*
X146272729Y-103400932D01*
X146092089Y-103365000D01*
X145907911Y-103365000D01*
X145727271Y-103400932D01*
X145557111Y-103471414D01*
X145491880Y-103515000D01*
X139488556Y-103515000D01*
X139450000Y-103511203D01*
X139411444Y-103515000D01*
X139411439Y-103515000D01*
X139371026Y-103518980D01*
X139296113Y-103526358D01*
X139148140Y-103571246D01*
X139011767Y-103644138D01*
X138892236Y-103742236D01*
X138867653Y-103772190D01*
X137804217Y-104835626D01*
X137727271Y-104850932D01*
X137557111Y-104921414D01*
X137403972Y-105023738D01*
X137273738Y-105153972D01*
X137171414Y-105307111D01*
X137100932Y-105477271D01*
X137065000Y-105657911D01*
X125660000Y-105657911D01*
X125660000Y-101249040D01*
X135828091Y-101249040D01*
X135922930Y-101513881D01*
X136067615Y-101755131D01*
X136256586Y-101963519D01*
X136482580Y-102131037D01*
X136736913Y-102251246D01*
X136870961Y-102291904D01*
X137093000Y-102169915D01*
X137093000Y-101027000D01*
X135949376Y-101027000D01*
X135828091Y-101249040D01*
X125660000Y-101249040D01*
X125660000Y-100550960D01*
X135828091Y-100550960D01*
X135949376Y-100773000D01*
X137093000Y-100773000D01*
X137093000Y-99630085D01*
X137347000Y-99630085D01*
X137347000Y-100773000D01*
X137367000Y-100773000D01*
X137367000Y-101027000D01*
X137347000Y-101027000D01*
X137347000Y-102169915D01*
X137569039Y-102291904D01*
X137703087Y-102251246D01*
X137957420Y-102131037D01*
X138183414Y-101963519D01*
X138372385Y-101755131D01*
X138483933Y-101569135D01*
X138488320Y-101579727D01*
X138645363Y-101814759D01*
X138845241Y-102014637D01*
X139080273Y-102171680D01*
X139341426Y-102279853D01*
X139618665Y-102335000D01*
X139901335Y-102335000D01*
X140178574Y-102279853D01*
X140439727Y-102171680D01*
X140674759Y-102014637D01*
X140874637Y-101814759D01*
X141030000Y-101582241D01*
X141185363Y-101814759D01*
X141385241Y-102014637D01*
X141620273Y-102171680D01*
X141881426Y-102279853D01*
X142158665Y-102335000D01*
X142441335Y-102335000D01*
X142718574Y-102279853D01*
X142979727Y-102171680D01*
X143214759Y-102014637D01*
X143414637Y-101814759D01*
X143570000Y-101582241D01*
X143725363Y-101814759D01*
X143925241Y-102014637D01*
X144160273Y-102171680D01*
X144421426Y-102279853D01*
X144698665Y-102335000D01*
X144981335Y-102335000D01*
X145258574Y-102279853D01*
X145519727Y-102171680D01*
X145754759Y-102014637D01*
X145954637Y-101814759D01*
X146110000Y-101582241D01*
X146265363Y-101814759D01*
X146465241Y-102014637D01*
X146700273Y-102171680D01*
X146961426Y-102279853D01*
X147238665Y-102335000D01*
X147521335Y-102335000D01*
X147798574Y-102279853D01*
X148059727Y-102171680D01*
X148294759Y-102014637D01*
X148494637Y-101814759D01*
X148650000Y-101582241D01*
X148805363Y-101814759D01*
X149005241Y-102014637D01*
X149240273Y-102171680D01*
X149501426Y-102279853D01*
X149778665Y-102335000D01*
X150061335Y-102335000D01*
X150338574Y-102279853D01*
X150599727Y-102171680D01*
X150834759Y-102014637D01*
X151034637Y-101814759D01*
X151190000Y-101582241D01*
X151345363Y-101814759D01*
X151545241Y-102014637D01*
X151780273Y-102171680D01*
X152041426Y-102279853D01*
X152318665Y-102335000D01*
X152601335Y-102335000D01*
X152878574Y-102279853D01*
X153139727Y-102171680D01*
X153374759Y-102014637D01*
X153573357Y-101816039D01*
X153574188Y-101824482D01*
X153610498Y-101944180D01*
X153669463Y-102054494D01*
X153748815Y-102151185D01*
X153845506Y-102230537D01*
X153955820Y-102289502D01*
X154075518Y-102325812D01*
X154200000Y-102338072D01*
X155800000Y-102338072D01*
X155924482Y-102325812D01*
X156044180Y-102289502D01*
X156154494Y-102230537D01*
X156251185Y-102151185D01*
X156330537Y-102054494D01*
X156389502Y-101944180D01*
X156425812Y-101824482D01*
X156438072Y-101700000D01*
X156438072Y-100100000D01*
X156425812Y-99975518D01*
X156389502Y-99855820D01*
X156330537Y-99745506D01*
X156251185Y-99648815D01*
X156154494Y-99569463D01*
X156044180Y-99510498D01*
X155924482Y-99474188D01*
X155800000Y-99461928D01*
X154200000Y-99461928D01*
X154075518Y-99474188D01*
X153955820Y-99510498D01*
X153845506Y-99569463D01*
X153748815Y-99648815D01*
X153669463Y-99745506D01*
X153610498Y-99855820D01*
X153574188Y-99975518D01*
X153573357Y-99983961D01*
X153374759Y-99785363D01*
X153139727Y-99628320D01*
X152878574Y-99520147D01*
X152601335Y-99465000D01*
X152318665Y-99465000D01*
X152041426Y-99520147D01*
X151780273Y-99628320D01*
X151545241Y-99785363D01*
X151345363Y-99985241D01*
X151190000Y-100217759D01*
X151034637Y-99985241D01*
X150834759Y-99785363D01*
X150599727Y-99628320D01*
X150338574Y-99520147D01*
X150061335Y-99465000D01*
X149778665Y-99465000D01*
X149501426Y-99520147D01*
X149240273Y-99628320D01*
X149005241Y-99785363D01*
X148805363Y-99985241D01*
X148650000Y-100217759D01*
X148494637Y-99985241D01*
X148294759Y-99785363D01*
X148059727Y-99628320D01*
X147798574Y-99520147D01*
X147521335Y-99465000D01*
X147238665Y-99465000D01*
X146961426Y-99520147D01*
X146700273Y-99628320D01*
X146465241Y-99785363D01*
X146265363Y-99985241D01*
X146110000Y-100217759D01*
X145954637Y-99985241D01*
X145754759Y-99785363D01*
X145519727Y-99628320D01*
X145258574Y-99520147D01*
X144981335Y-99465000D01*
X144698665Y-99465000D01*
X144421426Y-99520147D01*
X144160273Y-99628320D01*
X143925241Y-99785363D01*
X143725363Y-99985241D01*
X143570000Y-100217759D01*
X143414637Y-99985241D01*
X143214759Y-99785363D01*
X142979727Y-99628320D01*
X142718574Y-99520147D01*
X142441335Y-99465000D01*
X142158665Y-99465000D01*
X141881426Y-99520147D01*
X141620273Y-99628320D01*
X141385241Y-99785363D01*
X141185363Y-99985241D01*
X141030000Y-100217759D01*
X140874637Y-99985241D01*
X140674759Y-99785363D01*
X140439727Y-99628320D01*
X140178574Y-99520147D01*
X139901335Y-99465000D01*
X139618665Y-99465000D01*
X139341426Y-99520147D01*
X139080273Y-99628320D01*
X138845241Y-99785363D01*
X138645363Y-99985241D01*
X138488320Y-100220273D01*
X138483933Y-100230865D01*
X138372385Y-100044869D01*
X138183414Y-99836481D01*
X137957420Y-99668963D01*
X137703087Y-99548754D01*
X137569039Y-99508096D01*
X137347000Y-99630085D01*
X137093000Y-99630085D01*
X136870961Y-99508096D01*
X136736913Y-99548754D01*
X136482580Y-99668963D01*
X136256586Y-99836481D01*
X136067615Y-100044869D01*
X135922930Y-100286119D01*
X135828091Y-100550960D01*
X125660000Y-100550960D01*
X125660000Y-100532408D01*
X125663192Y-100499999D01*
X125660000Y-100467590D01*
X125660000Y-100467581D01*
X125650450Y-100370617D01*
X125612710Y-100246207D01*
X125576473Y-100178411D01*
X125551425Y-100131549D01*
X125489614Y-100056233D01*
X125489612Y-100056231D01*
X125468948Y-100031052D01*
X125443770Y-100010389D01*
X123660000Y-98226620D01*
X123660000Y-97807911D01*
X133015000Y-97807911D01*
X133015000Y-97992089D01*
X133050932Y-98172729D01*
X133121414Y-98342889D01*
X133223738Y-98496028D01*
X133353972Y-98626262D01*
X133507111Y-98728586D01*
X133677271Y-98799068D01*
X133857911Y-98835000D01*
X134042089Y-98835000D01*
X134222729Y-98799068D01*
X134392889Y-98728586D01*
X134532951Y-98635000D01*
X177741880Y-98635000D01*
X177807111Y-98678586D01*
X177977271Y-98749068D01*
X178157911Y-98785000D01*
X178342089Y-98785000D01*
X178522729Y-98749068D01*
X178692889Y-98678586D01*
X178846028Y-98576262D01*
X178976262Y-98446028D01*
X179078586Y-98292889D01*
X179149068Y-98122729D01*
X179185000Y-97942089D01*
X179185000Y-97757911D01*
X179149068Y-97577271D01*
X179078586Y-97407111D01*
X178976262Y-97253972D01*
X178846028Y-97123738D01*
X178692889Y-97021414D01*
X178522729Y-96950932D01*
X178342089Y-96915000D01*
X178157911Y-96915000D01*
X177977271Y-96950932D01*
X177807111Y-97021414D01*
X177741880Y-97065000D01*
X134377404Y-97065000D01*
X134222729Y-97000932D01*
X134042089Y-96965000D01*
X133857911Y-96965000D01*
X133677271Y-97000932D01*
X133507111Y-97071414D01*
X133353972Y-97173738D01*
X133223738Y-97303972D01*
X133121414Y-97457111D01*
X133050932Y-97627271D01*
X133015000Y-97807911D01*
X123660000Y-97807911D01*
X123660000Y-93900000D01*
X132641928Y-93900000D01*
X132641928Y-95900000D01*
X132654188Y-96024482D01*
X132690498Y-96144180D01*
X132749463Y-96254494D01*
X132828815Y-96351185D01*
X132925506Y-96430537D01*
X133035820Y-96489502D01*
X133155518Y-96525812D01*
X133280000Y-96538072D01*
X134720000Y-96538072D01*
X134844482Y-96525812D01*
X134964180Y-96489502D01*
X135074494Y-96430537D01*
X135171185Y-96351185D01*
X135250537Y-96254494D01*
X135309502Y-96144180D01*
X135345812Y-96024482D01*
X135358072Y-95900000D01*
X135358072Y-95843204D01*
X135407908Y-95936440D01*
X135577236Y-96142765D01*
X135783561Y-96312092D01*
X136018956Y-96437914D01*
X136274375Y-96515394D01*
X136540000Y-96541556D01*
X136805626Y-96515394D01*
X137061045Y-96437914D01*
X137296440Y-96312092D01*
X137502765Y-96142765D01*
X137672092Y-95936440D01*
X137797914Y-95701045D01*
X137810000Y-95661202D01*
X137822086Y-95701045D01*
X137947908Y-95936440D01*
X138117236Y-96142765D01*
X138323561Y-96312092D01*
X138558956Y-96437914D01*
X138814375Y-96515394D01*
X139080000Y-96541556D01*
X139345626Y-96515394D01*
X139601045Y-96437914D01*
X139836440Y-96312092D01*
X140042765Y-96142765D01*
X140212092Y-95936440D01*
X140337914Y-95701045D01*
X140350000Y-95661202D01*
X140362086Y-95701045D01*
X140487908Y-95936440D01*
X140657236Y-96142765D01*
X140863561Y-96312092D01*
X141098956Y-96437914D01*
X141354375Y-96515394D01*
X141620000Y-96541556D01*
X141885626Y-96515394D01*
X142141045Y-96437914D01*
X142376440Y-96312092D01*
X142582765Y-96142765D01*
X142752092Y-95936440D01*
X142877914Y-95701045D01*
X142890000Y-95661202D01*
X142902086Y-95701045D01*
X143027908Y-95936440D01*
X143197236Y-96142765D01*
X143403561Y-96312092D01*
X143638956Y-96437914D01*
X143894375Y-96515394D01*
X144160000Y-96541556D01*
X144425626Y-96515394D01*
X144681045Y-96437914D01*
X144916440Y-96312092D01*
X145122765Y-96142765D01*
X145292092Y-95936440D01*
X145417914Y-95701045D01*
X145430000Y-95661202D01*
X145442086Y-95701045D01*
X145567908Y-95936440D01*
X145737236Y-96142765D01*
X145943561Y-96312092D01*
X146178956Y-96437914D01*
X146434375Y-96515394D01*
X146700000Y-96541556D01*
X146965626Y-96515394D01*
X147221045Y-96437914D01*
X147456440Y-96312092D01*
X147662765Y-96142765D01*
X147832092Y-95936440D01*
X147957914Y-95701045D01*
X147970000Y-95661202D01*
X147982086Y-95701045D01*
X148107908Y-95936440D01*
X148277236Y-96142765D01*
X148483561Y-96312092D01*
X148718956Y-96437914D01*
X148974375Y-96515394D01*
X149240000Y-96541556D01*
X149505626Y-96515394D01*
X149761045Y-96437914D01*
X149996440Y-96312092D01*
X150202765Y-96142765D01*
X150372092Y-95936440D01*
X150497914Y-95701045D01*
X150510000Y-95661202D01*
X150522086Y-95701045D01*
X150647908Y-95936440D01*
X150817236Y-96142765D01*
X151023561Y-96312092D01*
X151258956Y-96437914D01*
X151514375Y-96515394D01*
X151780000Y-96541556D01*
X152045626Y-96515394D01*
X152301045Y-96437914D01*
X152536440Y-96312092D01*
X152742765Y-96142765D01*
X152912092Y-95936440D01*
X153037914Y-95701045D01*
X153050000Y-95661202D01*
X153062086Y-95701045D01*
X153187908Y-95936440D01*
X153357236Y-96142765D01*
X153563561Y-96312092D01*
X153798956Y-96437914D01*
X154054375Y-96515394D01*
X154320000Y-96541556D01*
X154585626Y-96515394D01*
X154841045Y-96437914D01*
X155076440Y-96312092D01*
X155282765Y-96142765D01*
X155452092Y-95936440D01*
X155577914Y-95701045D01*
X155590000Y-95661202D01*
X155602086Y-95701045D01*
X155727908Y-95936440D01*
X155897236Y-96142765D01*
X156103561Y-96312092D01*
X156338956Y-96437914D01*
X156594375Y-96515394D01*
X156860000Y-96541556D01*
X157125626Y-96515394D01*
X157381045Y-96437914D01*
X157616440Y-96312092D01*
X157822765Y-96142765D01*
X157992092Y-95936440D01*
X158117914Y-95701045D01*
X158130000Y-95661202D01*
X158142086Y-95701045D01*
X158267908Y-95936440D01*
X158437236Y-96142765D01*
X158643561Y-96312092D01*
X158878956Y-96437914D01*
X159134375Y-96515394D01*
X159400000Y-96541556D01*
X159665626Y-96515394D01*
X159921045Y-96437914D01*
X160156440Y-96312092D01*
X160362765Y-96142765D01*
X160532092Y-95936440D01*
X160657914Y-95701045D01*
X160670000Y-95661202D01*
X160682086Y-95701045D01*
X160807908Y-95936440D01*
X160977236Y-96142765D01*
X161183561Y-96312092D01*
X161418956Y-96437914D01*
X161674375Y-96515394D01*
X161940000Y-96541556D01*
X162205626Y-96515394D01*
X162461045Y-96437914D01*
X162696440Y-96312092D01*
X162902765Y-96142765D01*
X163072092Y-95936440D01*
X163197914Y-95701045D01*
X163210000Y-95661202D01*
X163222086Y-95701045D01*
X163347908Y-95936440D01*
X163517236Y-96142765D01*
X163723561Y-96312092D01*
X163958956Y-96437914D01*
X164214375Y-96515394D01*
X164480000Y-96541556D01*
X164745626Y-96515394D01*
X165001045Y-96437914D01*
X165236440Y-96312092D01*
X165442765Y-96142765D01*
X165612092Y-95936440D01*
X165737914Y-95701045D01*
X165751505Y-95656241D01*
X165816744Y-95815869D01*
X165963916Y-96038395D01*
X166151673Y-96227933D01*
X166372799Y-96377199D01*
X166618797Y-96480458D01*
X166683528Y-96492559D01*
X166893000Y-96369489D01*
X166893000Y-95027000D01*
X167147000Y-95027000D01*
X167147000Y-96369489D01*
X167356472Y-96492559D01*
X167421203Y-96480458D01*
X167667201Y-96377199D01*
X167888327Y-96227933D01*
X168076084Y-96038395D01*
X168223256Y-95815869D01*
X168324188Y-95568907D01*
X168375000Y-95307000D01*
X168375000Y-95248061D01*
X169465000Y-95248061D01*
X169465000Y-95451939D01*
X169504774Y-95651898D01*
X169582795Y-95840256D01*
X169696063Y-96009774D01*
X169840226Y-96153937D01*
X170009744Y-96267205D01*
X170198102Y-96345226D01*
X170398061Y-96385000D01*
X170601939Y-96385000D01*
X170801898Y-96345226D01*
X170990256Y-96267205D01*
X171113285Y-96185000D01*
X176156531Y-96185000D01*
X176200000Y-96189281D01*
X176243469Y-96185000D01*
X176243477Y-96185000D01*
X176373490Y-96172195D01*
X176540313Y-96121589D01*
X176694059Y-96039411D01*
X176828817Y-95928817D01*
X176856534Y-95895044D01*
X178351578Y-94400000D01*
X181391928Y-94400000D01*
X181391928Y-96100000D01*
X181404188Y-96224482D01*
X181440498Y-96344180D01*
X181499463Y-96454494D01*
X181578815Y-96551185D01*
X181675506Y-96630537D01*
X181785820Y-96689502D01*
X181905518Y-96725812D01*
X182030000Y-96738072D01*
X183730000Y-96738072D01*
X183854482Y-96725812D01*
X183974180Y-96689502D01*
X184084494Y-96630537D01*
X184181185Y-96551185D01*
X184260537Y-96454494D01*
X184319502Y-96344180D01*
X184343966Y-96263534D01*
X184419731Y-96347588D01*
X184653080Y-96521641D01*
X184915901Y-96646825D01*
X185063110Y-96691476D01*
X185293000Y-96570155D01*
X185293000Y-95377000D01*
X185547000Y-95377000D01*
X185547000Y-96570155D01*
X185776890Y-96691476D01*
X185924099Y-96646825D01*
X186186920Y-96521641D01*
X186420269Y-96347588D01*
X186615178Y-96131355D01*
X186764157Y-95881252D01*
X186861481Y-95606891D01*
X186740814Y-95377000D01*
X185547000Y-95377000D01*
X185293000Y-95377000D01*
X185273000Y-95377000D01*
X185273000Y-95123000D01*
X185293000Y-95123000D01*
X185293000Y-93929845D01*
X185547000Y-93929845D01*
X185547000Y-95123000D01*
X186740814Y-95123000D01*
X186861481Y-94893109D01*
X186764157Y-94618748D01*
X186615178Y-94368645D01*
X186420269Y-94152412D01*
X186186920Y-93978359D01*
X185924099Y-93853175D01*
X185776890Y-93808524D01*
X185547000Y-93929845D01*
X185293000Y-93929845D01*
X185063110Y-93808524D01*
X184915901Y-93853175D01*
X184653080Y-93978359D01*
X184419731Y-94152412D01*
X184343966Y-94236466D01*
X184319502Y-94155820D01*
X184260537Y-94045506D01*
X184181185Y-93948815D01*
X184084494Y-93869463D01*
X183974180Y-93810498D01*
X183854482Y-93774188D01*
X183730000Y-93761928D01*
X182030000Y-93761928D01*
X181905518Y-93774188D01*
X181785820Y-93810498D01*
X181675506Y-93869463D01*
X181578815Y-93948815D01*
X181499463Y-94045506D01*
X181440498Y-94155820D01*
X181404188Y-94275518D01*
X181391928Y-94400000D01*
X178351578Y-94400000D01*
X181395049Y-91356530D01*
X181428817Y-91328817D01*
X181464360Y-91285509D01*
X181539410Y-91194060D01*
X181539411Y-91194059D01*
X181621589Y-91040313D01*
X181672195Y-90873490D01*
X181685000Y-90743477D01*
X181685000Y-90743467D01*
X181689281Y-90700001D01*
X181685000Y-90656535D01*
X181685000Y-90285612D01*
X181785820Y-90339502D01*
X181905518Y-90375812D01*
X182030000Y-90388072D01*
X183730000Y-90388072D01*
X183854482Y-90375812D01*
X183974180Y-90339502D01*
X184084494Y-90280537D01*
X184181185Y-90201185D01*
X184260537Y-90104494D01*
X184319502Y-89994180D01*
X184343966Y-89913534D01*
X184419731Y-89997588D01*
X184653080Y-90171641D01*
X184915901Y-90296825D01*
X185063110Y-90341476D01*
X185293000Y-90220155D01*
X185293000Y-89027000D01*
X185547000Y-89027000D01*
X185547000Y-90220155D01*
X185776890Y-90341476D01*
X185924099Y-90296825D01*
X186186920Y-90171641D01*
X186420269Y-89997588D01*
X186615178Y-89781355D01*
X186764157Y-89531252D01*
X186861481Y-89256891D01*
X186740814Y-89027000D01*
X185547000Y-89027000D01*
X185293000Y-89027000D01*
X185273000Y-89027000D01*
X185273000Y-88773000D01*
X185293000Y-88773000D01*
X185293000Y-87579845D01*
X185547000Y-87579845D01*
X185547000Y-88773000D01*
X186740814Y-88773000D01*
X186861481Y-88543109D01*
X186764157Y-88268748D01*
X186615178Y-88018645D01*
X186420269Y-87802412D01*
X186186920Y-87628359D01*
X185924099Y-87503175D01*
X185776890Y-87458524D01*
X185547000Y-87579845D01*
X185293000Y-87579845D01*
X185063110Y-87458524D01*
X184915901Y-87503175D01*
X184653080Y-87628359D01*
X184419731Y-87802412D01*
X184343966Y-87886466D01*
X184319502Y-87805820D01*
X184260537Y-87695506D01*
X184181185Y-87598815D01*
X184084494Y-87519463D01*
X183974180Y-87460498D01*
X183854482Y-87424188D01*
X183730000Y-87411928D01*
X182030000Y-87411928D01*
X181905518Y-87424188D01*
X181785820Y-87460498D01*
X181675506Y-87519463D01*
X181578815Y-87598815D01*
X181499463Y-87695506D01*
X181440498Y-87805820D01*
X181404188Y-87925518D01*
X181391928Y-88050000D01*
X181391928Y-88050730D01*
X181290256Y-87982795D01*
X181101898Y-87904774D01*
X180930831Y-87870747D01*
X186945043Y-81856536D01*
X186978809Y-81828825D01*
X187089403Y-81694067D01*
X187171581Y-81540321D01*
X187222187Y-81373498D01*
X187234992Y-81243485D01*
X187234992Y-81243475D01*
X187239273Y-81200009D01*
X187234992Y-81156543D01*
X187234992Y-74888462D01*
X187267197Y-74840264D01*
X187345218Y-74651906D01*
X187384992Y-74451947D01*
X187384992Y-74248069D01*
X187345218Y-74048110D01*
X187267197Y-73859752D01*
X187234992Y-73811554D01*
X187234992Y-68588454D01*
X187267197Y-68540256D01*
X187345218Y-68351898D01*
X187384992Y-68151939D01*
X187384992Y-67948061D01*
X187345218Y-67748102D01*
X187267197Y-67559744D01*
X187153929Y-67390226D01*
X187009766Y-67246063D01*
X186840248Y-67132795D01*
X186651890Y-67054774D01*
X186451931Y-67015000D01*
X186248053Y-67015000D01*
X186048094Y-67054774D01*
X185859736Y-67132795D01*
X185690218Y-67246063D01*
X185546055Y-67390226D01*
X185432787Y-67559744D01*
X185354766Y-67748102D01*
X185314992Y-67948061D01*
X185314992Y-68151939D01*
X185354766Y-68351898D01*
X185432787Y-68540256D01*
X185464993Y-68588456D01*
X185464992Y-73811554D01*
X185432787Y-73859752D01*
X185354766Y-74048110D01*
X185314992Y-74248069D01*
X185314992Y-74451947D01*
X185354766Y-74651906D01*
X185432787Y-74840264D01*
X185464993Y-74888464D01*
X185464992Y-80833429D01*
X178054952Y-88243470D01*
X178021184Y-88271183D01*
X177993471Y-88304951D01*
X177993468Y-88304954D01*
X177910590Y-88405941D01*
X177828412Y-88559687D01*
X177777805Y-88726510D01*
X177760719Y-88900000D01*
X177765001Y-88943479D01*
X177765000Y-89711545D01*
X177732795Y-89759744D01*
X177654774Y-89948102D01*
X177615000Y-90148061D01*
X177615000Y-90351939D01*
X177654774Y-90551898D01*
X177732795Y-90740256D01*
X177846063Y-90909774D01*
X177990226Y-91053937D01*
X178159744Y-91167205D01*
X178348102Y-91245226D01*
X178548061Y-91285000D01*
X178751939Y-91285000D01*
X178951898Y-91245226D01*
X179039468Y-91208953D01*
X175833422Y-94415000D01*
X170947295Y-94415000D01*
X170801898Y-94354774D01*
X170601939Y-94315000D01*
X170398061Y-94315000D01*
X170198102Y-94354774D01*
X170009744Y-94432795D01*
X169840226Y-94546063D01*
X169696063Y-94690226D01*
X169582795Y-94859744D01*
X169504774Y-95048102D01*
X169465000Y-95248061D01*
X168375000Y-95248061D01*
X168375000Y-95027000D01*
X167147000Y-95027000D01*
X166893000Y-95027000D01*
X166873000Y-95027000D01*
X166873000Y-94773000D01*
X166893000Y-94773000D01*
X166893000Y-93430511D01*
X167147000Y-93430511D01*
X167147000Y-94773000D01*
X168375000Y-94773000D01*
X168375000Y-94493000D01*
X168324188Y-94231093D01*
X168223256Y-93984131D01*
X168076084Y-93761605D01*
X167888327Y-93572067D01*
X167667201Y-93422801D01*
X167421203Y-93319542D01*
X167356472Y-93307441D01*
X167147000Y-93430511D01*
X166893000Y-93430511D01*
X166683528Y-93307441D01*
X166618797Y-93319542D01*
X166372799Y-93422801D01*
X166151673Y-93572067D01*
X165963916Y-93761605D01*
X165816744Y-93984131D01*
X165751505Y-94143759D01*
X165737914Y-94098955D01*
X165612092Y-93863560D01*
X165442764Y-93657235D01*
X165236439Y-93487908D01*
X165001044Y-93362086D01*
X164745625Y-93284606D01*
X164480000Y-93258444D01*
X164214374Y-93284606D01*
X163958955Y-93362086D01*
X163723560Y-93487908D01*
X163517235Y-93657236D01*
X163347908Y-93863561D01*
X163222086Y-94098956D01*
X163210000Y-94138798D01*
X163197914Y-94098955D01*
X163072092Y-93863560D01*
X162902764Y-93657235D01*
X162696439Y-93487908D01*
X162461044Y-93362086D01*
X162205625Y-93284606D01*
X161940000Y-93258444D01*
X161674374Y-93284606D01*
X161418955Y-93362086D01*
X161183560Y-93487908D01*
X160977235Y-93657236D01*
X160807908Y-93863561D01*
X160682086Y-94098956D01*
X160670000Y-94138798D01*
X160657914Y-94098955D01*
X160532092Y-93863560D01*
X160362764Y-93657235D01*
X160156439Y-93487908D01*
X159921044Y-93362086D01*
X159665625Y-93284606D01*
X159400000Y-93258444D01*
X159134374Y-93284606D01*
X158878955Y-93362086D01*
X158643560Y-93487908D01*
X158437235Y-93657236D01*
X158267908Y-93863561D01*
X158142086Y-94098956D01*
X158130000Y-94138798D01*
X158117914Y-94098955D01*
X157992092Y-93863560D01*
X157822764Y-93657235D01*
X157616439Y-93487908D01*
X157381044Y-93362086D01*
X157125625Y-93284606D01*
X156860000Y-93258444D01*
X156594374Y-93284606D01*
X156338955Y-93362086D01*
X156103560Y-93487908D01*
X155897235Y-93657236D01*
X155727908Y-93863561D01*
X155602086Y-94098956D01*
X155590000Y-94138798D01*
X155577914Y-94098955D01*
X155452092Y-93863560D01*
X155282764Y-93657235D01*
X155076439Y-93487908D01*
X154841044Y-93362086D01*
X154585625Y-93284606D01*
X154320000Y-93258444D01*
X154054374Y-93284606D01*
X153798955Y-93362086D01*
X153563560Y-93487908D01*
X153357235Y-93657236D01*
X153187908Y-93863561D01*
X153062086Y-94098956D01*
X153050000Y-94138798D01*
X153037914Y-94098955D01*
X152912092Y-93863560D01*
X152742764Y-93657235D01*
X152536439Y-93487908D01*
X152301044Y-93362086D01*
X152045625Y-93284606D01*
X151780000Y-93258444D01*
X151514374Y-93284606D01*
X151258955Y-93362086D01*
X151023560Y-93487908D01*
X150817235Y-93657236D01*
X150647908Y-93863561D01*
X150522086Y-94098956D01*
X150510000Y-94138798D01*
X150497914Y-94098955D01*
X150372092Y-93863560D01*
X150202764Y-93657235D01*
X149996439Y-93487908D01*
X149761044Y-93362086D01*
X149505625Y-93284606D01*
X149240000Y-93258444D01*
X148974374Y-93284606D01*
X148718955Y-93362086D01*
X148483560Y-93487908D01*
X148277235Y-93657236D01*
X148107908Y-93863561D01*
X147982086Y-94098956D01*
X147970000Y-94138798D01*
X147957914Y-94098955D01*
X147832092Y-93863560D01*
X147662764Y-93657235D01*
X147456439Y-93487908D01*
X147221044Y-93362086D01*
X146965625Y-93284606D01*
X146700000Y-93258444D01*
X146434374Y-93284606D01*
X146178955Y-93362086D01*
X145943560Y-93487908D01*
X145737235Y-93657236D01*
X145567908Y-93863561D01*
X145442086Y-94098956D01*
X145430000Y-94138798D01*
X145417914Y-94098955D01*
X145292092Y-93863560D01*
X145122764Y-93657235D01*
X144916439Y-93487908D01*
X144681044Y-93362086D01*
X144425625Y-93284606D01*
X144160000Y-93258444D01*
X143894374Y-93284606D01*
X143638955Y-93362086D01*
X143403560Y-93487908D01*
X143197235Y-93657236D01*
X143027908Y-93863561D01*
X142902086Y-94098956D01*
X142890000Y-94138798D01*
X142877914Y-94098955D01*
X142752092Y-93863560D01*
X142582764Y-93657235D01*
X142376439Y-93487908D01*
X142141044Y-93362086D01*
X141885625Y-93284606D01*
X141620000Y-93258444D01*
X141354374Y-93284606D01*
X141098955Y-93362086D01*
X140863560Y-93487908D01*
X140657235Y-93657236D01*
X140487908Y-93863561D01*
X140362086Y-94098956D01*
X140350000Y-94138798D01*
X140337914Y-94098955D01*
X140212092Y-93863560D01*
X140042764Y-93657235D01*
X139836439Y-93487908D01*
X139601044Y-93362086D01*
X139345625Y-93284606D01*
X139080000Y-93258444D01*
X138814374Y-93284606D01*
X138558955Y-93362086D01*
X138323560Y-93487908D01*
X138117235Y-93657236D01*
X137947908Y-93863561D01*
X137822086Y-94098956D01*
X137810000Y-94138798D01*
X137797914Y-94098955D01*
X137672092Y-93863560D01*
X137502764Y-93657235D01*
X137296439Y-93487908D01*
X137061044Y-93362086D01*
X136805625Y-93284606D01*
X136540000Y-93258444D01*
X136274374Y-93284606D01*
X136018955Y-93362086D01*
X135783560Y-93487908D01*
X135577235Y-93657236D01*
X135407908Y-93863561D01*
X135358072Y-93956797D01*
X135358072Y-93900000D01*
X135345812Y-93775518D01*
X135309502Y-93655820D01*
X135250537Y-93545506D01*
X135171185Y-93448815D01*
X135074494Y-93369463D01*
X134964180Y-93310498D01*
X134844482Y-93274188D01*
X134720000Y-93261928D01*
X133280000Y-93261928D01*
X133155518Y-93274188D01*
X133035820Y-93310498D01*
X132925506Y-93369463D01*
X132828815Y-93448815D01*
X132749463Y-93545506D01*
X132690498Y-93655820D01*
X132654188Y-93775518D01*
X132641928Y-93900000D01*
X123660000Y-93900000D01*
X123660000Y-92128420D01*
X158465000Y-92128420D01*
X158465000Y-92312598D01*
X158500932Y-92493238D01*
X158571414Y-92663398D01*
X158673738Y-92816537D01*
X158803972Y-92946771D01*
X158957111Y-93049095D01*
X159127271Y-93119577D01*
X159307911Y-93155509D01*
X159492089Y-93155509D01*
X159672729Y-93119577D01*
X159842889Y-93049095D01*
X159976229Y-92960000D01*
X165104465Y-92960000D01*
X165207111Y-93028586D01*
X165377271Y-93099068D01*
X165557911Y-93135000D01*
X165742089Y-93135000D01*
X165922729Y-93099068D01*
X166092889Y-93028586D01*
X166246028Y-92926262D01*
X166376262Y-92796028D01*
X166478586Y-92642889D01*
X166549068Y-92472729D01*
X166585000Y-92292089D01*
X166585000Y-92107911D01*
X166549068Y-91927271D01*
X166478586Y-91757111D01*
X166412071Y-91657564D01*
X166498986Y-91649003D01*
X166642247Y-91605546D01*
X166774276Y-91534974D01*
X166890001Y-91440001D01*
X166904253Y-91422635D01*
X167022729Y-91399068D01*
X167192889Y-91328586D01*
X167346028Y-91226262D01*
X167476262Y-91096028D01*
X167578586Y-90942889D01*
X167649068Y-90772729D01*
X167685000Y-90592089D01*
X167685000Y-90407911D01*
X167649068Y-90227271D01*
X167578586Y-90057111D01*
X167476262Y-89903972D01*
X167346028Y-89773738D01*
X167192889Y-89671414D01*
X167022729Y-89600932D01*
X166842089Y-89565000D01*
X166657911Y-89565000D01*
X166477271Y-89600932D01*
X166307111Y-89671414D01*
X166153972Y-89773738D01*
X166023738Y-89903972D01*
X165921414Y-90057111D01*
X165887081Y-90140000D01*
X162495535Y-90140000D01*
X162392889Y-90071414D01*
X162222729Y-90000932D01*
X162042089Y-89965000D01*
X161857911Y-89965000D01*
X161677271Y-90000932D01*
X161507111Y-90071414D01*
X161353972Y-90173738D01*
X161223738Y-90303972D01*
X161121414Y-90457111D01*
X161050932Y-90627271D01*
X161015000Y-90807911D01*
X161015000Y-90992089D01*
X161050932Y-91172729D01*
X161121414Y-91342889D01*
X161186301Y-91440000D01*
X159914841Y-91440000D01*
X159842889Y-91391923D01*
X159672729Y-91321441D01*
X159492089Y-91285509D01*
X159307911Y-91285509D01*
X159127271Y-91321441D01*
X158957111Y-91391923D01*
X158803972Y-91494247D01*
X158673738Y-91624481D01*
X158571414Y-91777620D01*
X158500932Y-91947780D01*
X158465000Y-92128420D01*
X123660000Y-92128420D01*
X123660000Y-88607911D01*
X136365000Y-88607911D01*
X136365000Y-88792089D01*
X136400932Y-88972729D01*
X136471414Y-89142889D01*
X136573738Y-89296028D01*
X136703972Y-89426262D01*
X136857111Y-89528586D01*
X137027271Y-89599068D01*
X137104217Y-89614374D01*
X137867653Y-90377810D01*
X137892236Y-90407764D01*
X138011767Y-90505862D01*
X138143478Y-90576262D01*
X138148140Y-90578754D01*
X138296113Y-90623642D01*
X138371026Y-90631020D01*
X138411439Y-90635000D01*
X138411444Y-90635000D01*
X138450000Y-90638797D01*
X138488556Y-90635000D01*
X139741880Y-90635000D01*
X139807111Y-90678586D01*
X139977271Y-90749068D01*
X140157911Y-90785000D01*
X140342089Y-90785000D01*
X140522729Y-90749068D01*
X140692889Y-90678586D01*
X140846028Y-90576262D01*
X140976262Y-90446028D01*
X141078586Y-90292889D01*
X141149068Y-90122729D01*
X141185000Y-89942089D01*
X141185000Y-89757911D01*
X141149068Y-89577271D01*
X141078586Y-89407111D01*
X140976262Y-89253972D01*
X140846028Y-89123738D01*
X140692889Y-89021414D01*
X140522729Y-88950932D01*
X140342089Y-88915000D01*
X140157911Y-88915000D01*
X139977271Y-88950932D01*
X139807111Y-89021414D01*
X139741880Y-89065000D01*
X138775157Y-89065000D01*
X138214374Y-88504217D01*
X138199068Y-88427271D01*
X138128586Y-88257111D01*
X138026262Y-88103972D01*
X137896028Y-87973738D01*
X137742889Y-87871414D01*
X137589578Y-87807911D01*
X153165000Y-87807911D01*
X153165000Y-87992089D01*
X153200932Y-88172729D01*
X153271414Y-88342889D01*
X153373738Y-88496028D01*
X153503972Y-88626262D01*
X153657111Y-88728586D01*
X153827271Y-88799068D01*
X154007911Y-88835000D01*
X154192089Y-88835000D01*
X154372729Y-88799068D01*
X154542889Y-88728586D01*
X154608120Y-88685000D01*
X157191880Y-88685000D01*
X157257111Y-88728586D01*
X157427271Y-88799068D01*
X157607911Y-88835000D01*
X157792089Y-88835000D01*
X157972729Y-88799068D01*
X158142889Y-88728586D01*
X158296028Y-88626262D01*
X158426262Y-88496028D01*
X158528586Y-88342889D01*
X158599068Y-88172729D01*
X158635000Y-87992089D01*
X158635000Y-87807911D01*
X158599068Y-87627271D01*
X158528586Y-87457111D01*
X158426262Y-87303972D01*
X158296028Y-87173738D01*
X158142889Y-87071414D01*
X157972729Y-87000932D01*
X157792089Y-86965000D01*
X157607911Y-86965000D01*
X157427271Y-87000932D01*
X157257111Y-87071414D01*
X157191880Y-87115000D01*
X154608120Y-87115000D01*
X154542889Y-87071414D01*
X154372729Y-87000932D01*
X154192089Y-86965000D01*
X154007911Y-86965000D01*
X153827271Y-87000932D01*
X153657111Y-87071414D01*
X153503972Y-87173738D01*
X153373738Y-87303972D01*
X153271414Y-87457111D01*
X153200932Y-87627271D01*
X153165000Y-87807911D01*
X137589578Y-87807911D01*
X137572729Y-87800932D01*
X137392089Y-87765000D01*
X137207911Y-87765000D01*
X137027271Y-87800932D01*
X136857111Y-87871414D01*
X136703972Y-87973738D01*
X136573738Y-88103972D01*
X136471414Y-88257111D01*
X136400932Y-88427271D01*
X136365000Y-88607911D01*
X123660000Y-88607911D01*
X123660000Y-86307911D01*
X137865000Y-86307911D01*
X137865000Y-86492089D01*
X137900932Y-86672729D01*
X137971414Y-86842889D01*
X138073738Y-86996028D01*
X138203972Y-87126262D01*
X138357111Y-87228586D01*
X138527271Y-87299068D01*
X138707911Y-87335000D01*
X138892089Y-87335000D01*
X139072729Y-87299068D01*
X139242889Y-87228586D01*
X139396028Y-87126262D01*
X139487290Y-87035000D01*
X141291880Y-87035000D01*
X141357111Y-87078586D01*
X141527271Y-87149068D01*
X141707911Y-87185000D01*
X141892089Y-87185000D01*
X142072729Y-87149068D01*
X142242889Y-87078586D01*
X142396028Y-86976262D01*
X142526262Y-86846028D01*
X142628586Y-86692889D01*
X142699068Y-86522729D01*
X142735000Y-86342089D01*
X142735000Y-86157911D01*
X142699068Y-85977271D01*
X142649628Y-85857911D01*
X165465000Y-85857911D01*
X165465000Y-86042089D01*
X165500932Y-86222729D01*
X165571414Y-86392889D01*
X165673738Y-86546028D01*
X165803972Y-86676262D01*
X165957111Y-86778586D01*
X166127271Y-86849068D01*
X166204218Y-86864374D01*
X166317649Y-86977805D01*
X166342236Y-87007764D01*
X166461767Y-87105862D01*
X166588574Y-87173641D01*
X166598140Y-87178754D01*
X166746113Y-87223642D01*
X166821026Y-87231020D01*
X166861439Y-87235000D01*
X166861444Y-87235000D01*
X166900000Y-87238797D01*
X166938556Y-87235000D01*
X170791880Y-87235000D01*
X170857111Y-87278586D01*
X171027271Y-87349068D01*
X171207911Y-87385000D01*
X171392089Y-87385000D01*
X171572729Y-87349068D01*
X171742889Y-87278586D01*
X171896028Y-87176262D01*
X172026262Y-87046028D01*
X172128586Y-86892889D01*
X172199068Y-86722729D01*
X172235000Y-86542089D01*
X172235000Y-86357911D01*
X172199068Y-86177271D01*
X172128586Y-86007111D01*
X172026262Y-85853972D01*
X171896028Y-85723738D01*
X171742889Y-85621414D01*
X171572729Y-85550932D01*
X171392089Y-85515000D01*
X171207911Y-85515000D01*
X171027271Y-85550932D01*
X170857111Y-85621414D01*
X170791880Y-85665000D01*
X167293985Y-85665000D01*
X167228586Y-85507111D01*
X167126262Y-85353972D01*
X166996028Y-85223738D01*
X166842889Y-85121414D01*
X166672729Y-85050932D01*
X166492089Y-85015000D01*
X166307911Y-85015000D01*
X166127271Y-85050932D01*
X165957111Y-85121414D01*
X165803972Y-85223738D01*
X165673738Y-85353972D01*
X165571414Y-85507111D01*
X165500932Y-85677271D01*
X165465000Y-85857911D01*
X142649628Y-85857911D01*
X142628586Y-85807111D01*
X142526262Y-85653972D01*
X142396028Y-85523738D01*
X142242889Y-85421414D01*
X142072729Y-85350932D01*
X141892089Y-85315000D01*
X141707911Y-85315000D01*
X141527271Y-85350932D01*
X141357111Y-85421414D01*
X141291880Y-85465000D01*
X138988552Y-85465000D01*
X138949999Y-85461203D01*
X138911447Y-85465000D01*
X138911439Y-85465000D01*
X138898497Y-85466275D01*
X138892089Y-85465000D01*
X138707911Y-85465000D01*
X138527271Y-85500932D01*
X138357111Y-85571414D01*
X138203972Y-85673738D01*
X138073738Y-85803972D01*
X137971414Y-85957111D01*
X137900932Y-86127271D01*
X137865000Y-86307911D01*
X123660000Y-86307911D01*
X123660000Y-73278665D01*
X128485000Y-73278665D01*
X128485000Y-73561335D01*
X128540147Y-73838574D01*
X128648320Y-74099727D01*
X128805363Y-74334759D01*
X129005241Y-74534637D01*
X129240273Y-74691680D01*
X129501426Y-74799853D01*
X129778665Y-74855000D01*
X130061335Y-74855000D01*
X130338574Y-74799853D01*
X130599727Y-74691680D01*
X130834759Y-74534637D01*
X131034637Y-74334759D01*
X131190000Y-74102241D01*
X131345363Y-74334759D01*
X131545241Y-74534637D01*
X131780273Y-74691680D01*
X132041426Y-74799853D01*
X132318665Y-74855000D01*
X132601335Y-74855000D01*
X132878574Y-74799853D01*
X133139727Y-74691680D01*
X133374759Y-74534637D01*
X133574637Y-74334759D01*
X133730000Y-74102241D01*
X133885363Y-74334759D01*
X134085241Y-74534637D01*
X134320273Y-74691680D01*
X134581426Y-74799853D01*
X134858665Y-74855000D01*
X135141335Y-74855000D01*
X135418574Y-74799853D01*
X135679727Y-74691680D01*
X135914759Y-74534637D01*
X136114637Y-74334759D01*
X136270000Y-74102241D01*
X136425363Y-74334759D01*
X136625241Y-74534637D01*
X136732518Y-74606317D01*
X136659686Y-74628411D01*
X136505941Y-74710589D01*
X136404953Y-74793468D01*
X136404951Y-74793470D01*
X136371183Y-74821183D01*
X136343470Y-74854951D01*
X133404951Y-77793471D01*
X133371184Y-77821183D01*
X133343471Y-77854951D01*
X133343468Y-77854954D01*
X133260590Y-77955941D01*
X133178412Y-78109687D01*
X133127805Y-78276510D01*
X133120691Y-78348745D01*
X133037235Y-78417236D01*
X132867908Y-78623561D01*
X132819033Y-78715000D01*
X132180167Y-78715000D01*
X132079497Y-78632382D01*
X131930283Y-78552625D01*
X131768377Y-78503512D01*
X131600000Y-78486928D01*
X131150000Y-78486928D01*
X130981623Y-78503512D01*
X130819717Y-78552625D01*
X130670503Y-78632382D01*
X130539716Y-78739716D01*
X130432382Y-78870503D01*
X130352625Y-79019717D01*
X130303512Y-79181623D01*
X130286928Y-79350000D01*
X130286928Y-79850000D01*
X130303512Y-80018377D01*
X130352625Y-80180283D01*
X130432382Y-80329497D01*
X130539716Y-80460284D01*
X130670503Y-80567618D01*
X130819717Y-80647375D01*
X130981623Y-80696488D01*
X131150000Y-80713072D01*
X131600000Y-80713072D01*
X131768377Y-80696488D01*
X131930283Y-80647375D01*
X132079497Y-80567618D01*
X132180167Y-80485000D01*
X132754890Y-80485000D01*
X132867908Y-80696440D01*
X133037236Y-80902765D01*
X133243561Y-81072092D01*
X133478956Y-81197914D01*
X133734375Y-81275394D01*
X134000000Y-81301556D01*
X134265626Y-81275394D01*
X134521045Y-81197914D01*
X134756440Y-81072092D01*
X134962765Y-80902765D01*
X135132092Y-80696440D01*
X135257914Y-80461045D01*
X135270000Y-80421202D01*
X135282086Y-80461045D01*
X135407908Y-80696440D01*
X135577236Y-80902765D01*
X135783561Y-81072092D01*
X136018956Y-81197914D01*
X136274375Y-81275394D01*
X136540000Y-81301556D01*
X136805626Y-81275394D01*
X137061045Y-81197914D01*
X137296440Y-81072092D01*
X137502765Y-80902765D01*
X137672092Y-80696440D01*
X137797914Y-80461045D01*
X137810000Y-80421202D01*
X137822086Y-80461045D01*
X137947908Y-80696440D01*
X138117236Y-80902765D01*
X138323561Y-81072092D01*
X138558956Y-81197914D01*
X138814375Y-81275394D01*
X139080000Y-81301556D01*
X139345626Y-81275394D01*
X139601045Y-81197914D01*
X139836440Y-81072092D01*
X140042765Y-80902765D01*
X140212092Y-80696440D01*
X140337914Y-80461045D01*
X140350000Y-80421202D01*
X140362086Y-80461045D01*
X140487908Y-80696440D01*
X140657236Y-80902765D01*
X140863561Y-81072092D01*
X141098956Y-81197914D01*
X141354375Y-81275394D01*
X141620000Y-81301556D01*
X141885626Y-81275394D01*
X142141045Y-81197914D01*
X142376440Y-81072092D01*
X142582765Y-80902765D01*
X142752092Y-80696440D01*
X142877914Y-80461045D01*
X142890000Y-80421202D01*
X142902086Y-80461045D01*
X143027908Y-80696440D01*
X143197236Y-80902765D01*
X143403561Y-81072092D01*
X143638956Y-81197914D01*
X143894375Y-81275394D01*
X144160000Y-81301556D01*
X144425626Y-81275394D01*
X144681045Y-81197914D01*
X144916440Y-81072092D01*
X145122765Y-80902765D01*
X145292092Y-80696440D01*
X145417914Y-80461045D01*
X145430000Y-80421202D01*
X145442086Y-80461045D01*
X145567908Y-80696440D01*
X145737236Y-80902765D01*
X145943561Y-81072092D01*
X146178956Y-81197914D01*
X146434375Y-81275394D01*
X146700000Y-81301556D01*
X146965626Y-81275394D01*
X147221045Y-81197914D01*
X147456440Y-81072092D01*
X147662765Y-80902765D01*
X147832092Y-80696440D01*
X147957914Y-80461045D01*
X147970000Y-80421202D01*
X147982086Y-80461045D01*
X148107908Y-80696440D01*
X148277236Y-80902765D01*
X148483561Y-81072092D01*
X148718956Y-81197914D01*
X148974375Y-81275394D01*
X149240000Y-81301556D01*
X149505626Y-81275394D01*
X149761045Y-81197914D01*
X149996440Y-81072092D01*
X150202765Y-80902765D01*
X150372092Y-80696440D01*
X150497914Y-80461045D01*
X150510000Y-80421202D01*
X150522086Y-80461045D01*
X150647908Y-80696440D01*
X150817236Y-80902765D01*
X151023561Y-81072092D01*
X151258956Y-81197914D01*
X151514375Y-81275394D01*
X151780000Y-81301556D01*
X152045626Y-81275394D01*
X152301045Y-81197914D01*
X152536440Y-81072092D01*
X152742765Y-80902765D01*
X152912092Y-80696440D01*
X153037914Y-80461045D01*
X153050000Y-80421202D01*
X153062086Y-80461045D01*
X153187908Y-80696440D01*
X153357236Y-80902765D01*
X153563561Y-81072092D01*
X153798956Y-81197914D01*
X154054375Y-81275394D01*
X154320000Y-81301556D01*
X154585626Y-81275394D01*
X154841045Y-81197914D01*
X155076440Y-81072092D01*
X155282765Y-80902765D01*
X155452092Y-80696440D01*
X155577914Y-80461045D01*
X155590000Y-80421202D01*
X155602086Y-80461045D01*
X155727908Y-80696440D01*
X155897236Y-80902765D01*
X156103561Y-81072092D01*
X156338956Y-81197914D01*
X156594375Y-81275394D01*
X156860000Y-81301556D01*
X157125626Y-81275394D01*
X157381045Y-81197914D01*
X157616440Y-81072092D01*
X157822765Y-80902765D01*
X157992092Y-80696440D01*
X158117914Y-80461045D01*
X158130000Y-80421202D01*
X158142086Y-80461045D01*
X158267908Y-80696440D01*
X158437236Y-80902765D01*
X158643561Y-81072092D01*
X158878956Y-81197914D01*
X159134375Y-81275394D01*
X159400000Y-81301556D01*
X159665626Y-81275394D01*
X159921045Y-81197914D01*
X160156440Y-81072092D01*
X160362765Y-80902765D01*
X160532092Y-80696440D01*
X160657914Y-80461045D01*
X160670000Y-80421202D01*
X160682086Y-80461045D01*
X160807908Y-80696440D01*
X160977236Y-80902765D01*
X161183561Y-81072092D01*
X161418956Y-81197914D01*
X161674375Y-81275394D01*
X161940000Y-81301556D01*
X162205626Y-81275394D01*
X162461045Y-81197914D01*
X162696440Y-81072092D01*
X162902765Y-80902765D01*
X163072092Y-80696440D01*
X163197914Y-80461045D01*
X163210000Y-80421202D01*
X163222086Y-80461045D01*
X163347908Y-80696440D01*
X163517236Y-80902765D01*
X163723561Y-81072092D01*
X163958956Y-81197914D01*
X164214375Y-81275394D01*
X164480000Y-81301556D01*
X164745626Y-81275394D01*
X165001045Y-81197914D01*
X165236440Y-81072092D01*
X165442765Y-80902765D01*
X165612092Y-80696440D01*
X165737914Y-80461045D01*
X165750000Y-80421202D01*
X165762086Y-80461045D01*
X165887908Y-80696440D01*
X166057236Y-80902765D01*
X166263561Y-81072092D01*
X166498956Y-81197914D01*
X166754375Y-81275394D01*
X167020000Y-81301556D01*
X167285626Y-81275394D01*
X167541045Y-81197914D01*
X167776440Y-81072092D01*
X167982765Y-80902765D01*
X168152092Y-80696440D01*
X168277914Y-80461045D01*
X168355394Y-80205625D01*
X168375000Y-80006563D01*
X168375000Y-79313436D01*
X168355394Y-79114374D01*
X168277914Y-78858955D01*
X168152092Y-78623560D01*
X167982764Y-78417235D01*
X167776439Y-78247908D01*
X167541044Y-78122086D01*
X167285625Y-78044606D01*
X167020000Y-78018444D01*
X166754374Y-78044606D01*
X166498955Y-78122086D01*
X166263560Y-78247908D01*
X166057235Y-78417236D01*
X165887908Y-78623561D01*
X165762086Y-78858956D01*
X165750000Y-78898798D01*
X165737914Y-78858955D01*
X165612092Y-78623560D01*
X165442764Y-78417235D01*
X165236439Y-78247908D01*
X165001044Y-78122086D01*
X164745625Y-78044606D01*
X164480000Y-78018444D01*
X164214374Y-78044606D01*
X163958955Y-78122086D01*
X163723560Y-78247908D01*
X163517235Y-78417236D01*
X163347908Y-78623561D01*
X163222086Y-78858956D01*
X163210000Y-78898798D01*
X163197914Y-78858955D01*
X163072092Y-78623560D01*
X162902764Y-78417235D01*
X162696439Y-78247908D01*
X162461044Y-78122086D01*
X162205625Y-78044606D01*
X161940000Y-78018444D01*
X161674374Y-78044606D01*
X161418955Y-78122086D01*
X161183560Y-78247908D01*
X160977235Y-78417236D01*
X160807908Y-78623561D01*
X160682086Y-78858956D01*
X160670000Y-78898798D01*
X160657914Y-78858955D01*
X160532092Y-78623560D01*
X160362764Y-78417235D01*
X160156439Y-78247908D01*
X159921044Y-78122086D01*
X159665625Y-78044606D01*
X159400000Y-78018444D01*
X159134374Y-78044606D01*
X158878955Y-78122086D01*
X158643560Y-78247908D01*
X158437235Y-78417236D01*
X158267908Y-78623561D01*
X158142086Y-78858956D01*
X158130000Y-78898798D01*
X158117914Y-78858955D01*
X157992092Y-78623560D01*
X157822764Y-78417235D01*
X157616439Y-78247908D01*
X157381044Y-78122086D01*
X157125625Y-78044606D01*
X156860000Y-78018444D01*
X156594374Y-78044606D01*
X156338955Y-78122086D01*
X156103560Y-78247908D01*
X155897235Y-78417236D01*
X155727908Y-78623561D01*
X155602086Y-78858956D01*
X155590000Y-78898798D01*
X155577914Y-78858955D01*
X155452092Y-78623560D01*
X155282764Y-78417235D01*
X155076439Y-78247908D01*
X154841044Y-78122086D01*
X154585625Y-78044606D01*
X154320000Y-78018444D01*
X154054374Y-78044606D01*
X153798955Y-78122086D01*
X153563560Y-78247908D01*
X153357235Y-78417236D01*
X153187908Y-78623561D01*
X153062086Y-78858956D01*
X153050000Y-78898798D01*
X153037914Y-78858955D01*
X152912092Y-78623560D01*
X152742764Y-78417235D01*
X152536439Y-78247908D01*
X152301044Y-78122086D01*
X152045625Y-78044606D01*
X151780000Y-78018444D01*
X151514374Y-78044606D01*
X151258955Y-78122086D01*
X151143137Y-78183992D01*
X151153802Y-78170997D01*
X153301649Y-76023151D01*
X153422729Y-75999066D01*
X153592889Y-75928584D01*
X153746028Y-75826260D01*
X153876262Y-75696026D01*
X153978586Y-75542887D01*
X154049068Y-75372727D01*
X154085000Y-75192087D01*
X154085000Y-75007909D01*
X154049068Y-74827269D01*
X153978586Y-74657109D01*
X153876262Y-74503970D01*
X153746028Y-74373736D01*
X153592889Y-74271412D01*
X153422729Y-74200930D01*
X153242089Y-74164998D01*
X153057911Y-74164998D01*
X152877271Y-74200930D01*
X152707111Y-74271412D01*
X152553972Y-74373736D01*
X152423738Y-74503970D01*
X152321414Y-74657109D01*
X152250932Y-74827269D01*
X152226847Y-74948349D01*
X150275197Y-76900000D01*
X147863535Y-76900000D01*
X147885000Y-76792089D01*
X147885000Y-76607911D01*
X147849068Y-76427271D01*
X147778586Y-76257111D01*
X147676262Y-76103972D01*
X147546028Y-75973738D01*
X147392889Y-75871414D01*
X147222729Y-75800932D01*
X147079197Y-75772381D01*
X148035127Y-74816452D01*
X148118574Y-74799853D01*
X148379727Y-74691680D01*
X148614759Y-74534637D01*
X148814637Y-74334759D01*
X148971680Y-74099727D01*
X149079853Y-73838574D01*
X149135000Y-73561335D01*
X149135000Y-73278665D01*
X149079853Y-73001426D01*
X148971680Y-72740273D01*
X148814637Y-72505241D01*
X148614759Y-72305363D01*
X148379727Y-72148320D01*
X148118574Y-72040147D01*
X147841335Y-71985000D01*
X147558665Y-71985000D01*
X147281426Y-72040147D01*
X147020273Y-72148320D01*
X146785241Y-72305363D01*
X146585363Y-72505241D01*
X146430000Y-72737759D01*
X146274637Y-72505241D01*
X146074759Y-72305363D01*
X145839727Y-72148320D01*
X145578574Y-72040147D01*
X145301335Y-71985000D01*
X145018665Y-71985000D01*
X144741426Y-72040147D01*
X144480273Y-72148320D01*
X144245241Y-72305363D01*
X144045363Y-72505241D01*
X143890000Y-72737759D01*
X143734637Y-72505241D01*
X143534759Y-72305363D01*
X143299727Y-72148320D01*
X143038574Y-72040147D01*
X142761335Y-71985000D01*
X142478665Y-71985000D01*
X142201426Y-72040147D01*
X141940273Y-72148320D01*
X141705241Y-72305363D01*
X141505363Y-72505241D01*
X141348320Y-72740273D01*
X141343933Y-72750865D01*
X141232385Y-72564869D01*
X141043414Y-72356481D01*
X140817420Y-72188963D01*
X140563087Y-72068754D01*
X140429039Y-72028096D01*
X140207000Y-72150085D01*
X140207000Y-73293000D01*
X140227000Y-73293000D01*
X140227000Y-73547000D01*
X140207000Y-73547000D01*
X140207000Y-73567000D01*
X139953000Y-73567000D01*
X139953000Y-73547000D01*
X139933000Y-73547000D01*
X139933000Y-73293000D01*
X139953000Y-73293000D01*
X139953000Y-72150085D01*
X139730961Y-72028096D01*
X139596913Y-72068754D01*
X139342580Y-72188963D01*
X139116586Y-72356481D01*
X138927615Y-72564869D01*
X138816067Y-72750865D01*
X138811680Y-72740273D01*
X138654637Y-72505241D01*
X138454759Y-72305363D01*
X138219727Y-72148320D01*
X137958574Y-72040147D01*
X137681335Y-71985000D01*
X137398665Y-71985000D01*
X137121426Y-72040147D01*
X136860273Y-72148320D01*
X136625241Y-72305363D01*
X136425363Y-72505241D01*
X136270000Y-72737759D01*
X136114637Y-72505241D01*
X135914759Y-72305363D01*
X135679727Y-72148320D01*
X135418574Y-72040147D01*
X135141335Y-71985000D01*
X134858665Y-71985000D01*
X134581426Y-72040147D01*
X134320273Y-72148320D01*
X134085241Y-72305363D01*
X133885363Y-72505241D01*
X133730000Y-72737759D01*
X133574637Y-72505241D01*
X133374759Y-72305363D01*
X133139727Y-72148320D01*
X132878574Y-72040147D01*
X132601335Y-71985000D01*
X132318665Y-71985000D01*
X132041426Y-72040147D01*
X131780273Y-72148320D01*
X131545241Y-72305363D01*
X131345363Y-72505241D01*
X131190000Y-72737759D01*
X131034637Y-72505241D01*
X130834759Y-72305363D01*
X130599727Y-72148320D01*
X130338574Y-72040147D01*
X130061335Y-71985000D01*
X129778665Y-71985000D01*
X129501426Y-72040147D01*
X129240273Y-72148320D01*
X129005241Y-72305363D01*
X128805363Y-72505241D01*
X128648320Y-72740273D01*
X128540147Y-73001426D01*
X128485000Y-73278665D01*
X123660000Y-73278665D01*
X123660000Y-71407911D01*
X151815000Y-71407911D01*
X151815000Y-71592089D01*
X151850932Y-71772729D01*
X151921414Y-71942889D01*
X152023738Y-72096028D01*
X152153972Y-72226262D01*
X152307111Y-72328586D01*
X152477271Y-72399068D01*
X152657911Y-72435000D01*
X152842089Y-72435000D01*
X153022729Y-72399068D01*
X153192889Y-72328586D01*
X153258120Y-72285000D01*
X168824843Y-72285000D01*
X177217658Y-80677816D01*
X177242236Y-80707764D01*
X177272184Y-80732342D01*
X177272187Y-80732345D01*
X177288860Y-80746028D01*
X177361767Y-80805862D01*
X177498140Y-80878754D01*
X177611672Y-80913194D01*
X177646112Y-80923641D01*
X177660490Y-80925057D01*
X177761439Y-80935000D01*
X177761446Y-80935000D01*
X177799999Y-80938797D01*
X177838552Y-80935000D01*
X180791880Y-80935000D01*
X180857111Y-80978586D01*
X181027271Y-81049068D01*
X181207911Y-81085000D01*
X181392089Y-81085000D01*
X181572729Y-81049068D01*
X181742889Y-80978586D01*
X181896028Y-80876262D01*
X182026262Y-80746028D01*
X182128586Y-80592889D01*
X182199068Y-80422729D01*
X182235000Y-80242089D01*
X182235000Y-80057911D01*
X182199068Y-79877271D01*
X182128586Y-79707111D01*
X182026262Y-79553972D01*
X181896028Y-79423738D01*
X181742889Y-79321414D01*
X181572729Y-79250932D01*
X181392089Y-79215000D01*
X181207911Y-79215000D01*
X181027271Y-79250932D01*
X180857111Y-79321414D01*
X180791880Y-79365000D01*
X178125158Y-79365000D01*
X169732347Y-70972190D01*
X169707764Y-70942236D01*
X169588233Y-70844138D01*
X169451860Y-70771246D01*
X169303887Y-70726359D01*
X169188561Y-70715000D01*
X169188553Y-70715000D01*
X169150000Y-70711203D01*
X169111447Y-70715000D01*
X153258120Y-70715000D01*
X153192889Y-70671414D01*
X153022729Y-70600932D01*
X152842089Y-70565000D01*
X152657911Y-70565000D01*
X152477271Y-70600932D01*
X152307111Y-70671414D01*
X152153972Y-70773738D01*
X152023738Y-70903972D01*
X151921414Y-71057111D01*
X151850932Y-71227271D01*
X151815000Y-71407911D01*
X123660000Y-71407911D01*
X123660000Y-66149040D01*
X128528091Y-66149040D01*
X128622930Y-66413881D01*
X128767615Y-66655131D01*
X128956586Y-66863519D01*
X129182580Y-67031037D01*
X129436913Y-67151246D01*
X129570961Y-67191904D01*
X129793000Y-67069915D01*
X129793000Y-65927000D01*
X128649376Y-65927000D01*
X128528091Y-66149040D01*
X123660000Y-66149040D01*
X123660000Y-65450960D01*
X128528091Y-65450960D01*
X128649376Y-65673000D01*
X129793000Y-65673000D01*
X129793000Y-64530085D01*
X130047000Y-64530085D01*
X130047000Y-65673000D01*
X130067000Y-65673000D01*
X130067000Y-65927000D01*
X130047000Y-65927000D01*
X130047000Y-67069915D01*
X130269039Y-67191904D01*
X130403087Y-67151246D01*
X130657420Y-67031037D01*
X130883414Y-66863519D01*
X131072385Y-66655131D01*
X131183933Y-66469135D01*
X131188320Y-66479727D01*
X131345363Y-66714759D01*
X131545241Y-66914637D01*
X131780273Y-67071680D01*
X132041426Y-67179853D01*
X132318665Y-67235000D01*
X132601335Y-67235000D01*
X132878574Y-67179853D01*
X133139727Y-67071680D01*
X133374759Y-66914637D01*
X133574637Y-66714759D01*
X133730000Y-66482241D01*
X133885363Y-66714759D01*
X134085241Y-66914637D01*
X134320273Y-67071680D01*
X134581426Y-67179853D01*
X134858665Y-67235000D01*
X135141335Y-67235000D01*
X135418574Y-67179853D01*
X135679727Y-67071680D01*
X135914759Y-66914637D01*
X136114637Y-66714759D01*
X136270000Y-66482241D01*
X136425363Y-66714759D01*
X136625241Y-66914637D01*
X136860273Y-67071680D01*
X137121426Y-67179853D01*
X137398665Y-67235000D01*
X137681335Y-67235000D01*
X137958574Y-67179853D01*
X138219727Y-67071680D01*
X138454759Y-66914637D01*
X138654637Y-66714759D01*
X138810000Y-66482241D01*
X138965363Y-66714759D01*
X139165241Y-66914637D01*
X139400273Y-67071680D01*
X139661426Y-67179853D01*
X139938665Y-67235000D01*
X140221335Y-67235000D01*
X140498574Y-67179853D01*
X140759727Y-67071680D01*
X140994759Y-66914637D01*
X141194637Y-66714759D01*
X141350000Y-66482241D01*
X141505363Y-66714759D01*
X141705241Y-66914637D01*
X141940273Y-67071680D01*
X142201426Y-67179853D01*
X142478665Y-67235000D01*
X142761335Y-67235000D01*
X143038574Y-67179853D01*
X143299727Y-67071680D01*
X143534759Y-66914637D01*
X143734637Y-66714759D01*
X143890000Y-66482241D01*
X144045363Y-66714759D01*
X144245241Y-66914637D01*
X144480273Y-67071680D01*
X144741426Y-67179853D01*
X145018665Y-67235000D01*
X145301335Y-67235000D01*
X145530030Y-67189509D01*
X145403972Y-67273738D01*
X145273738Y-67403972D01*
X145171414Y-67557111D01*
X145100932Y-67727271D01*
X145065000Y-67907911D01*
X145065000Y-68092089D01*
X145100932Y-68272729D01*
X145171414Y-68442889D01*
X145273738Y-68596028D01*
X145403972Y-68726262D01*
X145557111Y-68828586D01*
X145727271Y-68899068D01*
X145907911Y-68935000D01*
X146092089Y-68935000D01*
X146272729Y-68899068D01*
X146442889Y-68828586D01*
X146545535Y-68760000D01*
X147287710Y-68760000D01*
X147303972Y-68776262D01*
X147457111Y-68878586D01*
X147627271Y-68949068D01*
X147807911Y-68985000D01*
X147992089Y-68985000D01*
X148172729Y-68949068D01*
X148342889Y-68878586D01*
X148496028Y-68776262D01*
X148524229Y-68748061D01*
X159715000Y-68748061D01*
X159715000Y-68951939D01*
X159754774Y-69151898D01*
X159832795Y-69340256D01*
X159946063Y-69509774D01*
X160090226Y-69653937D01*
X160259744Y-69767205D01*
X160448102Y-69845226D01*
X160648061Y-69885000D01*
X160851939Y-69885000D01*
X161051898Y-69845226D01*
X161240256Y-69767205D01*
X161363285Y-69685000D01*
X181208982Y-69685000D01*
X181250000Y-69689040D01*
X181291018Y-69685000D01*
X181291019Y-69685000D01*
X181413689Y-69672918D01*
X181571087Y-69625172D01*
X181716146Y-69547636D01*
X181843291Y-69443291D01*
X181869446Y-69411421D01*
X184556776Y-66724092D01*
X184701898Y-66695226D01*
X184890256Y-66617205D01*
X185059774Y-66503937D01*
X185203937Y-66359774D01*
X185317205Y-66190256D01*
X185395226Y-66001898D01*
X185435000Y-65801939D01*
X185435000Y-65598061D01*
X185395226Y-65398102D01*
X185317205Y-65209744D01*
X185203937Y-65040226D01*
X185059774Y-64896063D01*
X184890256Y-64782795D01*
X184701898Y-64704774D01*
X184501939Y-64665000D01*
X184298061Y-64665000D01*
X184098102Y-64704774D01*
X183909744Y-64782795D01*
X183740226Y-64896063D01*
X183596063Y-65040226D01*
X183482795Y-65209744D01*
X183404774Y-65398102D01*
X183375908Y-65543224D01*
X180904133Y-68015000D01*
X161363285Y-68015000D01*
X161240256Y-67932795D01*
X161051898Y-67854774D01*
X160851939Y-67815000D01*
X160648061Y-67815000D01*
X160448102Y-67854774D01*
X160259744Y-67932795D01*
X160090226Y-68046063D01*
X159946063Y-68190226D01*
X159832795Y-68359744D01*
X159754774Y-68548102D01*
X159715000Y-68748061D01*
X148524229Y-68748061D01*
X148626262Y-68646028D01*
X148728586Y-68492889D01*
X148799068Y-68322729D01*
X148835000Y-68142089D01*
X148835000Y-67957911D01*
X148799068Y-67777271D01*
X148728586Y-67607111D01*
X148626262Y-67453972D01*
X148496028Y-67323738D01*
X148367820Y-67238072D01*
X148500000Y-67238072D01*
X148624482Y-67225812D01*
X148744180Y-67189502D01*
X148854494Y-67130537D01*
X148951185Y-67051185D01*
X149030537Y-66954494D01*
X149089502Y-66844180D01*
X149125812Y-66724482D01*
X149138072Y-66600000D01*
X149138072Y-65000000D01*
X149125812Y-64875518D01*
X149089502Y-64755820D01*
X149030537Y-64645506D01*
X148951185Y-64548815D01*
X148854494Y-64469463D01*
X148744180Y-64410498D01*
X148624482Y-64374188D01*
X148500000Y-64361928D01*
X146900000Y-64361928D01*
X146775518Y-64374188D01*
X146655820Y-64410498D01*
X146545506Y-64469463D01*
X146448815Y-64548815D01*
X146369463Y-64645506D01*
X146310498Y-64755820D01*
X146274188Y-64875518D01*
X146273357Y-64883961D01*
X146074759Y-64685363D01*
X145839727Y-64528320D01*
X145578574Y-64420147D01*
X145301335Y-64365000D01*
X145018665Y-64365000D01*
X144741426Y-64420147D01*
X144480273Y-64528320D01*
X144245241Y-64685363D01*
X144045363Y-64885241D01*
X143890000Y-65117759D01*
X143734637Y-64885241D01*
X143534759Y-64685363D01*
X143299727Y-64528320D01*
X143038574Y-64420147D01*
X142761335Y-64365000D01*
X142478665Y-64365000D01*
X142201426Y-64420147D01*
X141940273Y-64528320D01*
X141705241Y-64685363D01*
X141505363Y-64885241D01*
X141350000Y-65117759D01*
X141194637Y-64885241D01*
X140994759Y-64685363D01*
X140759727Y-64528320D01*
X140498574Y-64420147D01*
X140221335Y-64365000D01*
X139938665Y-64365000D01*
X139661426Y-64420147D01*
X139400273Y-64528320D01*
X139165241Y-64685363D01*
X138965363Y-64885241D01*
X138810000Y-65117759D01*
X138654637Y-64885241D01*
X138454759Y-64685363D01*
X138219727Y-64528320D01*
X137958574Y-64420147D01*
X137681335Y-64365000D01*
X137398665Y-64365000D01*
X137121426Y-64420147D01*
X136860273Y-64528320D01*
X136625241Y-64685363D01*
X136425363Y-64885241D01*
X136270000Y-65117759D01*
X136114637Y-64885241D01*
X135914759Y-64685363D01*
X135679727Y-64528320D01*
X135418574Y-64420147D01*
X135141335Y-64365000D01*
X134858665Y-64365000D01*
X134581426Y-64420147D01*
X134320273Y-64528320D01*
X134085241Y-64685363D01*
X133885363Y-64885241D01*
X133730000Y-65117759D01*
X133574637Y-64885241D01*
X133374759Y-64685363D01*
X133139727Y-64528320D01*
X132878574Y-64420147D01*
X132601335Y-64365000D01*
X132318665Y-64365000D01*
X132041426Y-64420147D01*
X131780273Y-64528320D01*
X131545241Y-64685363D01*
X131345363Y-64885241D01*
X131188320Y-65120273D01*
X131183933Y-65130865D01*
X131072385Y-64944869D01*
X130883414Y-64736481D01*
X130657420Y-64568963D01*
X130403087Y-64448754D01*
X130269039Y-64408096D01*
X130047000Y-64530085D01*
X129793000Y-64530085D01*
X129570961Y-64408096D01*
X129436913Y-64448754D01*
X129182580Y-64568963D01*
X128956586Y-64736481D01*
X128767615Y-64944869D01*
X128622930Y-65186119D01*
X128528091Y-65450960D01*
X123660000Y-65450960D01*
X123660000Y-62702401D01*
X129617400Y-62702401D01*
X129617400Y-62997599D01*
X129674990Y-63287125D01*
X129787958Y-63559853D01*
X129951961Y-63805302D01*
X130160698Y-64014039D01*
X130406147Y-64178042D01*
X130678875Y-64291010D01*
X130968401Y-64348600D01*
X131263599Y-64348600D01*
X131553125Y-64291010D01*
X131825853Y-64178042D01*
X132071302Y-64014039D01*
X132280039Y-63805302D01*
X132386000Y-63646719D01*
X132491961Y-63805302D01*
X132700698Y-64014039D01*
X132946147Y-64178042D01*
X133218875Y-64291010D01*
X133508401Y-64348600D01*
X133803599Y-64348600D01*
X134093125Y-64291010D01*
X134365853Y-64178042D01*
X134611302Y-64014039D01*
X134820039Y-63805302D01*
X134926000Y-63646719D01*
X135031961Y-63805302D01*
X135240698Y-64014039D01*
X135486147Y-64178042D01*
X135758875Y-64291010D01*
X136048401Y-64348600D01*
X136343599Y-64348600D01*
X136633125Y-64291010D01*
X136905853Y-64178042D01*
X137151302Y-64014039D01*
X137360039Y-63805302D01*
X137467692Y-63644187D01*
X137629146Y-63860293D01*
X137847512Y-64056817D01*
X138100022Y-64206964D01*
X138376973Y-64304963D01*
X138609000Y-64184464D01*
X138609000Y-62977000D01*
X138589000Y-62977000D01*
X138589000Y-62723000D01*
X138609000Y-62723000D01*
X138609000Y-61515536D01*
X138863000Y-61515536D01*
X138863000Y-62723000D01*
X138883000Y-62723000D01*
X138883000Y-62977000D01*
X138863000Y-62977000D01*
X138863000Y-64184464D01*
X139095027Y-64304963D01*
X139371978Y-64206964D01*
X139624488Y-64056817D01*
X139842854Y-63860293D01*
X140004308Y-63644187D01*
X140111961Y-63805302D01*
X140320698Y-64014039D01*
X140566147Y-64178042D01*
X140838875Y-64291010D01*
X141128401Y-64348600D01*
X141423599Y-64348600D01*
X141713125Y-64291010D01*
X141985853Y-64178042D01*
X142231302Y-64014039D01*
X142440039Y-63805302D01*
X142546000Y-63646719D01*
X142651961Y-63805302D01*
X142860698Y-64014039D01*
X143106147Y-64178042D01*
X143378875Y-64291010D01*
X143668401Y-64348600D01*
X143963599Y-64348600D01*
X144253125Y-64291010D01*
X144525853Y-64178042D01*
X144771302Y-64014039D01*
X144980039Y-63805302D01*
X145086000Y-63646719D01*
X145191961Y-63805302D01*
X145400698Y-64014039D01*
X145646147Y-64178042D01*
X145918875Y-64291010D01*
X146208401Y-64348600D01*
X146503599Y-64348600D01*
X146793125Y-64291010D01*
X147065853Y-64178042D01*
X147311302Y-64014039D01*
X147520039Y-63805302D01*
X147626000Y-63646719D01*
X147731961Y-63805302D01*
X147940698Y-64014039D01*
X148186147Y-64178042D01*
X148458875Y-64291010D01*
X148748401Y-64348600D01*
X149043599Y-64348600D01*
X149333125Y-64291010D01*
X149605853Y-64178042D01*
X149851302Y-64014039D01*
X150060039Y-63805302D01*
X150166000Y-63646719D01*
X150271961Y-63805302D01*
X150480698Y-64014039D01*
X150726147Y-64178042D01*
X150998875Y-64291010D01*
X151288401Y-64348600D01*
X151583599Y-64348600D01*
X151784485Y-64308642D01*
X153203653Y-65727810D01*
X153228236Y-65757764D01*
X153347767Y-65855862D01*
X153484140Y-65928754D01*
X153632113Y-65973642D01*
X153707026Y-65981020D01*
X153747439Y-65985000D01*
X153747444Y-65985000D01*
X153786000Y-65988797D01*
X153824556Y-65985000D01*
X163041880Y-65985000D01*
X163107111Y-66028586D01*
X163277271Y-66099068D01*
X163457911Y-66135000D01*
X163642089Y-66135000D01*
X163822729Y-66099068D01*
X163992889Y-66028586D01*
X164146028Y-65926262D01*
X164276262Y-65796028D01*
X164378586Y-65642889D01*
X164449068Y-65472729D01*
X164485000Y-65292089D01*
X164485000Y-65107911D01*
X164449068Y-64927271D01*
X164378586Y-64757111D01*
X164276262Y-64603972D01*
X164146028Y-64473738D01*
X163992889Y-64371414D01*
X163822729Y-64300932D01*
X163642089Y-64265000D01*
X163619918Y-64265000D01*
X163829853Y-64178042D01*
X164075302Y-64014039D01*
X164284039Y-63805302D01*
X164390000Y-63646719D01*
X164495961Y-63805302D01*
X164704698Y-64014039D01*
X164950147Y-64178042D01*
X165222875Y-64291010D01*
X165512401Y-64348600D01*
X165807599Y-64348600D01*
X166097125Y-64291010D01*
X166369853Y-64178042D01*
X166615302Y-64014039D01*
X166824039Y-63805302D01*
X166930000Y-63646719D01*
X167035961Y-63805302D01*
X167244698Y-64014039D01*
X167490147Y-64178042D01*
X167762875Y-64291010D01*
X168052401Y-64348600D01*
X168347599Y-64348600D01*
X168637125Y-64291010D01*
X168909853Y-64178042D01*
X169155302Y-64014039D01*
X169364039Y-63805302D01*
X169470000Y-63646719D01*
X169575961Y-63805302D01*
X169784698Y-64014039D01*
X170030147Y-64178042D01*
X170302875Y-64291010D01*
X170592401Y-64348600D01*
X170887599Y-64348600D01*
X171177125Y-64291010D01*
X171449853Y-64178042D01*
X171695302Y-64014039D01*
X171904039Y-63805302D01*
X172010000Y-63646719D01*
X172115961Y-63805302D01*
X172324698Y-64014039D01*
X172570147Y-64178042D01*
X172842875Y-64291010D01*
X173132401Y-64348600D01*
X173427599Y-64348600D01*
X173717125Y-64291010D01*
X173989853Y-64178042D01*
X174235302Y-64014039D01*
X174444039Y-63805302D01*
X174550000Y-63646719D01*
X174655961Y-63805302D01*
X174864698Y-64014039D01*
X175110147Y-64178042D01*
X175382875Y-64291010D01*
X175672401Y-64348600D01*
X175967599Y-64348600D01*
X176257125Y-64291010D01*
X176529853Y-64178042D01*
X176775302Y-64014039D01*
X176984039Y-63805302D01*
X177148042Y-63559853D01*
X177261010Y-63287125D01*
X177318600Y-62997599D01*
X177318600Y-62702401D01*
X177261010Y-62412875D01*
X177148042Y-62140147D01*
X176984039Y-61894698D01*
X176775302Y-61685961D01*
X176529853Y-61521958D01*
X176257125Y-61408990D01*
X175967599Y-61351400D01*
X175672401Y-61351400D01*
X175382875Y-61408990D01*
X175110147Y-61521958D01*
X174864698Y-61685961D01*
X174655961Y-61894698D01*
X174550000Y-62053281D01*
X174444039Y-61894698D01*
X174235302Y-61685961D01*
X173989853Y-61521958D01*
X173717125Y-61408990D01*
X173427599Y-61351400D01*
X173132401Y-61351400D01*
X172842875Y-61408990D01*
X172570147Y-61521958D01*
X172324698Y-61685961D01*
X172115961Y-61894698D01*
X172010000Y-62053281D01*
X171904039Y-61894698D01*
X171695302Y-61685961D01*
X171449853Y-61521958D01*
X171177125Y-61408990D01*
X170887599Y-61351400D01*
X170592401Y-61351400D01*
X170302875Y-61408990D01*
X170030147Y-61521958D01*
X169784698Y-61685961D01*
X169575961Y-61894698D01*
X169470000Y-62053281D01*
X169364039Y-61894698D01*
X169155302Y-61685961D01*
X168909853Y-61521958D01*
X168637125Y-61408990D01*
X168347599Y-61351400D01*
X168052401Y-61351400D01*
X167762875Y-61408990D01*
X167490147Y-61521958D01*
X167244698Y-61685961D01*
X167035961Y-61894698D01*
X166930000Y-62053281D01*
X166824039Y-61894698D01*
X166615302Y-61685961D01*
X166369853Y-61521958D01*
X166097125Y-61408990D01*
X165807599Y-61351400D01*
X165512401Y-61351400D01*
X165222875Y-61408990D01*
X164950147Y-61521958D01*
X164704698Y-61685961D01*
X164495961Y-61894698D01*
X164390000Y-62053281D01*
X164284039Y-61894698D01*
X164075302Y-61685961D01*
X163829853Y-61521958D01*
X163557125Y-61408990D01*
X163267599Y-61351400D01*
X162972401Y-61351400D01*
X162682875Y-61408990D01*
X162410147Y-61521958D01*
X162164698Y-61685961D01*
X161955961Y-61894698D01*
X161850000Y-62053281D01*
X161744039Y-61894698D01*
X161535302Y-61685961D01*
X161289853Y-61521958D01*
X161017125Y-61408990D01*
X160727599Y-61351400D01*
X160432401Y-61351400D01*
X160142875Y-61408990D01*
X159870147Y-61521958D01*
X159624698Y-61685961D01*
X159415961Y-61894698D01*
X159310000Y-62053281D01*
X159204039Y-61894698D01*
X158995302Y-61685961D01*
X158749853Y-61521958D01*
X158477125Y-61408990D01*
X158187599Y-61351400D01*
X157892401Y-61351400D01*
X157602875Y-61408990D01*
X157330147Y-61521958D01*
X157084698Y-61685961D01*
X156875961Y-61894698D01*
X156711958Y-62140147D01*
X156598990Y-62412875D01*
X156541400Y-62702401D01*
X156541400Y-62997599D01*
X156598990Y-63287125D01*
X156711958Y-63559853D01*
X156875961Y-63805302D01*
X157084698Y-64014039D01*
X157330147Y-64178042D01*
X157602875Y-64291010D01*
X157892401Y-64348600D01*
X158187599Y-64348600D01*
X158477125Y-64291010D01*
X158749853Y-64178042D01*
X158995302Y-64014039D01*
X159204039Y-63805302D01*
X159310000Y-63646719D01*
X159415961Y-63805302D01*
X159624698Y-64014039D01*
X159870147Y-64178042D01*
X160142875Y-64291010D01*
X160432401Y-64348600D01*
X160727599Y-64348600D01*
X161017125Y-64291010D01*
X161289853Y-64178042D01*
X161535302Y-64014039D01*
X161744039Y-63805302D01*
X161850000Y-63646719D01*
X161955961Y-63805302D01*
X162164698Y-64014039D01*
X162410147Y-64178042D01*
X162682875Y-64291010D01*
X162972401Y-64348600D01*
X163162189Y-64348600D01*
X163107111Y-64371414D01*
X163041880Y-64415000D01*
X154111157Y-64415000D01*
X154044757Y-64348600D01*
X154123599Y-64348600D01*
X154413125Y-64291010D01*
X154685853Y-64178042D01*
X154931302Y-64014039D01*
X155140039Y-63805302D01*
X155304042Y-63559853D01*
X155417010Y-63287125D01*
X155474600Y-62997599D01*
X155474600Y-62702401D01*
X155417010Y-62412875D01*
X155304042Y-62140147D01*
X155140039Y-61894698D01*
X154931302Y-61685961D01*
X154685853Y-61521958D01*
X154413125Y-61408990D01*
X154123599Y-61351400D01*
X153828401Y-61351400D01*
X153538875Y-61408990D01*
X153266147Y-61521958D01*
X153020698Y-61685961D01*
X152811961Y-61894698D01*
X152706000Y-62053281D01*
X152600039Y-61894698D01*
X152391302Y-61685961D01*
X152145853Y-61521958D01*
X151873125Y-61408990D01*
X151583599Y-61351400D01*
X151288401Y-61351400D01*
X150998875Y-61408990D01*
X150726147Y-61521958D01*
X150480698Y-61685961D01*
X150271961Y-61894698D01*
X150166000Y-62053281D01*
X150060039Y-61894698D01*
X149851302Y-61685961D01*
X149605853Y-61521958D01*
X149333125Y-61408990D01*
X149043599Y-61351400D01*
X148748401Y-61351400D01*
X148458875Y-61408990D01*
X148186147Y-61521958D01*
X147940698Y-61685961D01*
X147731961Y-61894698D01*
X147626000Y-62053281D01*
X147520039Y-61894698D01*
X147311302Y-61685961D01*
X147065853Y-61521958D01*
X146793125Y-61408990D01*
X146503599Y-61351400D01*
X146208401Y-61351400D01*
X145918875Y-61408990D01*
X145646147Y-61521958D01*
X145400698Y-61685961D01*
X145191961Y-61894698D01*
X145086000Y-62053281D01*
X144980039Y-61894698D01*
X144771302Y-61685961D01*
X144525853Y-61521958D01*
X144253125Y-61408990D01*
X143963599Y-61351400D01*
X143668401Y-61351400D01*
X143378875Y-61408990D01*
X143106147Y-61521958D01*
X142860698Y-61685961D01*
X142651961Y-61894698D01*
X142546000Y-62053281D01*
X142440039Y-61894698D01*
X142231302Y-61685961D01*
X141985853Y-61521958D01*
X141713125Y-61408990D01*
X141423599Y-61351400D01*
X141128401Y-61351400D01*
X140838875Y-61408990D01*
X140566147Y-61521958D01*
X140320698Y-61685961D01*
X140111961Y-61894698D01*
X140004308Y-62055813D01*
X139842854Y-61839707D01*
X139624488Y-61643183D01*
X139371978Y-61493036D01*
X139095027Y-61395037D01*
X138863000Y-61515536D01*
X138609000Y-61515536D01*
X138376973Y-61395037D01*
X138100022Y-61493036D01*
X137847512Y-61643183D01*
X137629146Y-61839707D01*
X137467692Y-62055813D01*
X137360039Y-61894698D01*
X137151302Y-61685961D01*
X136905853Y-61521958D01*
X136633125Y-61408990D01*
X136343599Y-61351400D01*
X136048401Y-61351400D01*
X135758875Y-61408990D01*
X135486147Y-61521958D01*
X135240698Y-61685961D01*
X135031961Y-61894698D01*
X134926000Y-62053281D01*
X134820039Y-61894698D01*
X134611302Y-61685961D01*
X134365853Y-61521958D01*
X134093125Y-61408990D01*
X133803599Y-61351400D01*
X133508401Y-61351400D01*
X133218875Y-61408990D01*
X132946147Y-61521958D01*
X132700698Y-61685961D01*
X132491961Y-61894698D01*
X132386000Y-62053281D01*
X132280039Y-61894698D01*
X132071302Y-61685961D01*
X131825853Y-61521958D01*
X131553125Y-61408990D01*
X131263599Y-61351400D01*
X130968401Y-61351400D01*
X130678875Y-61408990D01*
X130406147Y-61521958D01*
X130160698Y-61685961D01*
X129951961Y-61894698D01*
X129787958Y-62140147D01*
X129674990Y-62412875D01*
X129617400Y-62702401D01*
X123660000Y-62702401D01*
X123660000Y-62273380D01*
X125273381Y-60660000D01*
X187226620Y-60660000D01*
X189840001Y-63273382D01*
%TA.AperFunction,Conductor*%
D24*
G36*
X189840001Y-63273382D02*
G01*
X189840000Y-64532418D01*
X189840001Y-64532428D01*
X189840000Y-80726619D01*
X187556232Y-83010388D01*
X187531053Y-83031052D01*
X187510389Y-83056231D01*
X187510386Y-83056234D01*
X187448575Y-83131550D01*
X187387290Y-83246208D01*
X187349551Y-83370618D01*
X187336808Y-83500000D01*
X187340001Y-83532419D01*
X187340000Y-97226619D01*
X180556232Y-104010388D01*
X180531053Y-104031052D01*
X180510389Y-104056231D01*
X180510386Y-104056234D01*
X180448575Y-104131550D01*
X180387290Y-104246208D01*
X180349551Y-104370618D01*
X180336808Y-104500000D01*
X180340001Y-104532419D01*
X180340000Y-109726619D01*
X178056232Y-112010388D01*
X178031053Y-112031052D01*
X178010389Y-112056231D01*
X178010386Y-112056234D01*
X177948575Y-112131550D01*
X177887290Y-112246208D01*
X177849551Y-112370618D01*
X177836808Y-112500000D01*
X177840001Y-112532418D01*
X177840001Y-112840000D01*
X127273381Y-112840000D01*
X125660000Y-111226620D01*
X125660000Y-108378665D01*
X135785000Y-108378665D01*
X135785000Y-108661335D01*
X135840147Y-108938574D01*
X135948320Y-109199727D01*
X136105363Y-109434759D01*
X136305241Y-109634637D01*
X136540273Y-109791680D01*
X136801426Y-109899853D01*
X137078665Y-109955000D01*
X137361335Y-109955000D01*
X137638574Y-109899853D01*
X137899727Y-109791680D01*
X138134759Y-109634637D01*
X138334637Y-109434759D01*
X138490000Y-109202241D01*
X138645363Y-109434759D01*
X138845241Y-109634637D01*
X139080273Y-109791680D01*
X139341426Y-109899853D01*
X139366299Y-109904801D01*
X139304698Y-109945961D01*
X139095961Y-110154698D01*
X138931958Y-110400147D01*
X138818990Y-110672875D01*
X138761400Y-110962401D01*
X138761400Y-111257599D01*
X138818990Y-111547125D01*
X138931958Y-111819853D01*
X139095961Y-112065302D01*
X139304698Y-112274039D01*
X139550147Y-112438042D01*
X139822875Y-112551010D01*
X140112401Y-112608600D01*
X140407599Y-112608600D01*
X140697125Y-112551010D01*
X140969853Y-112438042D01*
X141215302Y-112274039D01*
X141424039Y-112065302D01*
X141530000Y-111906719D01*
X141635961Y-112065302D01*
X141844698Y-112274039D01*
X142090147Y-112438042D01*
X142362875Y-112551010D01*
X142652401Y-112608600D01*
X142947599Y-112608600D01*
X143237125Y-112551010D01*
X143509853Y-112438042D01*
X143755302Y-112274039D01*
X143964039Y-112065302D01*
X144070000Y-111906719D01*
X144175961Y-112065302D01*
X144384698Y-112274039D01*
X144630147Y-112438042D01*
X144902875Y-112551010D01*
X145192401Y-112608600D01*
X145487599Y-112608600D01*
X145777125Y-112551010D01*
X146049853Y-112438042D01*
X146295302Y-112274039D01*
X146504039Y-112065302D01*
X146610000Y-111906719D01*
X146715961Y-112065302D01*
X146924698Y-112274039D01*
X147170147Y-112438042D01*
X147442875Y-112551010D01*
X147732401Y-112608600D01*
X148027599Y-112608600D01*
X148317125Y-112551010D01*
X148589853Y-112438042D01*
X148835302Y-112274039D01*
X149044039Y-112065302D01*
X149150000Y-111906719D01*
X149255961Y-112065302D01*
X149464698Y-112274039D01*
X149710147Y-112438042D01*
X149982875Y-112551010D01*
X150272401Y-112608600D01*
X150567599Y-112608600D01*
X150857125Y-112551010D01*
X151129853Y-112438042D01*
X151375302Y-112274039D01*
X151584039Y-112065302D01*
X151691692Y-111904187D01*
X151853146Y-112120293D01*
X152071512Y-112316817D01*
X152324022Y-112466964D01*
X152600973Y-112564963D01*
X152833000Y-112444464D01*
X152833000Y-111237000D01*
X153087000Y-111237000D01*
X153087000Y-112444464D01*
X153319027Y-112564963D01*
X153595978Y-112466964D01*
X153848488Y-112316817D01*
X154066854Y-112120293D01*
X154230000Y-111901922D01*
X154393146Y-112120293D01*
X154611512Y-112316817D01*
X154864022Y-112466964D01*
X155140973Y-112564963D01*
X155373000Y-112444464D01*
X155373000Y-111237000D01*
X153087000Y-111237000D01*
X152833000Y-111237000D01*
X152813000Y-111237000D01*
X152813000Y-110983000D01*
X152833000Y-110983000D01*
X152833000Y-110963000D01*
X153087000Y-110963000D01*
X153087000Y-110983000D01*
X155373000Y-110983000D01*
X155373000Y-110963000D01*
X155627000Y-110963000D01*
X155627000Y-110983000D01*
X155647000Y-110983000D01*
X155647000Y-111237000D01*
X155627000Y-111237000D01*
X155627000Y-112444464D01*
X155859027Y-112564963D01*
X156135978Y-112466964D01*
X156388488Y-112316817D01*
X156606854Y-112120293D01*
X156768308Y-111904187D01*
X156875961Y-112065302D01*
X157084698Y-112274039D01*
X157330147Y-112438042D01*
X157602875Y-112551010D01*
X157892401Y-112608600D01*
X158187599Y-112608600D01*
X158477125Y-112551010D01*
X158749853Y-112438042D01*
X158995302Y-112274039D01*
X159204039Y-112065302D01*
X159368042Y-111819853D01*
X159481010Y-111547125D01*
X159538600Y-111257599D01*
X159538600Y-110962401D01*
X159481010Y-110672875D01*
X159403189Y-110485000D01*
X161384843Y-110485000D01*
X161661358Y-110761516D01*
X161621400Y-110962401D01*
X161621400Y-111257599D01*
X161678990Y-111547125D01*
X161791958Y-111819853D01*
X161955961Y-112065302D01*
X162164698Y-112274039D01*
X162410147Y-112438042D01*
X162682875Y-112551010D01*
X162972401Y-112608600D01*
X163267599Y-112608600D01*
X163557125Y-112551010D01*
X163829853Y-112438042D01*
X164075302Y-112274039D01*
X164284039Y-112065302D01*
X164390000Y-111906719D01*
X164495961Y-112065302D01*
X164704698Y-112274039D01*
X164950147Y-112438042D01*
X165222875Y-112551010D01*
X165512401Y-112608600D01*
X165807599Y-112608600D01*
X166097125Y-112551010D01*
X166369853Y-112438042D01*
X166615302Y-112274039D01*
X166824039Y-112065302D01*
X166930000Y-111906719D01*
X167035961Y-112065302D01*
X167244698Y-112274039D01*
X167490147Y-112438042D01*
X167762875Y-112551010D01*
X168052401Y-112608600D01*
X168347599Y-112608600D01*
X168637125Y-112551010D01*
X168909853Y-112438042D01*
X169155302Y-112274039D01*
X169364039Y-112065302D01*
X169470000Y-111906719D01*
X169575961Y-112065302D01*
X169784698Y-112274039D01*
X170030147Y-112438042D01*
X170302875Y-112551010D01*
X170592401Y-112608600D01*
X170887599Y-112608600D01*
X171177125Y-112551010D01*
X171449853Y-112438042D01*
X171695302Y-112274039D01*
X171904039Y-112065302D01*
X172010000Y-111906719D01*
X172115961Y-112065302D01*
X172324698Y-112274039D01*
X172570147Y-112438042D01*
X172842875Y-112551010D01*
X173132401Y-112608600D01*
X173427599Y-112608600D01*
X173717125Y-112551010D01*
X173989853Y-112438042D01*
X174235302Y-112274039D01*
X174444039Y-112065302D01*
X174550000Y-111906719D01*
X174655961Y-112065302D01*
X174864698Y-112274039D01*
X175110147Y-112438042D01*
X175382875Y-112551010D01*
X175672401Y-112608600D01*
X175967599Y-112608600D01*
X176257125Y-112551010D01*
X176529853Y-112438042D01*
X176775302Y-112274039D01*
X176984039Y-112065302D01*
X177148042Y-111819853D01*
X177261010Y-111547125D01*
X177318600Y-111257599D01*
X177318600Y-110962401D01*
X177261010Y-110672875D01*
X177148042Y-110400147D01*
X176984039Y-110154698D01*
X176775302Y-109945961D01*
X176529853Y-109781958D01*
X176257125Y-109668990D01*
X175967599Y-109611400D01*
X175672401Y-109611400D01*
X175382875Y-109668990D01*
X175110147Y-109781958D01*
X174864698Y-109945961D01*
X174655961Y-110154698D01*
X174550000Y-110313281D01*
X174444039Y-110154698D01*
X174235302Y-109945961D01*
X173989853Y-109781958D01*
X173717125Y-109668990D01*
X173427599Y-109611400D01*
X173132401Y-109611400D01*
X172842875Y-109668990D01*
X172570147Y-109781958D01*
X172324698Y-109945961D01*
X172115961Y-110154698D01*
X172010000Y-110313281D01*
X171904039Y-110154698D01*
X171695302Y-109945961D01*
X171497707Y-109813933D01*
X171578586Y-109692889D01*
X171649068Y-109522729D01*
X171685000Y-109342089D01*
X171685000Y-109157911D01*
X171649068Y-108977271D01*
X171578586Y-108807111D01*
X171476262Y-108653972D01*
X171346028Y-108523738D01*
X171192889Y-108421414D01*
X171022729Y-108350932D01*
X170945784Y-108335627D01*
X169995157Y-107385000D01*
X171141880Y-107385000D01*
X171207111Y-107428586D01*
X171377271Y-107499068D01*
X171557911Y-107535000D01*
X171742089Y-107535000D01*
X171922729Y-107499068D01*
X172092889Y-107428586D01*
X172246028Y-107326262D01*
X172376262Y-107196028D01*
X172478586Y-107042889D01*
X172549068Y-106872729D01*
X172585000Y-106692089D01*
X172585000Y-106507911D01*
X172549068Y-106327271D01*
X172478586Y-106157111D01*
X172447108Y-106110000D01*
X174181531Y-106110000D01*
X174225000Y-106114281D01*
X174268469Y-106110000D01*
X174268477Y-106110000D01*
X174398490Y-106097195D01*
X174565313Y-106046589D01*
X174719059Y-105964411D01*
X174853817Y-105853817D01*
X174881534Y-105820044D01*
X178816579Y-101885000D01*
X179086715Y-101885000D01*
X179209744Y-101967205D01*
X179398102Y-102045226D01*
X179598061Y-102085000D01*
X179801939Y-102085000D01*
X180001898Y-102045226D01*
X180190256Y-101967205D01*
X180359774Y-101853937D01*
X180503937Y-101709774D01*
X180617205Y-101540256D01*
X180695226Y-101351898D01*
X180735000Y-101151939D01*
X180735000Y-100948061D01*
X180695226Y-100748102D01*
X180617205Y-100559744D01*
X180503937Y-100390226D01*
X180359774Y-100246063D01*
X180190256Y-100132795D01*
X180001898Y-100054774D01*
X179801939Y-100015000D01*
X179598061Y-100015000D01*
X179398102Y-100054774D01*
X179252705Y-100115000D01*
X178493465Y-100115000D01*
X178449999Y-100110719D01*
X178406533Y-100115000D01*
X178406523Y-100115000D01*
X178276510Y-100127805D01*
X178109687Y-100178411D01*
X177955941Y-100260589D01*
X177955939Y-100260590D01*
X177955940Y-100260590D01*
X177854953Y-100343468D01*
X177854951Y-100343470D01*
X177821183Y-100371183D01*
X177793470Y-100404951D01*
X173858422Y-104340000D01*
X171913454Y-104340000D01*
X171865256Y-104307795D01*
X171676898Y-104229774D01*
X171476939Y-104190000D01*
X171273061Y-104190000D01*
X171073102Y-104229774D01*
X170884744Y-104307795D01*
X170715226Y-104421063D01*
X170571063Y-104565226D01*
X170457795Y-104734744D01*
X170379774Y-104923102D01*
X170340000Y-105123061D01*
X170340000Y-105326939D01*
X170379774Y-105526898D01*
X170457795Y-105715256D01*
X170524442Y-105815000D01*
X164125158Y-105815000D01*
X163614374Y-105304216D01*
X163599068Y-105227271D01*
X163528586Y-105057111D01*
X163426262Y-104903972D01*
X163296028Y-104773738D01*
X163142889Y-104671414D01*
X162972729Y-104600932D01*
X162792089Y-104565000D01*
X162607911Y-104565000D01*
X162427271Y-104600932D01*
X162257111Y-104671414D01*
X162103972Y-104773738D01*
X161973738Y-104903972D01*
X161871414Y-105057111D01*
X161800932Y-105227271D01*
X161765000Y-105407911D01*
X161765000Y-105592089D01*
X161800932Y-105772729D01*
X161871414Y-105942889D01*
X161973738Y-106096028D01*
X162103972Y-106226262D01*
X162257111Y-106328586D01*
X162427271Y-106399068D01*
X162504216Y-106414374D01*
X163004842Y-106915000D01*
X162087290Y-106915000D01*
X161996028Y-106823738D01*
X161842889Y-106721414D01*
X161672729Y-106650932D01*
X161492089Y-106615000D01*
X161307911Y-106615000D01*
X161127271Y-106650932D01*
X160957111Y-106721414D01*
X160803972Y-106823738D01*
X160673738Y-106953972D01*
X160662934Y-106970142D01*
X160617205Y-106859744D01*
X160585000Y-106811546D01*
X160585000Y-106066578D01*
X165366579Y-101285000D01*
X166111546Y-101285000D01*
X166159744Y-101317205D01*
X166348102Y-101395226D01*
X166548061Y-101435000D01*
X166751939Y-101435000D01*
X166951898Y-101395226D01*
X167140256Y-101317205D01*
X167309774Y-101203937D01*
X167453937Y-101059774D01*
X167567205Y-100890256D01*
X167645226Y-100701898D01*
X167685000Y-100501939D01*
X167685000Y-100298061D01*
X167645226Y-100098102D01*
X167567205Y-99909744D01*
X167453937Y-99740226D01*
X167309774Y-99596063D01*
X167140256Y-99482795D01*
X166951898Y-99404774D01*
X166751939Y-99365000D01*
X166548061Y-99365000D01*
X166348102Y-99404774D01*
X166159744Y-99482795D01*
X166111546Y-99515000D01*
X165043469Y-99515000D01*
X165000000Y-99510719D01*
X164956531Y-99515000D01*
X164956523Y-99515000D01*
X164826510Y-99527805D01*
X164659687Y-99578411D01*
X164566313Y-99628320D01*
X164505941Y-99660589D01*
X164404953Y-99743468D01*
X164404951Y-99743470D01*
X164371183Y-99771183D01*
X164343470Y-99804951D01*
X159104956Y-105043466D01*
X159071183Y-105071183D01*
X158960589Y-105205942D01*
X158878411Y-105359688D01*
X158827805Y-105526511D01*
X158815000Y-105656524D01*
X158815000Y-105656531D01*
X158810719Y-105700000D01*
X158815000Y-105743469D01*
X158815001Y-106811545D01*
X158782795Y-106859744D01*
X158704774Y-107048102D01*
X158665000Y-107248061D01*
X158665000Y-107451939D01*
X158704774Y-107651898D01*
X158770336Y-107810179D01*
X156582347Y-105622190D01*
X156557764Y-105592236D01*
X156438233Y-105494138D01*
X156301860Y-105421246D01*
X156153887Y-105376359D01*
X156038561Y-105365000D01*
X156038553Y-105365000D01*
X156000000Y-105361203D01*
X155961447Y-105365000D01*
X144708552Y-105365000D01*
X144669999Y-105361203D01*
X144631446Y-105365000D01*
X144631439Y-105365000D01*
X144530490Y-105374943D01*
X144516112Y-105376359D01*
X144368140Y-105421246D01*
X144231767Y-105494138D01*
X144171559Y-105543550D01*
X144142187Y-105567655D01*
X144142184Y-105567658D01*
X144112236Y-105592236D01*
X144087658Y-105622184D01*
X142594396Y-107115446D01*
X142441335Y-107085000D01*
X142158665Y-107085000D01*
X141881426Y-107140147D01*
X141620273Y-107248320D01*
X141385241Y-107405363D01*
X141185363Y-107605241D01*
X141030000Y-107837759D01*
X140874637Y-107605241D01*
X140674759Y-107405363D01*
X140439727Y-107248320D01*
X140178574Y-107140147D01*
X139901335Y-107085000D01*
X139618665Y-107085000D01*
X139341426Y-107140147D01*
X139080273Y-107248320D01*
X138845241Y-107405363D01*
X138645363Y-107605241D01*
X138490000Y-107837759D01*
X138334637Y-107605241D01*
X138134759Y-107405363D01*
X137899727Y-107248320D01*
X137638574Y-107140147D01*
X137361335Y-107085000D01*
X137078665Y-107085000D01*
X136801426Y-107140147D01*
X136540273Y-107248320D01*
X136305241Y-107405363D01*
X136105363Y-107605241D01*
X135948320Y-107840273D01*
X135840147Y-108101426D01*
X135785000Y-108378665D01*
X125660000Y-108378665D01*
X125660000Y-105657911D01*
X137065000Y-105657911D01*
X137065000Y-105842089D01*
X137100932Y-106022729D01*
X137171414Y-106192889D01*
X137273738Y-106346028D01*
X137403972Y-106476262D01*
X137557111Y-106578586D01*
X137727271Y-106649068D01*
X137907911Y-106685000D01*
X138092089Y-106685000D01*
X138272729Y-106649068D01*
X138442889Y-106578586D01*
X138596028Y-106476262D01*
X138726262Y-106346028D01*
X138828586Y-106192889D01*
X138899068Y-106022729D01*
X138914374Y-105945783D01*
X139775157Y-105085000D01*
X145491880Y-105085000D01*
X145557111Y-105128586D01*
X145727271Y-105199068D01*
X145907911Y-105235000D01*
X146092089Y-105235000D01*
X146272729Y-105199068D01*
X146442889Y-105128586D01*
X146596028Y-105026262D01*
X146726262Y-104896028D01*
X146828586Y-104742889D01*
X146899068Y-104572729D01*
X146935000Y-104392089D01*
X146935000Y-104207911D01*
X146899068Y-104027271D01*
X146828586Y-103857111D01*
X146726262Y-103703972D01*
X146596028Y-103573738D01*
X146442889Y-103471414D01*
X146272729Y-103400932D01*
X146092089Y-103365000D01*
X145907911Y-103365000D01*
X145727271Y-103400932D01*
X145557111Y-103471414D01*
X145491880Y-103515000D01*
X139488556Y-103515000D01*
X139450000Y-103511203D01*
X139411444Y-103515000D01*
X139411439Y-103515000D01*
X139371026Y-103518980D01*
X139296113Y-103526358D01*
X139148140Y-103571246D01*
X139011767Y-103644138D01*
X138892236Y-103742236D01*
X138867653Y-103772190D01*
X137804217Y-104835626D01*
X137727271Y-104850932D01*
X137557111Y-104921414D01*
X137403972Y-105023738D01*
X137273738Y-105153972D01*
X137171414Y-105307111D01*
X137100932Y-105477271D01*
X137065000Y-105657911D01*
X125660000Y-105657911D01*
X125660000Y-101249040D01*
X135828091Y-101249040D01*
X135922930Y-101513881D01*
X136067615Y-101755131D01*
X136256586Y-101963519D01*
X136482580Y-102131037D01*
X136736913Y-102251246D01*
X136870961Y-102291904D01*
X137093000Y-102169915D01*
X137093000Y-101027000D01*
X135949376Y-101027000D01*
X135828091Y-101249040D01*
X125660000Y-101249040D01*
X125660000Y-100550960D01*
X135828091Y-100550960D01*
X135949376Y-100773000D01*
X137093000Y-100773000D01*
X137093000Y-99630085D01*
X137347000Y-99630085D01*
X137347000Y-100773000D01*
X137367000Y-100773000D01*
X137367000Y-101027000D01*
X137347000Y-101027000D01*
X137347000Y-102169915D01*
X137569039Y-102291904D01*
X137703087Y-102251246D01*
X137957420Y-102131037D01*
X138183414Y-101963519D01*
X138372385Y-101755131D01*
X138483933Y-101569135D01*
X138488320Y-101579727D01*
X138645363Y-101814759D01*
X138845241Y-102014637D01*
X139080273Y-102171680D01*
X139341426Y-102279853D01*
X139618665Y-102335000D01*
X139901335Y-102335000D01*
X140178574Y-102279853D01*
X140439727Y-102171680D01*
X140674759Y-102014637D01*
X140874637Y-101814759D01*
X141030000Y-101582241D01*
X141185363Y-101814759D01*
X141385241Y-102014637D01*
X141620273Y-102171680D01*
X141881426Y-102279853D01*
X142158665Y-102335000D01*
X142441335Y-102335000D01*
X142718574Y-102279853D01*
X142979727Y-102171680D01*
X143214759Y-102014637D01*
X143414637Y-101814759D01*
X143570000Y-101582241D01*
X143725363Y-101814759D01*
X143925241Y-102014637D01*
X144160273Y-102171680D01*
X144421426Y-102279853D01*
X144698665Y-102335000D01*
X144981335Y-102335000D01*
X145258574Y-102279853D01*
X145519727Y-102171680D01*
X145754759Y-102014637D01*
X145954637Y-101814759D01*
X146110000Y-101582241D01*
X146265363Y-101814759D01*
X146465241Y-102014637D01*
X146700273Y-102171680D01*
X146961426Y-102279853D01*
X147238665Y-102335000D01*
X147521335Y-102335000D01*
X147798574Y-102279853D01*
X148059727Y-102171680D01*
X148294759Y-102014637D01*
X148494637Y-101814759D01*
X148650000Y-101582241D01*
X148805363Y-101814759D01*
X149005241Y-102014637D01*
X149240273Y-102171680D01*
X149501426Y-102279853D01*
X149778665Y-102335000D01*
X150061335Y-102335000D01*
X150338574Y-102279853D01*
X150599727Y-102171680D01*
X150834759Y-102014637D01*
X151034637Y-101814759D01*
X151190000Y-101582241D01*
X151345363Y-101814759D01*
X151545241Y-102014637D01*
X151780273Y-102171680D01*
X152041426Y-102279853D01*
X152318665Y-102335000D01*
X152601335Y-102335000D01*
X152878574Y-102279853D01*
X153139727Y-102171680D01*
X153374759Y-102014637D01*
X153573357Y-101816039D01*
X153574188Y-101824482D01*
X153610498Y-101944180D01*
X153669463Y-102054494D01*
X153748815Y-102151185D01*
X153845506Y-102230537D01*
X153955820Y-102289502D01*
X154075518Y-102325812D01*
X154200000Y-102338072D01*
X155800000Y-102338072D01*
X155924482Y-102325812D01*
X156044180Y-102289502D01*
X156154494Y-102230537D01*
X156251185Y-102151185D01*
X156330537Y-102054494D01*
X156389502Y-101944180D01*
X156425812Y-101824482D01*
X156438072Y-101700000D01*
X156438072Y-100100000D01*
X156425812Y-99975518D01*
X156389502Y-99855820D01*
X156330537Y-99745506D01*
X156251185Y-99648815D01*
X156154494Y-99569463D01*
X156044180Y-99510498D01*
X155924482Y-99474188D01*
X155800000Y-99461928D01*
X154200000Y-99461928D01*
X154075518Y-99474188D01*
X153955820Y-99510498D01*
X153845506Y-99569463D01*
X153748815Y-99648815D01*
X153669463Y-99745506D01*
X153610498Y-99855820D01*
X153574188Y-99975518D01*
X153573357Y-99983961D01*
X153374759Y-99785363D01*
X153139727Y-99628320D01*
X152878574Y-99520147D01*
X152601335Y-99465000D01*
X152318665Y-99465000D01*
X152041426Y-99520147D01*
X151780273Y-99628320D01*
X151545241Y-99785363D01*
X151345363Y-99985241D01*
X151190000Y-100217759D01*
X151034637Y-99985241D01*
X150834759Y-99785363D01*
X150599727Y-99628320D01*
X150338574Y-99520147D01*
X150061335Y-99465000D01*
X149778665Y-99465000D01*
X149501426Y-99520147D01*
X149240273Y-99628320D01*
X149005241Y-99785363D01*
X148805363Y-99985241D01*
X148650000Y-100217759D01*
X148494637Y-99985241D01*
X148294759Y-99785363D01*
X148059727Y-99628320D01*
X147798574Y-99520147D01*
X147521335Y-99465000D01*
X147238665Y-99465000D01*
X146961426Y-99520147D01*
X146700273Y-99628320D01*
X146465241Y-99785363D01*
X146265363Y-99985241D01*
X146110000Y-100217759D01*
X145954637Y-99985241D01*
X145754759Y-99785363D01*
X145519727Y-99628320D01*
X145258574Y-99520147D01*
X144981335Y-99465000D01*
X144698665Y-99465000D01*
X144421426Y-99520147D01*
X144160273Y-99628320D01*
X143925241Y-99785363D01*
X143725363Y-99985241D01*
X143570000Y-100217759D01*
X143414637Y-99985241D01*
X143214759Y-99785363D01*
X142979727Y-99628320D01*
X142718574Y-99520147D01*
X142441335Y-99465000D01*
X142158665Y-99465000D01*
X141881426Y-99520147D01*
X141620273Y-99628320D01*
X141385241Y-99785363D01*
X141185363Y-99985241D01*
X141030000Y-100217759D01*
X140874637Y-99985241D01*
X140674759Y-99785363D01*
X140439727Y-99628320D01*
X140178574Y-99520147D01*
X139901335Y-99465000D01*
X139618665Y-99465000D01*
X139341426Y-99520147D01*
X139080273Y-99628320D01*
X138845241Y-99785363D01*
X138645363Y-99985241D01*
X138488320Y-100220273D01*
X138483933Y-100230865D01*
X138372385Y-100044869D01*
X138183414Y-99836481D01*
X137957420Y-99668963D01*
X137703087Y-99548754D01*
X137569039Y-99508096D01*
X137347000Y-99630085D01*
X137093000Y-99630085D01*
X136870961Y-99508096D01*
X136736913Y-99548754D01*
X136482580Y-99668963D01*
X136256586Y-99836481D01*
X136067615Y-100044869D01*
X135922930Y-100286119D01*
X135828091Y-100550960D01*
X125660000Y-100550960D01*
X125660000Y-100532408D01*
X125663192Y-100499999D01*
X125660000Y-100467590D01*
X125660000Y-100467581D01*
X125650450Y-100370617D01*
X125612710Y-100246207D01*
X125576473Y-100178411D01*
X125551425Y-100131549D01*
X125489614Y-100056233D01*
X125489612Y-100056231D01*
X125468948Y-100031052D01*
X125443770Y-100010389D01*
X123660000Y-98226620D01*
X123660000Y-97807911D01*
X133015000Y-97807911D01*
X133015000Y-97992089D01*
X133050932Y-98172729D01*
X133121414Y-98342889D01*
X133223738Y-98496028D01*
X133353972Y-98626262D01*
X133507111Y-98728586D01*
X133677271Y-98799068D01*
X133857911Y-98835000D01*
X134042089Y-98835000D01*
X134222729Y-98799068D01*
X134392889Y-98728586D01*
X134532951Y-98635000D01*
X177741880Y-98635000D01*
X177807111Y-98678586D01*
X177977271Y-98749068D01*
X178157911Y-98785000D01*
X178342089Y-98785000D01*
X178522729Y-98749068D01*
X178692889Y-98678586D01*
X178846028Y-98576262D01*
X178976262Y-98446028D01*
X179078586Y-98292889D01*
X179149068Y-98122729D01*
X179185000Y-97942089D01*
X179185000Y-97757911D01*
X179149068Y-97577271D01*
X179078586Y-97407111D01*
X178976262Y-97253972D01*
X178846028Y-97123738D01*
X178692889Y-97021414D01*
X178522729Y-96950932D01*
X178342089Y-96915000D01*
X178157911Y-96915000D01*
X177977271Y-96950932D01*
X177807111Y-97021414D01*
X177741880Y-97065000D01*
X134377404Y-97065000D01*
X134222729Y-97000932D01*
X134042089Y-96965000D01*
X133857911Y-96965000D01*
X133677271Y-97000932D01*
X133507111Y-97071414D01*
X133353972Y-97173738D01*
X133223738Y-97303972D01*
X133121414Y-97457111D01*
X133050932Y-97627271D01*
X133015000Y-97807911D01*
X123660000Y-97807911D01*
X123660000Y-93900000D01*
X132641928Y-93900000D01*
X132641928Y-95900000D01*
X132654188Y-96024482D01*
X132690498Y-96144180D01*
X132749463Y-96254494D01*
X132828815Y-96351185D01*
X132925506Y-96430537D01*
X133035820Y-96489502D01*
X133155518Y-96525812D01*
X133280000Y-96538072D01*
X134720000Y-96538072D01*
X134844482Y-96525812D01*
X134964180Y-96489502D01*
X135074494Y-96430537D01*
X135171185Y-96351185D01*
X135250537Y-96254494D01*
X135309502Y-96144180D01*
X135345812Y-96024482D01*
X135358072Y-95900000D01*
X135358072Y-95843204D01*
X135407908Y-95936440D01*
X135577236Y-96142765D01*
X135783561Y-96312092D01*
X136018956Y-96437914D01*
X136274375Y-96515394D01*
X136540000Y-96541556D01*
X136805626Y-96515394D01*
X137061045Y-96437914D01*
X137296440Y-96312092D01*
X137502765Y-96142765D01*
X137672092Y-95936440D01*
X137797914Y-95701045D01*
X137810000Y-95661202D01*
X137822086Y-95701045D01*
X137947908Y-95936440D01*
X138117236Y-96142765D01*
X138323561Y-96312092D01*
X138558956Y-96437914D01*
X138814375Y-96515394D01*
X139080000Y-96541556D01*
X139345626Y-96515394D01*
X139601045Y-96437914D01*
X139836440Y-96312092D01*
X140042765Y-96142765D01*
X140212092Y-95936440D01*
X140337914Y-95701045D01*
X140350000Y-95661202D01*
X140362086Y-95701045D01*
X140487908Y-95936440D01*
X140657236Y-96142765D01*
X140863561Y-96312092D01*
X141098956Y-96437914D01*
X141354375Y-96515394D01*
X141620000Y-96541556D01*
X141885626Y-96515394D01*
X142141045Y-96437914D01*
X142376440Y-96312092D01*
X142582765Y-96142765D01*
X142752092Y-95936440D01*
X142877914Y-95701045D01*
X142890000Y-95661202D01*
X142902086Y-95701045D01*
X143027908Y-95936440D01*
X143197236Y-96142765D01*
X143403561Y-96312092D01*
X143638956Y-96437914D01*
X143894375Y-96515394D01*
X144160000Y-96541556D01*
X144425626Y-96515394D01*
X144681045Y-96437914D01*
X144916440Y-96312092D01*
X145122765Y-96142765D01*
X145292092Y-95936440D01*
X145417914Y-95701045D01*
X145430000Y-95661202D01*
X145442086Y-95701045D01*
X145567908Y-95936440D01*
X145737236Y-96142765D01*
X145943561Y-96312092D01*
X146178956Y-96437914D01*
X146434375Y-96515394D01*
X146700000Y-96541556D01*
X146965626Y-96515394D01*
X147221045Y-96437914D01*
X147456440Y-96312092D01*
X147662765Y-96142765D01*
X147832092Y-95936440D01*
X147957914Y-95701045D01*
X147970000Y-95661202D01*
X147982086Y-95701045D01*
X148107908Y-95936440D01*
X148277236Y-96142765D01*
X148483561Y-96312092D01*
X148718956Y-96437914D01*
X148974375Y-96515394D01*
X149240000Y-96541556D01*
X149505626Y-96515394D01*
X149761045Y-96437914D01*
X149996440Y-96312092D01*
X150202765Y-96142765D01*
X150372092Y-95936440D01*
X150497914Y-95701045D01*
X150510000Y-95661202D01*
X150522086Y-95701045D01*
X150647908Y-95936440D01*
X150817236Y-96142765D01*
X151023561Y-96312092D01*
X151258956Y-96437914D01*
X151514375Y-96515394D01*
X151780000Y-96541556D01*
X152045626Y-96515394D01*
X152301045Y-96437914D01*
X152536440Y-96312092D01*
X152742765Y-96142765D01*
X152912092Y-95936440D01*
X153037914Y-95701045D01*
X153050000Y-95661202D01*
X153062086Y-95701045D01*
X153187908Y-95936440D01*
X153357236Y-96142765D01*
X153563561Y-96312092D01*
X153798956Y-96437914D01*
X154054375Y-96515394D01*
X154320000Y-96541556D01*
X154585626Y-96515394D01*
X154841045Y-96437914D01*
X155076440Y-96312092D01*
X155282765Y-96142765D01*
X155452092Y-95936440D01*
X155577914Y-95701045D01*
X155590000Y-95661202D01*
X155602086Y-95701045D01*
X155727908Y-95936440D01*
X155897236Y-96142765D01*
X156103561Y-96312092D01*
X156338956Y-96437914D01*
X156594375Y-96515394D01*
X156860000Y-96541556D01*
X157125626Y-96515394D01*
X157381045Y-96437914D01*
X157616440Y-96312092D01*
X157822765Y-96142765D01*
X157992092Y-95936440D01*
X158117914Y-95701045D01*
X158130000Y-95661202D01*
X158142086Y-95701045D01*
X158267908Y-95936440D01*
X158437236Y-96142765D01*
X158643561Y-96312092D01*
X158878956Y-96437914D01*
X159134375Y-96515394D01*
X159400000Y-96541556D01*
X159665626Y-96515394D01*
X159921045Y-96437914D01*
X160156440Y-96312092D01*
X160362765Y-96142765D01*
X160532092Y-95936440D01*
X160657914Y-95701045D01*
X160670000Y-95661202D01*
X160682086Y-95701045D01*
X160807908Y-95936440D01*
X160977236Y-96142765D01*
X161183561Y-96312092D01*
X161418956Y-96437914D01*
X161674375Y-96515394D01*
X161940000Y-96541556D01*
X162205626Y-96515394D01*
X162461045Y-96437914D01*
X162696440Y-96312092D01*
X162902765Y-96142765D01*
X163072092Y-95936440D01*
X163197914Y-95701045D01*
X163210000Y-95661202D01*
X163222086Y-95701045D01*
X163347908Y-95936440D01*
X163517236Y-96142765D01*
X163723561Y-96312092D01*
X163958956Y-96437914D01*
X164214375Y-96515394D01*
X164480000Y-96541556D01*
X164745626Y-96515394D01*
X165001045Y-96437914D01*
X165236440Y-96312092D01*
X165442765Y-96142765D01*
X165612092Y-95936440D01*
X165737914Y-95701045D01*
X165751505Y-95656241D01*
X165816744Y-95815869D01*
X165963916Y-96038395D01*
X166151673Y-96227933D01*
X166372799Y-96377199D01*
X166618797Y-96480458D01*
X166683528Y-96492559D01*
X166893000Y-96369489D01*
X166893000Y-95027000D01*
X167147000Y-95027000D01*
X167147000Y-96369489D01*
X167356472Y-96492559D01*
X167421203Y-96480458D01*
X167667201Y-96377199D01*
X167888327Y-96227933D01*
X168076084Y-96038395D01*
X168223256Y-95815869D01*
X168324188Y-95568907D01*
X168375000Y-95307000D01*
X168375000Y-95248061D01*
X169465000Y-95248061D01*
X169465000Y-95451939D01*
X169504774Y-95651898D01*
X169582795Y-95840256D01*
X169696063Y-96009774D01*
X169840226Y-96153937D01*
X170009744Y-96267205D01*
X170198102Y-96345226D01*
X170398061Y-96385000D01*
X170601939Y-96385000D01*
X170801898Y-96345226D01*
X170990256Y-96267205D01*
X171113285Y-96185000D01*
X176156531Y-96185000D01*
X176200000Y-96189281D01*
X176243469Y-96185000D01*
X176243477Y-96185000D01*
X176373490Y-96172195D01*
X176540313Y-96121589D01*
X176694059Y-96039411D01*
X176828817Y-95928817D01*
X176856534Y-95895044D01*
X178351578Y-94400000D01*
X181391928Y-94400000D01*
X181391928Y-96100000D01*
X181404188Y-96224482D01*
X181440498Y-96344180D01*
X181499463Y-96454494D01*
X181578815Y-96551185D01*
X181675506Y-96630537D01*
X181785820Y-96689502D01*
X181905518Y-96725812D01*
X182030000Y-96738072D01*
X183730000Y-96738072D01*
X183854482Y-96725812D01*
X183974180Y-96689502D01*
X184084494Y-96630537D01*
X184181185Y-96551185D01*
X184260537Y-96454494D01*
X184319502Y-96344180D01*
X184343966Y-96263534D01*
X184419731Y-96347588D01*
X184653080Y-96521641D01*
X184915901Y-96646825D01*
X185063110Y-96691476D01*
X185293000Y-96570155D01*
X185293000Y-95377000D01*
X185547000Y-95377000D01*
X185547000Y-96570155D01*
X185776890Y-96691476D01*
X185924099Y-96646825D01*
X186186920Y-96521641D01*
X186420269Y-96347588D01*
X186615178Y-96131355D01*
X186764157Y-95881252D01*
X186861481Y-95606891D01*
X186740814Y-95377000D01*
X185547000Y-95377000D01*
X185293000Y-95377000D01*
X185273000Y-95377000D01*
X185273000Y-95123000D01*
X185293000Y-95123000D01*
X185293000Y-93929845D01*
X185547000Y-93929845D01*
X185547000Y-95123000D01*
X186740814Y-95123000D01*
X186861481Y-94893109D01*
X186764157Y-94618748D01*
X186615178Y-94368645D01*
X186420269Y-94152412D01*
X186186920Y-93978359D01*
X185924099Y-93853175D01*
X185776890Y-93808524D01*
X185547000Y-93929845D01*
X185293000Y-93929845D01*
X185063110Y-93808524D01*
X184915901Y-93853175D01*
X184653080Y-93978359D01*
X184419731Y-94152412D01*
X184343966Y-94236466D01*
X184319502Y-94155820D01*
X184260537Y-94045506D01*
X184181185Y-93948815D01*
X184084494Y-93869463D01*
X183974180Y-93810498D01*
X183854482Y-93774188D01*
X183730000Y-93761928D01*
X182030000Y-93761928D01*
X181905518Y-93774188D01*
X181785820Y-93810498D01*
X181675506Y-93869463D01*
X181578815Y-93948815D01*
X181499463Y-94045506D01*
X181440498Y-94155820D01*
X181404188Y-94275518D01*
X181391928Y-94400000D01*
X178351578Y-94400000D01*
X181395049Y-91356530D01*
X181428817Y-91328817D01*
X181464360Y-91285509D01*
X181539410Y-91194060D01*
X181539411Y-91194059D01*
X181621589Y-91040313D01*
X181672195Y-90873490D01*
X181685000Y-90743477D01*
X181685000Y-90743467D01*
X181689281Y-90700001D01*
X181685000Y-90656535D01*
X181685000Y-90285612D01*
X181785820Y-90339502D01*
X181905518Y-90375812D01*
X182030000Y-90388072D01*
X183730000Y-90388072D01*
X183854482Y-90375812D01*
X183974180Y-90339502D01*
X184084494Y-90280537D01*
X184181185Y-90201185D01*
X184260537Y-90104494D01*
X184319502Y-89994180D01*
X184343966Y-89913534D01*
X184419731Y-89997588D01*
X184653080Y-90171641D01*
X184915901Y-90296825D01*
X185063110Y-90341476D01*
X185293000Y-90220155D01*
X185293000Y-89027000D01*
X185547000Y-89027000D01*
X185547000Y-90220155D01*
X185776890Y-90341476D01*
X185924099Y-90296825D01*
X186186920Y-90171641D01*
X186420269Y-89997588D01*
X186615178Y-89781355D01*
X186764157Y-89531252D01*
X186861481Y-89256891D01*
X186740814Y-89027000D01*
X185547000Y-89027000D01*
X185293000Y-89027000D01*
X185273000Y-89027000D01*
X185273000Y-88773000D01*
X185293000Y-88773000D01*
X185293000Y-87579845D01*
X185547000Y-87579845D01*
X185547000Y-88773000D01*
X186740814Y-88773000D01*
X186861481Y-88543109D01*
X186764157Y-88268748D01*
X186615178Y-88018645D01*
X186420269Y-87802412D01*
X186186920Y-87628359D01*
X185924099Y-87503175D01*
X185776890Y-87458524D01*
X185547000Y-87579845D01*
X185293000Y-87579845D01*
X185063110Y-87458524D01*
X184915901Y-87503175D01*
X184653080Y-87628359D01*
X184419731Y-87802412D01*
X184343966Y-87886466D01*
X184319502Y-87805820D01*
X184260537Y-87695506D01*
X184181185Y-87598815D01*
X184084494Y-87519463D01*
X183974180Y-87460498D01*
X183854482Y-87424188D01*
X183730000Y-87411928D01*
X182030000Y-87411928D01*
X181905518Y-87424188D01*
X181785820Y-87460498D01*
X181675506Y-87519463D01*
X181578815Y-87598815D01*
X181499463Y-87695506D01*
X181440498Y-87805820D01*
X181404188Y-87925518D01*
X181391928Y-88050000D01*
X181391928Y-88050730D01*
X181290256Y-87982795D01*
X181101898Y-87904774D01*
X180930831Y-87870747D01*
X186945043Y-81856536D01*
X186978809Y-81828825D01*
X187089403Y-81694067D01*
X187171581Y-81540321D01*
X187222187Y-81373498D01*
X187234992Y-81243485D01*
X187234992Y-81243475D01*
X187239273Y-81200009D01*
X187234992Y-81156543D01*
X187234992Y-74888462D01*
X187267197Y-74840264D01*
X187345218Y-74651906D01*
X187384992Y-74451947D01*
X187384992Y-74248069D01*
X187345218Y-74048110D01*
X187267197Y-73859752D01*
X187234992Y-73811554D01*
X187234992Y-68588454D01*
X187267197Y-68540256D01*
X187345218Y-68351898D01*
X187384992Y-68151939D01*
X187384992Y-67948061D01*
X187345218Y-67748102D01*
X187267197Y-67559744D01*
X187153929Y-67390226D01*
X187009766Y-67246063D01*
X186840248Y-67132795D01*
X186651890Y-67054774D01*
X186451931Y-67015000D01*
X186248053Y-67015000D01*
X186048094Y-67054774D01*
X185859736Y-67132795D01*
X185690218Y-67246063D01*
X185546055Y-67390226D01*
X185432787Y-67559744D01*
X185354766Y-67748102D01*
X185314992Y-67948061D01*
X185314992Y-68151939D01*
X185354766Y-68351898D01*
X185432787Y-68540256D01*
X185464993Y-68588456D01*
X185464992Y-73811554D01*
X185432787Y-73859752D01*
X185354766Y-74048110D01*
X185314992Y-74248069D01*
X185314992Y-74451947D01*
X185354766Y-74651906D01*
X185432787Y-74840264D01*
X185464993Y-74888464D01*
X185464992Y-80833429D01*
X178054952Y-88243470D01*
X178021184Y-88271183D01*
X177993471Y-88304951D01*
X177993468Y-88304954D01*
X177910590Y-88405941D01*
X177828412Y-88559687D01*
X177777805Y-88726510D01*
X177760719Y-88900000D01*
X177765001Y-88943479D01*
X177765000Y-89711545D01*
X177732795Y-89759744D01*
X177654774Y-89948102D01*
X177615000Y-90148061D01*
X177615000Y-90351939D01*
X177654774Y-90551898D01*
X177732795Y-90740256D01*
X177846063Y-90909774D01*
X177990226Y-91053937D01*
X178159744Y-91167205D01*
X178348102Y-91245226D01*
X178548061Y-91285000D01*
X178751939Y-91285000D01*
X178951898Y-91245226D01*
X179039468Y-91208953D01*
X175833422Y-94415000D01*
X170947295Y-94415000D01*
X170801898Y-94354774D01*
X170601939Y-94315000D01*
X170398061Y-94315000D01*
X170198102Y-94354774D01*
X170009744Y-94432795D01*
X169840226Y-94546063D01*
X169696063Y-94690226D01*
X169582795Y-94859744D01*
X169504774Y-95048102D01*
X169465000Y-95248061D01*
X168375000Y-95248061D01*
X168375000Y-95027000D01*
X167147000Y-95027000D01*
X166893000Y-95027000D01*
X166873000Y-95027000D01*
X166873000Y-94773000D01*
X166893000Y-94773000D01*
X166893000Y-93430511D01*
X167147000Y-93430511D01*
X167147000Y-94773000D01*
X168375000Y-94773000D01*
X168375000Y-94493000D01*
X168324188Y-94231093D01*
X168223256Y-93984131D01*
X168076084Y-93761605D01*
X167888327Y-93572067D01*
X167667201Y-93422801D01*
X167421203Y-93319542D01*
X167356472Y-93307441D01*
X167147000Y-93430511D01*
X166893000Y-93430511D01*
X166683528Y-93307441D01*
X166618797Y-93319542D01*
X166372799Y-93422801D01*
X166151673Y-93572067D01*
X165963916Y-93761605D01*
X165816744Y-93984131D01*
X165751505Y-94143759D01*
X165737914Y-94098955D01*
X165612092Y-93863560D01*
X165442764Y-93657235D01*
X165236439Y-93487908D01*
X165001044Y-93362086D01*
X164745625Y-93284606D01*
X164480000Y-93258444D01*
X164214374Y-93284606D01*
X163958955Y-93362086D01*
X163723560Y-93487908D01*
X163517235Y-93657236D01*
X163347908Y-93863561D01*
X163222086Y-94098956D01*
X163210000Y-94138798D01*
X163197914Y-94098955D01*
X163072092Y-93863560D01*
X162902764Y-93657235D01*
X162696439Y-93487908D01*
X162461044Y-93362086D01*
X162205625Y-93284606D01*
X161940000Y-93258444D01*
X161674374Y-93284606D01*
X161418955Y-93362086D01*
X161183560Y-93487908D01*
X160977235Y-93657236D01*
X160807908Y-93863561D01*
X160682086Y-94098956D01*
X160670000Y-94138798D01*
X160657914Y-94098955D01*
X160532092Y-93863560D01*
X160362764Y-93657235D01*
X160156439Y-93487908D01*
X159921044Y-93362086D01*
X159665625Y-93284606D01*
X159400000Y-93258444D01*
X159134374Y-93284606D01*
X158878955Y-93362086D01*
X158643560Y-93487908D01*
X158437235Y-93657236D01*
X158267908Y-93863561D01*
X158142086Y-94098956D01*
X158130000Y-94138798D01*
X158117914Y-94098955D01*
X157992092Y-93863560D01*
X157822764Y-93657235D01*
X157616439Y-93487908D01*
X157381044Y-93362086D01*
X157125625Y-93284606D01*
X156860000Y-93258444D01*
X156594374Y-93284606D01*
X156338955Y-93362086D01*
X156103560Y-93487908D01*
X155897235Y-93657236D01*
X155727908Y-93863561D01*
X155602086Y-94098956D01*
X155590000Y-94138798D01*
X155577914Y-94098955D01*
X155452092Y-93863560D01*
X155282764Y-93657235D01*
X155076439Y-93487908D01*
X154841044Y-93362086D01*
X154585625Y-93284606D01*
X154320000Y-93258444D01*
X154054374Y-93284606D01*
X153798955Y-93362086D01*
X153563560Y-93487908D01*
X153357235Y-93657236D01*
X153187908Y-93863561D01*
X153062086Y-94098956D01*
X153050000Y-94138798D01*
X153037914Y-94098955D01*
X152912092Y-93863560D01*
X152742764Y-93657235D01*
X152536439Y-93487908D01*
X152301044Y-93362086D01*
X152045625Y-93284606D01*
X151780000Y-93258444D01*
X151514374Y-93284606D01*
X151258955Y-93362086D01*
X151023560Y-93487908D01*
X150817235Y-93657236D01*
X150647908Y-93863561D01*
X150522086Y-94098956D01*
X150510000Y-94138798D01*
X150497914Y-94098955D01*
X150372092Y-93863560D01*
X150202764Y-93657235D01*
X149996439Y-93487908D01*
X149761044Y-93362086D01*
X149505625Y-93284606D01*
X149240000Y-93258444D01*
X148974374Y-93284606D01*
X148718955Y-93362086D01*
X148483560Y-93487908D01*
X148277235Y-93657236D01*
X148107908Y-93863561D01*
X147982086Y-94098956D01*
X147970000Y-94138798D01*
X147957914Y-94098955D01*
X147832092Y-93863560D01*
X147662764Y-93657235D01*
X147456439Y-93487908D01*
X147221044Y-93362086D01*
X146965625Y-93284606D01*
X146700000Y-93258444D01*
X146434374Y-93284606D01*
X146178955Y-93362086D01*
X145943560Y-93487908D01*
X145737235Y-93657236D01*
X145567908Y-93863561D01*
X145442086Y-94098956D01*
X145430000Y-94138798D01*
X145417914Y-94098955D01*
X145292092Y-93863560D01*
X145122764Y-93657235D01*
X144916439Y-93487908D01*
X144681044Y-93362086D01*
X144425625Y-93284606D01*
X144160000Y-93258444D01*
X143894374Y-93284606D01*
X143638955Y-93362086D01*
X143403560Y-93487908D01*
X143197235Y-93657236D01*
X143027908Y-93863561D01*
X142902086Y-94098956D01*
X142890000Y-94138798D01*
X142877914Y-94098955D01*
X142752092Y-93863560D01*
X142582764Y-93657235D01*
X142376439Y-93487908D01*
X142141044Y-93362086D01*
X141885625Y-93284606D01*
X141620000Y-93258444D01*
X141354374Y-93284606D01*
X141098955Y-93362086D01*
X140863560Y-93487908D01*
X140657235Y-93657236D01*
X140487908Y-93863561D01*
X140362086Y-94098956D01*
X140350000Y-94138798D01*
X140337914Y-94098955D01*
X140212092Y-93863560D01*
X140042764Y-93657235D01*
X139836439Y-93487908D01*
X139601044Y-93362086D01*
X139345625Y-93284606D01*
X139080000Y-93258444D01*
X138814374Y-93284606D01*
X138558955Y-93362086D01*
X138323560Y-93487908D01*
X138117235Y-93657236D01*
X137947908Y-93863561D01*
X137822086Y-94098956D01*
X137810000Y-94138798D01*
X137797914Y-94098955D01*
X137672092Y-93863560D01*
X137502764Y-93657235D01*
X137296439Y-93487908D01*
X137061044Y-93362086D01*
X136805625Y-93284606D01*
X136540000Y-93258444D01*
X136274374Y-93284606D01*
X136018955Y-93362086D01*
X135783560Y-93487908D01*
X135577235Y-93657236D01*
X135407908Y-93863561D01*
X135358072Y-93956797D01*
X135358072Y-93900000D01*
X135345812Y-93775518D01*
X135309502Y-93655820D01*
X135250537Y-93545506D01*
X135171185Y-93448815D01*
X135074494Y-93369463D01*
X134964180Y-93310498D01*
X134844482Y-93274188D01*
X134720000Y-93261928D01*
X133280000Y-93261928D01*
X133155518Y-93274188D01*
X133035820Y-93310498D01*
X132925506Y-93369463D01*
X132828815Y-93448815D01*
X132749463Y-93545506D01*
X132690498Y-93655820D01*
X132654188Y-93775518D01*
X132641928Y-93900000D01*
X123660000Y-93900000D01*
X123660000Y-92128420D01*
X158465000Y-92128420D01*
X158465000Y-92312598D01*
X158500932Y-92493238D01*
X158571414Y-92663398D01*
X158673738Y-92816537D01*
X158803972Y-92946771D01*
X158957111Y-93049095D01*
X159127271Y-93119577D01*
X159307911Y-93155509D01*
X159492089Y-93155509D01*
X159672729Y-93119577D01*
X159842889Y-93049095D01*
X159976229Y-92960000D01*
X165104465Y-92960000D01*
X165207111Y-93028586D01*
X165377271Y-93099068D01*
X165557911Y-93135000D01*
X165742089Y-93135000D01*
X165922729Y-93099068D01*
X166092889Y-93028586D01*
X166246028Y-92926262D01*
X166376262Y-92796028D01*
X166478586Y-92642889D01*
X166549068Y-92472729D01*
X166585000Y-92292089D01*
X166585000Y-92107911D01*
X166549068Y-91927271D01*
X166478586Y-91757111D01*
X166412071Y-91657564D01*
X166498986Y-91649003D01*
X166642247Y-91605546D01*
X166774276Y-91534974D01*
X166890001Y-91440001D01*
X166904253Y-91422635D01*
X167022729Y-91399068D01*
X167192889Y-91328586D01*
X167346028Y-91226262D01*
X167476262Y-91096028D01*
X167578586Y-90942889D01*
X167649068Y-90772729D01*
X167685000Y-90592089D01*
X167685000Y-90407911D01*
X167649068Y-90227271D01*
X167578586Y-90057111D01*
X167476262Y-89903972D01*
X167346028Y-89773738D01*
X167192889Y-89671414D01*
X167022729Y-89600932D01*
X166842089Y-89565000D01*
X166657911Y-89565000D01*
X166477271Y-89600932D01*
X166307111Y-89671414D01*
X166153972Y-89773738D01*
X166023738Y-89903972D01*
X165921414Y-90057111D01*
X165887081Y-90140000D01*
X162495535Y-90140000D01*
X162392889Y-90071414D01*
X162222729Y-90000932D01*
X162042089Y-89965000D01*
X161857911Y-89965000D01*
X161677271Y-90000932D01*
X161507111Y-90071414D01*
X161353972Y-90173738D01*
X161223738Y-90303972D01*
X161121414Y-90457111D01*
X161050932Y-90627271D01*
X161015000Y-90807911D01*
X161015000Y-90992089D01*
X161050932Y-91172729D01*
X161121414Y-91342889D01*
X161186301Y-91440000D01*
X159914841Y-91440000D01*
X159842889Y-91391923D01*
X159672729Y-91321441D01*
X159492089Y-91285509D01*
X159307911Y-91285509D01*
X159127271Y-91321441D01*
X158957111Y-91391923D01*
X158803972Y-91494247D01*
X158673738Y-91624481D01*
X158571414Y-91777620D01*
X158500932Y-91947780D01*
X158465000Y-92128420D01*
X123660000Y-92128420D01*
X123660000Y-88607911D01*
X136365000Y-88607911D01*
X136365000Y-88792089D01*
X136400932Y-88972729D01*
X136471414Y-89142889D01*
X136573738Y-89296028D01*
X136703972Y-89426262D01*
X136857111Y-89528586D01*
X137027271Y-89599068D01*
X137104217Y-89614374D01*
X137867653Y-90377810D01*
X137892236Y-90407764D01*
X138011767Y-90505862D01*
X138143478Y-90576262D01*
X138148140Y-90578754D01*
X138296113Y-90623642D01*
X138371026Y-90631020D01*
X138411439Y-90635000D01*
X138411444Y-90635000D01*
X138450000Y-90638797D01*
X138488556Y-90635000D01*
X139741880Y-90635000D01*
X139807111Y-90678586D01*
X139977271Y-90749068D01*
X140157911Y-90785000D01*
X140342089Y-90785000D01*
X140522729Y-90749068D01*
X140692889Y-90678586D01*
X140846028Y-90576262D01*
X140976262Y-90446028D01*
X141078586Y-90292889D01*
X141149068Y-90122729D01*
X141185000Y-89942089D01*
X141185000Y-89757911D01*
X141149068Y-89577271D01*
X141078586Y-89407111D01*
X140976262Y-89253972D01*
X140846028Y-89123738D01*
X140692889Y-89021414D01*
X140522729Y-88950932D01*
X140342089Y-88915000D01*
X140157911Y-88915000D01*
X139977271Y-88950932D01*
X139807111Y-89021414D01*
X139741880Y-89065000D01*
X138775157Y-89065000D01*
X138214374Y-88504217D01*
X138199068Y-88427271D01*
X138128586Y-88257111D01*
X138026262Y-88103972D01*
X137896028Y-87973738D01*
X137742889Y-87871414D01*
X137589578Y-87807911D01*
X153165000Y-87807911D01*
X153165000Y-87992089D01*
X153200932Y-88172729D01*
X153271414Y-88342889D01*
X153373738Y-88496028D01*
X153503972Y-88626262D01*
X153657111Y-88728586D01*
X153827271Y-88799068D01*
X154007911Y-88835000D01*
X154192089Y-88835000D01*
X154372729Y-88799068D01*
X154542889Y-88728586D01*
X154608120Y-88685000D01*
X157191880Y-88685000D01*
X157257111Y-88728586D01*
X157427271Y-88799068D01*
X157607911Y-88835000D01*
X157792089Y-88835000D01*
X157972729Y-88799068D01*
X158142889Y-88728586D01*
X158296028Y-88626262D01*
X158426262Y-88496028D01*
X158528586Y-88342889D01*
X158599068Y-88172729D01*
X158635000Y-87992089D01*
X158635000Y-87807911D01*
X158599068Y-87627271D01*
X158528586Y-87457111D01*
X158426262Y-87303972D01*
X158296028Y-87173738D01*
X158142889Y-87071414D01*
X157972729Y-87000932D01*
X157792089Y-86965000D01*
X157607911Y-86965000D01*
X157427271Y-87000932D01*
X157257111Y-87071414D01*
X157191880Y-87115000D01*
X154608120Y-87115000D01*
X154542889Y-87071414D01*
X154372729Y-87000932D01*
X154192089Y-86965000D01*
X154007911Y-86965000D01*
X153827271Y-87000932D01*
X153657111Y-87071414D01*
X153503972Y-87173738D01*
X153373738Y-87303972D01*
X153271414Y-87457111D01*
X153200932Y-87627271D01*
X153165000Y-87807911D01*
X137589578Y-87807911D01*
X137572729Y-87800932D01*
X137392089Y-87765000D01*
X137207911Y-87765000D01*
X137027271Y-87800932D01*
X136857111Y-87871414D01*
X136703972Y-87973738D01*
X136573738Y-88103972D01*
X136471414Y-88257111D01*
X136400932Y-88427271D01*
X136365000Y-88607911D01*
X123660000Y-88607911D01*
X123660000Y-86307911D01*
X137865000Y-86307911D01*
X137865000Y-86492089D01*
X137900932Y-86672729D01*
X137971414Y-86842889D01*
X138073738Y-86996028D01*
X138203972Y-87126262D01*
X138357111Y-87228586D01*
X138527271Y-87299068D01*
X138707911Y-87335000D01*
X138892089Y-87335000D01*
X139072729Y-87299068D01*
X139242889Y-87228586D01*
X139396028Y-87126262D01*
X139487290Y-87035000D01*
X141291880Y-87035000D01*
X141357111Y-87078586D01*
X141527271Y-87149068D01*
X141707911Y-87185000D01*
X141892089Y-87185000D01*
X142072729Y-87149068D01*
X142242889Y-87078586D01*
X142396028Y-86976262D01*
X142526262Y-86846028D01*
X142628586Y-86692889D01*
X142699068Y-86522729D01*
X142735000Y-86342089D01*
X142735000Y-86157911D01*
X142699068Y-85977271D01*
X142649628Y-85857911D01*
X165465000Y-85857911D01*
X165465000Y-86042089D01*
X165500932Y-86222729D01*
X165571414Y-86392889D01*
X165673738Y-86546028D01*
X165803972Y-86676262D01*
X165957111Y-86778586D01*
X166127271Y-86849068D01*
X166204218Y-86864374D01*
X166317649Y-86977805D01*
X166342236Y-87007764D01*
X166461767Y-87105862D01*
X166588574Y-87173641D01*
X166598140Y-87178754D01*
X166746113Y-87223642D01*
X166821026Y-87231020D01*
X166861439Y-87235000D01*
X166861444Y-87235000D01*
X166900000Y-87238797D01*
X166938556Y-87235000D01*
X170791880Y-87235000D01*
X170857111Y-87278586D01*
X171027271Y-87349068D01*
X171207911Y-87385000D01*
X171392089Y-87385000D01*
X171572729Y-87349068D01*
X171742889Y-87278586D01*
X171896028Y-87176262D01*
X172026262Y-87046028D01*
X172128586Y-86892889D01*
X172199068Y-86722729D01*
X172235000Y-86542089D01*
X172235000Y-86357911D01*
X172199068Y-86177271D01*
X172128586Y-86007111D01*
X172026262Y-85853972D01*
X171896028Y-85723738D01*
X171742889Y-85621414D01*
X171572729Y-85550932D01*
X171392089Y-85515000D01*
X171207911Y-85515000D01*
X171027271Y-85550932D01*
X170857111Y-85621414D01*
X170791880Y-85665000D01*
X167293985Y-85665000D01*
X167228586Y-85507111D01*
X167126262Y-85353972D01*
X166996028Y-85223738D01*
X166842889Y-85121414D01*
X166672729Y-85050932D01*
X166492089Y-85015000D01*
X166307911Y-85015000D01*
X166127271Y-85050932D01*
X165957111Y-85121414D01*
X165803972Y-85223738D01*
X165673738Y-85353972D01*
X165571414Y-85507111D01*
X165500932Y-85677271D01*
X165465000Y-85857911D01*
X142649628Y-85857911D01*
X142628586Y-85807111D01*
X142526262Y-85653972D01*
X142396028Y-85523738D01*
X142242889Y-85421414D01*
X142072729Y-85350932D01*
X141892089Y-85315000D01*
X141707911Y-85315000D01*
X141527271Y-85350932D01*
X141357111Y-85421414D01*
X141291880Y-85465000D01*
X138988552Y-85465000D01*
X138949999Y-85461203D01*
X138911447Y-85465000D01*
X138911439Y-85465000D01*
X138898497Y-85466275D01*
X138892089Y-85465000D01*
X138707911Y-85465000D01*
X138527271Y-85500932D01*
X138357111Y-85571414D01*
X138203972Y-85673738D01*
X138073738Y-85803972D01*
X137971414Y-85957111D01*
X137900932Y-86127271D01*
X137865000Y-86307911D01*
X123660000Y-86307911D01*
X123660000Y-73278665D01*
X128485000Y-73278665D01*
X128485000Y-73561335D01*
X128540147Y-73838574D01*
X128648320Y-74099727D01*
X128805363Y-74334759D01*
X129005241Y-74534637D01*
X129240273Y-74691680D01*
X129501426Y-74799853D01*
X129778665Y-74855000D01*
X130061335Y-74855000D01*
X130338574Y-74799853D01*
X130599727Y-74691680D01*
X130834759Y-74534637D01*
X131034637Y-74334759D01*
X131190000Y-74102241D01*
X131345363Y-74334759D01*
X131545241Y-74534637D01*
X131780273Y-74691680D01*
X132041426Y-74799853D01*
X132318665Y-74855000D01*
X132601335Y-74855000D01*
X132878574Y-74799853D01*
X133139727Y-74691680D01*
X133374759Y-74534637D01*
X133574637Y-74334759D01*
X133730000Y-74102241D01*
X133885363Y-74334759D01*
X134085241Y-74534637D01*
X134320273Y-74691680D01*
X134581426Y-74799853D01*
X134858665Y-74855000D01*
X135141335Y-74855000D01*
X135418574Y-74799853D01*
X135679727Y-74691680D01*
X135914759Y-74534637D01*
X136114637Y-74334759D01*
X136270000Y-74102241D01*
X136425363Y-74334759D01*
X136625241Y-74534637D01*
X136732518Y-74606317D01*
X136659686Y-74628411D01*
X136505941Y-74710589D01*
X136404953Y-74793468D01*
X136404951Y-74793470D01*
X136371183Y-74821183D01*
X136343470Y-74854951D01*
X133404951Y-77793471D01*
X133371184Y-77821183D01*
X133343471Y-77854951D01*
X133343468Y-77854954D01*
X133260590Y-77955941D01*
X133178412Y-78109687D01*
X133127805Y-78276510D01*
X133120691Y-78348745D01*
X133037235Y-78417236D01*
X132867908Y-78623561D01*
X132819033Y-78715000D01*
X132180167Y-78715000D01*
X132079497Y-78632382D01*
X131930283Y-78552625D01*
X131768377Y-78503512D01*
X131600000Y-78486928D01*
X131150000Y-78486928D01*
X130981623Y-78503512D01*
X130819717Y-78552625D01*
X130670503Y-78632382D01*
X130539716Y-78739716D01*
X130432382Y-78870503D01*
X130352625Y-79019717D01*
X130303512Y-79181623D01*
X130286928Y-79350000D01*
X130286928Y-79850000D01*
X130303512Y-80018377D01*
X130352625Y-80180283D01*
X130432382Y-80329497D01*
X130539716Y-80460284D01*
X130670503Y-80567618D01*
X130819717Y-80647375D01*
X130981623Y-80696488D01*
X131150000Y-80713072D01*
X131600000Y-80713072D01*
X131768377Y-80696488D01*
X131930283Y-80647375D01*
X132079497Y-80567618D01*
X132180167Y-80485000D01*
X132754890Y-80485000D01*
X132867908Y-80696440D01*
X133037236Y-80902765D01*
X133243561Y-81072092D01*
X133478956Y-81197914D01*
X133734375Y-81275394D01*
X134000000Y-81301556D01*
X134265626Y-81275394D01*
X134521045Y-81197914D01*
X134756440Y-81072092D01*
X134962765Y-80902765D01*
X135132092Y-80696440D01*
X135257914Y-80461045D01*
X135270000Y-80421202D01*
X135282086Y-80461045D01*
X135407908Y-80696440D01*
X135577236Y-80902765D01*
X135783561Y-81072092D01*
X136018956Y-81197914D01*
X136274375Y-81275394D01*
X136540000Y-81301556D01*
X136805626Y-81275394D01*
X137061045Y-81197914D01*
X137296440Y-81072092D01*
X137502765Y-80902765D01*
X137672092Y-80696440D01*
X137797914Y-80461045D01*
X137810000Y-80421202D01*
X137822086Y-80461045D01*
X137947908Y-80696440D01*
X138117236Y-80902765D01*
X138323561Y-81072092D01*
X138558956Y-81197914D01*
X138814375Y-81275394D01*
X139080000Y-81301556D01*
X139345626Y-81275394D01*
X139601045Y-81197914D01*
X139836440Y-81072092D01*
X140042765Y-80902765D01*
X140212092Y-80696440D01*
X140337914Y-80461045D01*
X140350000Y-80421202D01*
X140362086Y-80461045D01*
X140487908Y-80696440D01*
X140657236Y-80902765D01*
X140863561Y-81072092D01*
X141098956Y-81197914D01*
X141354375Y-81275394D01*
X141620000Y-81301556D01*
X141885626Y-81275394D01*
X142141045Y-81197914D01*
X142376440Y-81072092D01*
X142582765Y-80902765D01*
X142752092Y-80696440D01*
X142877914Y-80461045D01*
X142890000Y-80421202D01*
X142902086Y-80461045D01*
X143027908Y-80696440D01*
X143197236Y-80902765D01*
X143403561Y-81072092D01*
X143638956Y-81197914D01*
X143894375Y-81275394D01*
X144160000Y-81301556D01*
X144425626Y-81275394D01*
X144681045Y-81197914D01*
X144916440Y-81072092D01*
X145122765Y-80902765D01*
X145292092Y-80696440D01*
X145417914Y-80461045D01*
X145430000Y-80421202D01*
X145442086Y-80461045D01*
X145567908Y-80696440D01*
X145737236Y-80902765D01*
X145943561Y-81072092D01*
X146178956Y-81197914D01*
X146434375Y-81275394D01*
X146700000Y-81301556D01*
X146965626Y-81275394D01*
X147221045Y-81197914D01*
X147456440Y-81072092D01*
X147662765Y-80902765D01*
X147832092Y-80696440D01*
X147957914Y-80461045D01*
X147970000Y-80421202D01*
X147982086Y-80461045D01*
X148107908Y-80696440D01*
X148277236Y-80902765D01*
X148483561Y-81072092D01*
X148718956Y-81197914D01*
X148974375Y-81275394D01*
X149240000Y-81301556D01*
X149505626Y-81275394D01*
X149761045Y-81197914D01*
X149996440Y-81072092D01*
X150202765Y-80902765D01*
X150372092Y-80696440D01*
X150497914Y-80461045D01*
X150510000Y-80421202D01*
X150522086Y-80461045D01*
X150647908Y-80696440D01*
X150817236Y-80902765D01*
X151023561Y-81072092D01*
X151258956Y-81197914D01*
X151514375Y-81275394D01*
X151780000Y-81301556D01*
X152045626Y-81275394D01*
X152301045Y-81197914D01*
X152536440Y-81072092D01*
X152742765Y-80902765D01*
X152912092Y-80696440D01*
X153037914Y-80461045D01*
X153050000Y-80421202D01*
X153062086Y-80461045D01*
X153187908Y-80696440D01*
X153357236Y-80902765D01*
X153563561Y-81072092D01*
X153798956Y-81197914D01*
X154054375Y-81275394D01*
X154320000Y-81301556D01*
X154585626Y-81275394D01*
X154841045Y-81197914D01*
X155076440Y-81072092D01*
X155282765Y-80902765D01*
X155452092Y-80696440D01*
X155577914Y-80461045D01*
X155590000Y-80421202D01*
X155602086Y-80461045D01*
X155727908Y-80696440D01*
X155897236Y-80902765D01*
X156103561Y-81072092D01*
X156338956Y-81197914D01*
X156594375Y-81275394D01*
X156860000Y-81301556D01*
X157125626Y-81275394D01*
X157381045Y-81197914D01*
X157616440Y-81072092D01*
X157822765Y-80902765D01*
X157992092Y-80696440D01*
X158117914Y-80461045D01*
X158130000Y-80421202D01*
X158142086Y-80461045D01*
X158267908Y-80696440D01*
X158437236Y-80902765D01*
X158643561Y-81072092D01*
X158878956Y-81197914D01*
X159134375Y-81275394D01*
X159400000Y-81301556D01*
X159665626Y-81275394D01*
X159921045Y-81197914D01*
X160156440Y-81072092D01*
X160362765Y-80902765D01*
X160532092Y-80696440D01*
X160657914Y-80461045D01*
X160670000Y-80421202D01*
X160682086Y-80461045D01*
X160807908Y-80696440D01*
X160977236Y-80902765D01*
X161183561Y-81072092D01*
X161418956Y-81197914D01*
X161674375Y-81275394D01*
X161940000Y-81301556D01*
X162205626Y-81275394D01*
X162461045Y-81197914D01*
X162696440Y-81072092D01*
X162902765Y-80902765D01*
X163072092Y-80696440D01*
X163197914Y-80461045D01*
X163210000Y-80421202D01*
X163222086Y-80461045D01*
X163347908Y-80696440D01*
X163517236Y-80902765D01*
X163723561Y-81072092D01*
X163958956Y-81197914D01*
X164214375Y-81275394D01*
X164480000Y-81301556D01*
X164745626Y-81275394D01*
X165001045Y-81197914D01*
X165236440Y-81072092D01*
X165442765Y-80902765D01*
X165612092Y-80696440D01*
X165737914Y-80461045D01*
X165750000Y-80421202D01*
X165762086Y-80461045D01*
X165887908Y-80696440D01*
X166057236Y-80902765D01*
X166263561Y-81072092D01*
X166498956Y-81197914D01*
X166754375Y-81275394D01*
X167020000Y-81301556D01*
X167285626Y-81275394D01*
X167541045Y-81197914D01*
X167776440Y-81072092D01*
X167982765Y-80902765D01*
X168152092Y-80696440D01*
X168277914Y-80461045D01*
X168355394Y-80205625D01*
X168375000Y-80006563D01*
X168375000Y-79313436D01*
X168355394Y-79114374D01*
X168277914Y-78858955D01*
X168152092Y-78623560D01*
X167982764Y-78417235D01*
X167776439Y-78247908D01*
X167541044Y-78122086D01*
X167285625Y-78044606D01*
X167020000Y-78018444D01*
X166754374Y-78044606D01*
X166498955Y-78122086D01*
X166263560Y-78247908D01*
X166057235Y-78417236D01*
X165887908Y-78623561D01*
X165762086Y-78858956D01*
X165750000Y-78898798D01*
X165737914Y-78858955D01*
X165612092Y-78623560D01*
X165442764Y-78417235D01*
X165236439Y-78247908D01*
X165001044Y-78122086D01*
X164745625Y-78044606D01*
X164480000Y-78018444D01*
X164214374Y-78044606D01*
X163958955Y-78122086D01*
X163723560Y-78247908D01*
X163517235Y-78417236D01*
X163347908Y-78623561D01*
X163222086Y-78858956D01*
X163210000Y-78898798D01*
X163197914Y-78858955D01*
X163072092Y-78623560D01*
X162902764Y-78417235D01*
X162696439Y-78247908D01*
X162461044Y-78122086D01*
X162205625Y-78044606D01*
X161940000Y-78018444D01*
X161674374Y-78044606D01*
X161418955Y-78122086D01*
X161183560Y-78247908D01*
X160977235Y-78417236D01*
X160807908Y-78623561D01*
X160682086Y-78858956D01*
X160670000Y-78898798D01*
X160657914Y-78858955D01*
X160532092Y-78623560D01*
X160362764Y-78417235D01*
X160156439Y-78247908D01*
X159921044Y-78122086D01*
X159665625Y-78044606D01*
X159400000Y-78018444D01*
X159134374Y-78044606D01*
X158878955Y-78122086D01*
X158643560Y-78247908D01*
X158437235Y-78417236D01*
X158267908Y-78623561D01*
X158142086Y-78858956D01*
X158130000Y-78898798D01*
X158117914Y-78858955D01*
X157992092Y-78623560D01*
X157822764Y-78417235D01*
X157616439Y-78247908D01*
X157381044Y-78122086D01*
X157125625Y-78044606D01*
X156860000Y-78018444D01*
X156594374Y-78044606D01*
X156338955Y-78122086D01*
X156103560Y-78247908D01*
X155897235Y-78417236D01*
X155727908Y-78623561D01*
X155602086Y-78858956D01*
X155590000Y-78898798D01*
X155577914Y-78858955D01*
X155452092Y-78623560D01*
X155282764Y-78417235D01*
X155076439Y-78247908D01*
X154841044Y-78122086D01*
X154585625Y-78044606D01*
X154320000Y-78018444D01*
X154054374Y-78044606D01*
X153798955Y-78122086D01*
X153563560Y-78247908D01*
X153357235Y-78417236D01*
X153187908Y-78623561D01*
X153062086Y-78858956D01*
X153050000Y-78898798D01*
X153037914Y-78858955D01*
X152912092Y-78623560D01*
X152742764Y-78417235D01*
X152536439Y-78247908D01*
X152301044Y-78122086D01*
X152045625Y-78044606D01*
X151780000Y-78018444D01*
X151514374Y-78044606D01*
X151258955Y-78122086D01*
X151143137Y-78183992D01*
X151153802Y-78170997D01*
X153301649Y-76023151D01*
X153422729Y-75999066D01*
X153592889Y-75928584D01*
X153746028Y-75826260D01*
X153876262Y-75696026D01*
X153978586Y-75542887D01*
X154049068Y-75372727D01*
X154085000Y-75192087D01*
X154085000Y-75007909D01*
X154049068Y-74827269D01*
X153978586Y-74657109D01*
X153876262Y-74503970D01*
X153746028Y-74373736D01*
X153592889Y-74271412D01*
X153422729Y-74200930D01*
X153242089Y-74164998D01*
X153057911Y-74164998D01*
X152877271Y-74200930D01*
X152707111Y-74271412D01*
X152553972Y-74373736D01*
X152423738Y-74503970D01*
X152321414Y-74657109D01*
X152250932Y-74827269D01*
X152226847Y-74948349D01*
X150275197Y-76900000D01*
X147863535Y-76900000D01*
X147885000Y-76792089D01*
X147885000Y-76607911D01*
X147849068Y-76427271D01*
X147778586Y-76257111D01*
X147676262Y-76103972D01*
X147546028Y-75973738D01*
X147392889Y-75871414D01*
X147222729Y-75800932D01*
X147079197Y-75772381D01*
X148035127Y-74816452D01*
X148118574Y-74799853D01*
X148379727Y-74691680D01*
X148614759Y-74534637D01*
X148814637Y-74334759D01*
X148971680Y-74099727D01*
X149079853Y-73838574D01*
X149135000Y-73561335D01*
X149135000Y-73278665D01*
X149079853Y-73001426D01*
X148971680Y-72740273D01*
X148814637Y-72505241D01*
X148614759Y-72305363D01*
X148379727Y-72148320D01*
X148118574Y-72040147D01*
X147841335Y-71985000D01*
X147558665Y-71985000D01*
X147281426Y-72040147D01*
X147020273Y-72148320D01*
X146785241Y-72305363D01*
X146585363Y-72505241D01*
X146430000Y-72737759D01*
X146274637Y-72505241D01*
X146074759Y-72305363D01*
X145839727Y-72148320D01*
X145578574Y-72040147D01*
X145301335Y-71985000D01*
X145018665Y-71985000D01*
X144741426Y-72040147D01*
X144480273Y-72148320D01*
X144245241Y-72305363D01*
X144045363Y-72505241D01*
X143890000Y-72737759D01*
X143734637Y-72505241D01*
X143534759Y-72305363D01*
X143299727Y-72148320D01*
X143038574Y-72040147D01*
X142761335Y-71985000D01*
X142478665Y-71985000D01*
X142201426Y-72040147D01*
X141940273Y-72148320D01*
X141705241Y-72305363D01*
X141505363Y-72505241D01*
X141348320Y-72740273D01*
X141343933Y-72750865D01*
X141232385Y-72564869D01*
X141043414Y-72356481D01*
X140817420Y-72188963D01*
X140563087Y-72068754D01*
X140429039Y-72028096D01*
X140207000Y-72150085D01*
X140207000Y-73293000D01*
X140227000Y-73293000D01*
X140227000Y-73547000D01*
X140207000Y-73547000D01*
X140207000Y-73567000D01*
X139953000Y-73567000D01*
X139953000Y-73547000D01*
X139933000Y-73547000D01*
X139933000Y-73293000D01*
X139953000Y-73293000D01*
X139953000Y-72150085D01*
X139730961Y-72028096D01*
X139596913Y-72068754D01*
X139342580Y-72188963D01*
X139116586Y-72356481D01*
X138927615Y-72564869D01*
X138816067Y-72750865D01*
X138811680Y-72740273D01*
X138654637Y-72505241D01*
X138454759Y-72305363D01*
X138219727Y-72148320D01*
X137958574Y-72040147D01*
X137681335Y-71985000D01*
X137398665Y-71985000D01*
X137121426Y-72040147D01*
X136860273Y-72148320D01*
X136625241Y-72305363D01*
X136425363Y-72505241D01*
X136270000Y-72737759D01*
X136114637Y-72505241D01*
X135914759Y-72305363D01*
X135679727Y-72148320D01*
X135418574Y-72040147D01*
X135141335Y-71985000D01*
X134858665Y-71985000D01*
X134581426Y-72040147D01*
X134320273Y-72148320D01*
X134085241Y-72305363D01*
X133885363Y-72505241D01*
X133730000Y-72737759D01*
X133574637Y-72505241D01*
X133374759Y-72305363D01*
X133139727Y-72148320D01*
X132878574Y-72040147D01*
X132601335Y-71985000D01*
X132318665Y-71985000D01*
X132041426Y-72040147D01*
X131780273Y-72148320D01*
X131545241Y-72305363D01*
X131345363Y-72505241D01*
X131190000Y-72737759D01*
X131034637Y-72505241D01*
X130834759Y-72305363D01*
X130599727Y-72148320D01*
X130338574Y-72040147D01*
X130061335Y-71985000D01*
X129778665Y-71985000D01*
X129501426Y-72040147D01*
X129240273Y-72148320D01*
X129005241Y-72305363D01*
X128805363Y-72505241D01*
X128648320Y-72740273D01*
X128540147Y-73001426D01*
X128485000Y-73278665D01*
X123660000Y-73278665D01*
X123660000Y-71407911D01*
X151815000Y-71407911D01*
X151815000Y-71592089D01*
X151850932Y-71772729D01*
X151921414Y-71942889D01*
X152023738Y-72096028D01*
X152153972Y-72226262D01*
X152307111Y-72328586D01*
X152477271Y-72399068D01*
X152657911Y-72435000D01*
X152842089Y-72435000D01*
X153022729Y-72399068D01*
X153192889Y-72328586D01*
X153258120Y-72285000D01*
X168824843Y-72285000D01*
X177217658Y-80677816D01*
X177242236Y-80707764D01*
X177272184Y-80732342D01*
X177272187Y-80732345D01*
X177288860Y-80746028D01*
X177361767Y-80805862D01*
X177498140Y-80878754D01*
X177611672Y-80913194D01*
X177646112Y-80923641D01*
X177660490Y-80925057D01*
X177761439Y-80935000D01*
X177761446Y-80935000D01*
X177799999Y-80938797D01*
X177838552Y-80935000D01*
X180791880Y-80935000D01*
X180857111Y-80978586D01*
X181027271Y-81049068D01*
X181207911Y-81085000D01*
X181392089Y-81085000D01*
X181572729Y-81049068D01*
X181742889Y-80978586D01*
X181896028Y-80876262D01*
X182026262Y-80746028D01*
X182128586Y-80592889D01*
X182199068Y-80422729D01*
X182235000Y-80242089D01*
X182235000Y-80057911D01*
X182199068Y-79877271D01*
X182128586Y-79707111D01*
X182026262Y-79553972D01*
X181896028Y-79423738D01*
X181742889Y-79321414D01*
X181572729Y-79250932D01*
X181392089Y-79215000D01*
X181207911Y-79215000D01*
X181027271Y-79250932D01*
X180857111Y-79321414D01*
X180791880Y-79365000D01*
X178125158Y-79365000D01*
X169732347Y-70972190D01*
X169707764Y-70942236D01*
X169588233Y-70844138D01*
X169451860Y-70771246D01*
X169303887Y-70726359D01*
X169188561Y-70715000D01*
X169188553Y-70715000D01*
X169150000Y-70711203D01*
X169111447Y-70715000D01*
X153258120Y-70715000D01*
X153192889Y-70671414D01*
X153022729Y-70600932D01*
X152842089Y-70565000D01*
X152657911Y-70565000D01*
X152477271Y-70600932D01*
X152307111Y-70671414D01*
X152153972Y-70773738D01*
X152023738Y-70903972D01*
X151921414Y-71057111D01*
X151850932Y-71227271D01*
X151815000Y-71407911D01*
X123660000Y-71407911D01*
X123660000Y-66149040D01*
X128528091Y-66149040D01*
X128622930Y-66413881D01*
X128767615Y-66655131D01*
X128956586Y-66863519D01*
X129182580Y-67031037D01*
X129436913Y-67151246D01*
X129570961Y-67191904D01*
X129793000Y-67069915D01*
X129793000Y-65927000D01*
X128649376Y-65927000D01*
X128528091Y-66149040D01*
X123660000Y-66149040D01*
X123660000Y-65450960D01*
X128528091Y-65450960D01*
X128649376Y-65673000D01*
X129793000Y-65673000D01*
X129793000Y-64530085D01*
X130047000Y-64530085D01*
X130047000Y-65673000D01*
X130067000Y-65673000D01*
X130067000Y-65927000D01*
X130047000Y-65927000D01*
X130047000Y-67069915D01*
X130269039Y-67191904D01*
X130403087Y-67151246D01*
X130657420Y-67031037D01*
X130883414Y-66863519D01*
X131072385Y-66655131D01*
X131183933Y-66469135D01*
X131188320Y-66479727D01*
X131345363Y-66714759D01*
X131545241Y-66914637D01*
X131780273Y-67071680D01*
X132041426Y-67179853D01*
X132318665Y-67235000D01*
X132601335Y-67235000D01*
X132878574Y-67179853D01*
X133139727Y-67071680D01*
X133374759Y-66914637D01*
X133574637Y-66714759D01*
X133730000Y-66482241D01*
X133885363Y-66714759D01*
X134085241Y-66914637D01*
X134320273Y-67071680D01*
X134581426Y-67179853D01*
X134858665Y-67235000D01*
X135141335Y-67235000D01*
X135418574Y-67179853D01*
X135679727Y-67071680D01*
X135914759Y-66914637D01*
X136114637Y-66714759D01*
X136270000Y-66482241D01*
X136425363Y-66714759D01*
X136625241Y-66914637D01*
X136860273Y-67071680D01*
X137121426Y-67179853D01*
X137398665Y-67235000D01*
X137681335Y-67235000D01*
X137958574Y-67179853D01*
X138219727Y-67071680D01*
X138454759Y-66914637D01*
X138654637Y-66714759D01*
X138810000Y-66482241D01*
X138965363Y-66714759D01*
X139165241Y-66914637D01*
X139400273Y-67071680D01*
X139661426Y-67179853D01*
X139938665Y-67235000D01*
X140221335Y-67235000D01*
X140498574Y-67179853D01*
X140759727Y-67071680D01*
X140994759Y-66914637D01*
X141194637Y-66714759D01*
X141350000Y-66482241D01*
X141505363Y-66714759D01*
X141705241Y-66914637D01*
X141940273Y-67071680D01*
X142201426Y-67179853D01*
X142478665Y-67235000D01*
X142761335Y-67235000D01*
X143038574Y-67179853D01*
X143299727Y-67071680D01*
X143534759Y-66914637D01*
X143734637Y-66714759D01*
X143890000Y-66482241D01*
X144045363Y-66714759D01*
X144245241Y-66914637D01*
X144480273Y-67071680D01*
X144741426Y-67179853D01*
X145018665Y-67235000D01*
X145301335Y-67235000D01*
X145530030Y-67189509D01*
X145403972Y-67273738D01*
X145273738Y-67403972D01*
X145171414Y-67557111D01*
X145100932Y-67727271D01*
X145065000Y-67907911D01*
X145065000Y-68092089D01*
X145100932Y-68272729D01*
X145171414Y-68442889D01*
X145273738Y-68596028D01*
X145403972Y-68726262D01*
X145557111Y-68828586D01*
X145727271Y-68899068D01*
X145907911Y-68935000D01*
X146092089Y-68935000D01*
X146272729Y-68899068D01*
X146442889Y-68828586D01*
X146545535Y-68760000D01*
X147287710Y-68760000D01*
X147303972Y-68776262D01*
X147457111Y-68878586D01*
X147627271Y-68949068D01*
X147807911Y-68985000D01*
X147992089Y-68985000D01*
X148172729Y-68949068D01*
X148342889Y-68878586D01*
X148496028Y-68776262D01*
X148524229Y-68748061D01*
X159715000Y-68748061D01*
X159715000Y-68951939D01*
X159754774Y-69151898D01*
X159832795Y-69340256D01*
X159946063Y-69509774D01*
X160090226Y-69653937D01*
X160259744Y-69767205D01*
X160448102Y-69845226D01*
X160648061Y-69885000D01*
X160851939Y-69885000D01*
X161051898Y-69845226D01*
X161240256Y-69767205D01*
X161363285Y-69685000D01*
X181208982Y-69685000D01*
X181250000Y-69689040D01*
X181291018Y-69685000D01*
X181291019Y-69685000D01*
X181413689Y-69672918D01*
X181571087Y-69625172D01*
X181716146Y-69547636D01*
X181843291Y-69443291D01*
X181869446Y-69411421D01*
X184556776Y-66724092D01*
X184701898Y-66695226D01*
X184890256Y-66617205D01*
X185059774Y-66503937D01*
X185203937Y-66359774D01*
X185317205Y-66190256D01*
X185395226Y-66001898D01*
X185435000Y-65801939D01*
X185435000Y-65598061D01*
X185395226Y-65398102D01*
X185317205Y-65209744D01*
X185203937Y-65040226D01*
X185059774Y-64896063D01*
X184890256Y-64782795D01*
X184701898Y-64704774D01*
X184501939Y-64665000D01*
X184298061Y-64665000D01*
X184098102Y-64704774D01*
X183909744Y-64782795D01*
X183740226Y-64896063D01*
X183596063Y-65040226D01*
X183482795Y-65209744D01*
X183404774Y-65398102D01*
X183375908Y-65543224D01*
X180904133Y-68015000D01*
X161363285Y-68015000D01*
X161240256Y-67932795D01*
X161051898Y-67854774D01*
X160851939Y-67815000D01*
X160648061Y-67815000D01*
X160448102Y-67854774D01*
X160259744Y-67932795D01*
X160090226Y-68046063D01*
X159946063Y-68190226D01*
X159832795Y-68359744D01*
X159754774Y-68548102D01*
X159715000Y-68748061D01*
X148524229Y-68748061D01*
X148626262Y-68646028D01*
X148728586Y-68492889D01*
X148799068Y-68322729D01*
X148835000Y-68142089D01*
X148835000Y-67957911D01*
X148799068Y-67777271D01*
X148728586Y-67607111D01*
X148626262Y-67453972D01*
X148496028Y-67323738D01*
X148367820Y-67238072D01*
X148500000Y-67238072D01*
X148624482Y-67225812D01*
X148744180Y-67189502D01*
X148854494Y-67130537D01*
X148951185Y-67051185D01*
X149030537Y-66954494D01*
X149089502Y-66844180D01*
X149125812Y-66724482D01*
X149138072Y-66600000D01*
X149138072Y-65000000D01*
X149125812Y-64875518D01*
X149089502Y-64755820D01*
X149030537Y-64645506D01*
X148951185Y-64548815D01*
X148854494Y-64469463D01*
X148744180Y-64410498D01*
X148624482Y-64374188D01*
X148500000Y-64361928D01*
X146900000Y-64361928D01*
X146775518Y-64374188D01*
X146655820Y-64410498D01*
X146545506Y-64469463D01*
X146448815Y-64548815D01*
X146369463Y-64645506D01*
X146310498Y-64755820D01*
X146274188Y-64875518D01*
X146273357Y-64883961D01*
X146074759Y-64685363D01*
X145839727Y-64528320D01*
X145578574Y-64420147D01*
X145301335Y-64365000D01*
X145018665Y-64365000D01*
X144741426Y-64420147D01*
X144480273Y-64528320D01*
X144245241Y-64685363D01*
X144045363Y-64885241D01*
X143890000Y-65117759D01*
X143734637Y-64885241D01*
X143534759Y-64685363D01*
X143299727Y-64528320D01*
X143038574Y-64420147D01*
X142761335Y-64365000D01*
X142478665Y-64365000D01*
X142201426Y-64420147D01*
X141940273Y-64528320D01*
X141705241Y-64685363D01*
X141505363Y-64885241D01*
X141350000Y-65117759D01*
X141194637Y-64885241D01*
X140994759Y-64685363D01*
X140759727Y-64528320D01*
X140498574Y-64420147D01*
X140221335Y-64365000D01*
X139938665Y-64365000D01*
X139661426Y-64420147D01*
X139400273Y-64528320D01*
X139165241Y-64685363D01*
X138965363Y-64885241D01*
X138810000Y-65117759D01*
X138654637Y-64885241D01*
X138454759Y-64685363D01*
X138219727Y-64528320D01*
X137958574Y-64420147D01*
X137681335Y-64365000D01*
X137398665Y-64365000D01*
X137121426Y-64420147D01*
X136860273Y-64528320D01*
X136625241Y-64685363D01*
X136425363Y-64885241D01*
X136270000Y-65117759D01*
X136114637Y-64885241D01*
X135914759Y-64685363D01*
X135679727Y-64528320D01*
X135418574Y-64420147D01*
X135141335Y-64365000D01*
X134858665Y-64365000D01*
X134581426Y-64420147D01*
X134320273Y-64528320D01*
X134085241Y-64685363D01*
X133885363Y-64885241D01*
X133730000Y-65117759D01*
X133574637Y-64885241D01*
X133374759Y-64685363D01*
X133139727Y-64528320D01*
X132878574Y-64420147D01*
X132601335Y-64365000D01*
X132318665Y-64365000D01*
X132041426Y-64420147D01*
X131780273Y-64528320D01*
X131545241Y-64685363D01*
X131345363Y-64885241D01*
X131188320Y-65120273D01*
X131183933Y-65130865D01*
X131072385Y-64944869D01*
X130883414Y-64736481D01*
X130657420Y-64568963D01*
X130403087Y-64448754D01*
X130269039Y-64408096D01*
X130047000Y-64530085D01*
X129793000Y-64530085D01*
X129570961Y-64408096D01*
X129436913Y-64448754D01*
X129182580Y-64568963D01*
X128956586Y-64736481D01*
X128767615Y-64944869D01*
X128622930Y-65186119D01*
X128528091Y-65450960D01*
X123660000Y-65450960D01*
X123660000Y-62702401D01*
X129617400Y-62702401D01*
X129617400Y-62997599D01*
X129674990Y-63287125D01*
X129787958Y-63559853D01*
X129951961Y-63805302D01*
X130160698Y-64014039D01*
X130406147Y-64178042D01*
X130678875Y-64291010D01*
X130968401Y-64348600D01*
X131263599Y-64348600D01*
X131553125Y-64291010D01*
X131825853Y-64178042D01*
X132071302Y-64014039D01*
X132280039Y-63805302D01*
X132386000Y-63646719D01*
X132491961Y-63805302D01*
X132700698Y-64014039D01*
X132946147Y-64178042D01*
X133218875Y-64291010D01*
X133508401Y-64348600D01*
X133803599Y-64348600D01*
X134093125Y-64291010D01*
X134365853Y-64178042D01*
X134611302Y-64014039D01*
X134820039Y-63805302D01*
X134926000Y-63646719D01*
X135031961Y-63805302D01*
X135240698Y-64014039D01*
X135486147Y-64178042D01*
X135758875Y-64291010D01*
X136048401Y-64348600D01*
X136343599Y-64348600D01*
X136633125Y-64291010D01*
X136905853Y-64178042D01*
X137151302Y-64014039D01*
X137360039Y-63805302D01*
X137467692Y-63644187D01*
X137629146Y-63860293D01*
X137847512Y-64056817D01*
X138100022Y-64206964D01*
X138376973Y-64304963D01*
X138609000Y-64184464D01*
X138609000Y-62977000D01*
X138589000Y-62977000D01*
X138589000Y-62723000D01*
X138609000Y-62723000D01*
X138609000Y-61515536D01*
X138863000Y-61515536D01*
X138863000Y-62723000D01*
X138883000Y-62723000D01*
X138883000Y-62977000D01*
X138863000Y-62977000D01*
X138863000Y-64184464D01*
X139095027Y-64304963D01*
X139371978Y-64206964D01*
X139624488Y-64056817D01*
X139842854Y-63860293D01*
X140004308Y-63644187D01*
X140111961Y-63805302D01*
X140320698Y-64014039D01*
X140566147Y-64178042D01*
X140838875Y-64291010D01*
X141128401Y-64348600D01*
X141423599Y-64348600D01*
X141713125Y-64291010D01*
X141985853Y-64178042D01*
X142231302Y-64014039D01*
X142440039Y-63805302D01*
X142546000Y-63646719D01*
X142651961Y-63805302D01*
X142860698Y-64014039D01*
X143106147Y-64178042D01*
X143378875Y-64291010D01*
X143668401Y-64348600D01*
X143963599Y-64348600D01*
X144253125Y-64291010D01*
X144525853Y-64178042D01*
X144771302Y-64014039D01*
X144980039Y-63805302D01*
X145086000Y-63646719D01*
X145191961Y-63805302D01*
X145400698Y-64014039D01*
X145646147Y-64178042D01*
X145918875Y-64291010D01*
X146208401Y-64348600D01*
X146503599Y-64348600D01*
X146793125Y-64291010D01*
X147065853Y-64178042D01*
X147311302Y-64014039D01*
X147520039Y-63805302D01*
X147626000Y-63646719D01*
X147731961Y-63805302D01*
X147940698Y-64014039D01*
X148186147Y-64178042D01*
X148458875Y-64291010D01*
X148748401Y-64348600D01*
X149043599Y-64348600D01*
X149333125Y-64291010D01*
X149605853Y-64178042D01*
X149851302Y-64014039D01*
X150060039Y-63805302D01*
X150166000Y-63646719D01*
X150271961Y-63805302D01*
X150480698Y-64014039D01*
X150726147Y-64178042D01*
X150998875Y-64291010D01*
X151288401Y-64348600D01*
X151583599Y-64348600D01*
X151784485Y-64308642D01*
X153203653Y-65727810D01*
X153228236Y-65757764D01*
X153347767Y-65855862D01*
X153484140Y-65928754D01*
X153632113Y-65973642D01*
X153707026Y-65981020D01*
X153747439Y-65985000D01*
X153747444Y-65985000D01*
X153786000Y-65988797D01*
X153824556Y-65985000D01*
X163041880Y-65985000D01*
X163107111Y-66028586D01*
X163277271Y-66099068D01*
X163457911Y-66135000D01*
X163642089Y-66135000D01*
X163822729Y-66099068D01*
X163992889Y-66028586D01*
X164146028Y-65926262D01*
X164276262Y-65796028D01*
X164378586Y-65642889D01*
X164449068Y-65472729D01*
X164485000Y-65292089D01*
X164485000Y-65107911D01*
X164449068Y-64927271D01*
X164378586Y-64757111D01*
X164276262Y-64603972D01*
X164146028Y-64473738D01*
X163992889Y-64371414D01*
X163822729Y-64300932D01*
X163642089Y-64265000D01*
X163619918Y-64265000D01*
X163829853Y-64178042D01*
X164075302Y-64014039D01*
X164284039Y-63805302D01*
X164390000Y-63646719D01*
X164495961Y-63805302D01*
X164704698Y-64014039D01*
X164950147Y-64178042D01*
X165222875Y-64291010D01*
X165512401Y-64348600D01*
X165807599Y-64348600D01*
X166097125Y-64291010D01*
X166369853Y-64178042D01*
X166615302Y-64014039D01*
X166824039Y-63805302D01*
X166930000Y-63646719D01*
X167035961Y-63805302D01*
X167244698Y-64014039D01*
X167490147Y-64178042D01*
X167762875Y-64291010D01*
X168052401Y-64348600D01*
X168347599Y-64348600D01*
X168637125Y-64291010D01*
X168909853Y-64178042D01*
X169155302Y-64014039D01*
X169364039Y-63805302D01*
X169470000Y-63646719D01*
X169575961Y-63805302D01*
X169784698Y-64014039D01*
X170030147Y-64178042D01*
X170302875Y-64291010D01*
X170592401Y-64348600D01*
X170887599Y-64348600D01*
X171177125Y-64291010D01*
X171449853Y-64178042D01*
X171695302Y-64014039D01*
X171904039Y-63805302D01*
X172010000Y-63646719D01*
X172115961Y-63805302D01*
X172324698Y-64014039D01*
X172570147Y-64178042D01*
X172842875Y-64291010D01*
X173132401Y-64348600D01*
X173427599Y-64348600D01*
X173717125Y-64291010D01*
X173989853Y-64178042D01*
X174235302Y-64014039D01*
X174444039Y-63805302D01*
X174550000Y-63646719D01*
X174655961Y-63805302D01*
X174864698Y-64014039D01*
X175110147Y-64178042D01*
X175382875Y-64291010D01*
X175672401Y-64348600D01*
X175967599Y-64348600D01*
X176257125Y-64291010D01*
X176529853Y-64178042D01*
X176775302Y-64014039D01*
X176984039Y-63805302D01*
X177148042Y-63559853D01*
X177261010Y-63287125D01*
X177318600Y-62997599D01*
X177318600Y-62702401D01*
X177261010Y-62412875D01*
X177148042Y-62140147D01*
X176984039Y-61894698D01*
X176775302Y-61685961D01*
X176529853Y-61521958D01*
X176257125Y-61408990D01*
X175967599Y-61351400D01*
X175672401Y-61351400D01*
X175382875Y-61408990D01*
X175110147Y-61521958D01*
X174864698Y-61685961D01*
X174655961Y-61894698D01*
X174550000Y-62053281D01*
X174444039Y-61894698D01*
X174235302Y-61685961D01*
X173989853Y-61521958D01*
X173717125Y-61408990D01*
X173427599Y-61351400D01*
X173132401Y-61351400D01*
X172842875Y-61408990D01*
X172570147Y-61521958D01*
X172324698Y-61685961D01*
X172115961Y-61894698D01*
X172010000Y-62053281D01*
X171904039Y-61894698D01*
X171695302Y-61685961D01*
X171449853Y-61521958D01*
X171177125Y-61408990D01*
X170887599Y-61351400D01*
X170592401Y-61351400D01*
X170302875Y-61408990D01*
X170030147Y-61521958D01*
X169784698Y-61685961D01*
X169575961Y-61894698D01*
X169470000Y-62053281D01*
X169364039Y-61894698D01*
X169155302Y-61685961D01*
X168909853Y-61521958D01*
X168637125Y-61408990D01*
X168347599Y-61351400D01*
X168052401Y-61351400D01*
X167762875Y-61408990D01*
X167490147Y-61521958D01*
X167244698Y-61685961D01*
X167035961Y-61894698D01*
X166930000Y-62053281D01*
X166824039Y-61894698D01*
X166615302Y-61685961D01*
X166369853Y-61521958D01*
X166097125Y-61408990D01*
X165807599Y-61351400D01*
X165512401Y-61351400D01*
X165222875Y-61408990D01*
X164950147Y-61521958D01*
X164704698Y-61685961D01*
X164495961Y-61894698D01*
X164390000Y-62053281D01*
X164284039Y-61894698D01*
X164075302Y-61685961D01*
X163829853Y-61521958D01*
X163557125Y-61408990D01*
X163267599Y-61351400D01*
X162972401Y-61351400D01*
X162682875Y-61408990D01*
X162410147Y-61521958D01*
X162164698Y-61685961D01*
X161955961Y-61894698D01*
X161850000Y-62053281D01*
X161744039Y-61894698D01*
X161535302Y-61685961D01*
X161289853Y-61521958D01*
X161017125Y-61408990D01*
X160727599Y-61351400D01*
X160432401Y-61351400D01*
X160142875Y-61408990D01*
X159870147Y-61521958D01*
X159624698Y-61685961D01*
X159415961Y-61894698D01*
X159310000Y-62053281D01*
X159204039Y-61894698D01*
X158995302Y-61685961D01*
X158749853Y-61521958D01*
X158477125Y-61408990D01*
X158187599Y-61351400D01*
X157892401Y-61351400D01*
X157602875Y-61408990D01*
X157330147Y-61521958D01*
X157084698Y-61685961D01*
X156875961Y-61894698D01*
X156711958Y-62140147D01*
X156598990Y-62412875D01*
X156541400Y-62702401D01*
X156541400Y-62997599D01*
X156598990Y-63287125D01*
X156711958Y-63559853D01*
X156875961Y-63805302D01*
X157084698Y-64014039D01*
X157330147Y-64178042D01*
X157602875Y-64291010D01*
X157892401Y-64348600D01*
X158187599Y-64348600D01*
X158477125Y-64291010D01*
X158749853Y-64178042D01*
X158995302Y-64014039D01*
X159204039Y-63805302D01*
X159310000Y-63646719D01*
X159415961Y-63805302D01*
X159624698Y-64014039D01*
X159870147Y-64178042D01*
X160142875Y-64291010D01*
X160432401Y-64348600D01*
X160727599Y-64348600D01*
X161017125Y-64291010D01*
X161289853Y-64178042D01*
X161535302Y-64014039D01*
X161744039Y-63805302D01*
X161850000Y-63646719D01*
X161955961Y-63805302D01*
X162164698Y-64014039D01*
X162410147Y-64178042D01*
X162682875Y-64291010D01*
X162972401Y-64348600D01*
X163162189Y-64348600D01*
X163107111Y-64371414D01*
X163041880Y-64415000D01*
X154111157Y-64415000D01*
X154044757Y-64348600D01*
X154123599Y-64348600D01*
X154413125Y-64291010D01*
X154685853Y-64178042D01*
X154931302Y-64014039D01*
X155140039Y-63805302D01*
X155304042Y-63559853D01*
X155417010Y-63287125D01*
X155474600Y-62997599D01*
X155474600Y-62702401D01*
X155417010Y-62412875D01*
X155304042Y-62140147D01*
X155140039Y-61894698D01*
X154931302Y-61685961D01*
X154685853Y-61521958D01*
X154413125Y-61408990D01*
X154123599Y-61351400D01*
X153828401Y-61351400D01*
X153538875Y-61408990D01*
X153266147Y-61521958D01*
X153020698Y-61685961D01*
X152811961Y-61894698D01*
X152706000Y-62053281D01*
X152600039Y-61894698D01*
X152391302Y-61685961D01*
X152145853Y-61521958D01*
X151873125Y-61408990D01*
X151583599Y-61351400D01*
X151288401Y-61351400D01*
X150998875Y-61408990D01*
X150726147Y-61521958D01*
X150480698Y-61685961D01*
X150271961Y-61894698D01*
X150166000Y-62053281D01*
X150060039Y-61894698D01*
X149851302Y-61685961D01*
X149605853Y-61521958D01*
X149333125Y-61408990D01*
X149043599Y-61351400D01*
X148748401Y-61351400D01*
X148458875Y-61408990D01*
X148186147Y-61521958D01*
X147940698Y-61685961D01*
X147731961Y-61894698D01*
X147626000Y-62053281D01*
X147520039Y-61894698D01*
X147311302Y-61685961D01*
X147065853Y-61521958D01*
X146793125Y-61408990D01*
X146503599Y-61351400D01*
X146208401Y-61351400D01*
X145918875Y-61408990D01*
X145646147Y-61521958D01*
X145400698Y-61685961D01*
X145191961Y-61894698D01*
X145086000Y-62053281D01*
X144980039Y-61894698D01*
X144771302Y-61685961D01*
X144525853Y-61521958D01*
X144253125Y-61408990D01*
X143963599Y-61351400D01*
X143668401Y-61351400D01*
X143378875Y-61408990D01*
X143106147Y-61521958D01*
X142860698Y-61685961D01*
X142651961Y-61894698D01*
X142546000Y-62053281D01*
X142440039Y-61894698D01*
X142231302Y-61685961D01*
X141985853Y-61521958D01*
X141713125Y-61408990D01*
X141423599Y-61351400D01*
X141128401Y-61351400D01*
X140838875Y-61408990D01*
X140566147Y-61521958D01*
X140320698Y-61685961D01*
X140111961Y-61894698D01*
X140004308Y-62055813D01*
X139842854Y-61839707D01*
X139624488Y-61643183D01*
X139371978Y-61493036D01*
X139095027Y-61395037D01*
X138863000Y-61515536D01*
X138609000Y-61515536D01*
X138376973Y-61395037D01*
X138100022Y-61493036D01*
X137847512Y-61643183D01*
X137629146Y-61839707D01*
X137467692Y-62055813D01*
X137360039Y-61894698D01*
X137151302Y-61685961D01*
X136905853Y-61521958D01*
X136633125Y-61408990D01*
X136343599Y-61351400D01*
X136048401Y-61351400D01*
X135758875Y-61408990D01*
X135486147Y-61521958D01*
X135240698Y-61685961D01*
X135031961Y-61894698D01*
X134926000Y-62053281D01*
X134820039Y-61894698D01*
X134611302Y-61685961D01*
X134365853Y-61521958D01*
X134093125Y-61408990D01*
X133803599Y-61351400D01*
X133508401Y-61351400D01*
X133218875Y-61408990D01*
X132946147Y-61521958D01*
X132700698Y-61685961D01*
X132491961Y-61894698D01*
X132386000Y-62053281D01*
X132280039Y-61894698D01*
X132071302Y-61685961D01*
X131825853Y-61521958D01*
X131553125Y-61408990D01*
X131263599Y-61351400D01*
X130968401Y-61351400D01*
X130678875Y-61408990D01*
X130406147Y-61521958D01*
X130160698Y-61685961D01*
X129951961Y-61894698D01*
X129787958Y-62140147D01*
X129674990Y-62412875D01*
X129617400Y-62702401D01*
X123660000Y-62702401D01*
X123660000Y-62273380D01*
X125273381Y-60660000D01*
X187226620Y-60660000D01*
X189840001Y-63273382D01*
G37*
%TD.AperFunction*%
D23*
X147507000Y-108393000D02*
X147527000Y-108393000D01*
X147527000Y-108647000D01*
X147507000Y-108647000D01*
X147507000Y-108667000D01*
X147253000Y-108667000D01*
X147253000Y-108647000D01*
X147233000Y-108647000D01*
X147233000Y-108393000D01*
X147253000Y-108393000D01*
X147253000Y-108373000D01*
X147507000Y-108373000D01*
X147507000Y-108393000D01*
%TA.AperFunction,Conductor*%
D24*
G36*
X147507000Y-108393000D02*
G01*
X147527000Y-108393000D01*
X147527000Y-108647000D01*
X147507000Y-108647000D01*
X147507000Y-108667000D01*
X147253000Y-108667000D01*
X147253000Y-108647000D01*
X147233000Y-108647000D01*
X147233000Y-108393000D01*
X147253000Y-108393000D01*
X147253000Y-108373000D01*
X147507000Y-108373000D01*
X147507000Y-108393000D01*
G37*
%TD.AperFunction*%
%TD*%
M02*
