M48
; DRILL file {KiCad (5.1.9)-1} date 04/19/23 23:26:46
; FORMAT={-:-/ absolute / inch / decimal}
; #@! TF.CreationDate,2023-04-19T23:26:46+02:00
; #@! TF.GenerationSoftware,Kicad,Pcbnew,(5.1.9)-1
; #@! TF.FileFunction,Plated,1,2,PTH
FMAT,2
INCH
T1C0.0118
T2C0.0157
T3C0.0315
T4C0.0394
T5C0.0400
%
G90
G05
T1
X5.0374Y-2.872
X5.0433Y-2.9331
X5.0492Y-2.6949
X5.063Y-3.1181
X5.065Y-3.1476
X5.1398Y-2.6831
X5.1417Y-2.7953
X5.1555Y-2.9843
X5.1929Y-3.4646
X5.1988Y-3.2776
X5.2008Y-3.7244
X5.2106Y-2.5236
X5.2146Y-3.5591
X5.2638Y-3.9252
X5.2677Y-2.7913
X5.2717Y-2.689
X5.2736Y-3.8543
X5.2835Y-4.0689
X5.3307Y-4.252
X5.3563Y-3.5413
X5.3681Y-3.9055
X5.3701Y-4.1417
X5.372Y-3.2461
X5.3917Y-3.3898
X5.4055Y-3.4921
X5.4252Y-3.8031
X5.4331Y-4.1634
X5.4528Y-4.3366
X5.4567Y-3.6181
X5.4626Y-2.6614
X5.4646Y-3.4016
X5.4724Y-3.2402
X5.4882Y-2.7835
X5.5Y-4.0531
X5.5217Y-3.5374
X5.565Y-2.6713
X5.5756Y-3.0539
X5.5768Y-3.5965
X5.5787Y-3.2618
X5.5787Y-3.4724
X5.5827Y-3.3957
X5.6063Y-2.7913
X5.6063Y-4.1811
X5.6102Y-4.0531
X5.6756Y-3.0575
X5.6772Y-3.4705
X5.6831Y-3.2854
X5.7028Y-4.0492
X5.748Y-2.6772
X5.748Y-4.1063
X5.7815Y-2.7618
X5.7854Y-3.0197
X5.7913Y-3.2618
X5.8012Y-4.0512
X5.8071Y-3.6063
X5.8228Y-2.6791
X5.8327Y-3.4488
X5.8445Y-4.122
X5.876Y-2.8307
X5.9213Y-4.061
X5.9409Y-3.2323
X5.9508Y-3.5965
X5.9528Y-3.4469
X5.9843Y-3.2343
X5.9862Y-4.1102
X6.0138Y-2.815
X6.0157Y-3.3524
X6.0295Y-2.9567
X6.0591Y-4.0512
X6.0669Y-3.4606
X6.1024Y-2.9606
X6.128Y-4.126
X6.1358Y-3.3602
X6.1378Y-2.4705
X6.1437Y-3.6063
X6.1535Y-3.0315
X6.1791Y-4.0846
X6.189Y-4.1437
X6.1909Y-3.2461
X6.2087Y-3.4606
X6.2618Y-3.5709
X6.2717Y-3.9469
X6.2736Y-3.8091
X6.2756Y-3.6307
X6.3209Y-4.374
X6.3228Y-3.2618
X6.3228Y-3.3563
X6.3327Y-2.7736
X6.3327Y-2.8799
X6.3327Y-3.5138
X6.3543Y-4.2343
X6.3583Y-4.1713
X6.3661Y-3.815
X6.3701Y-3.9134
X6.376Y-3.5787
X6.378Y-3.9764
X6.4055Y-4.1535
X6.4311Y-3.4646
X6.439Y-2.5669
X6.4567Y-3.25
X6.4626Y-4.0709
X6.4823Y-3.5039
X6.502Y-4.1299
X6.5197Y-3.8071
X6.5217Y-3.6299
X6.5512Y-3.3839
X6.565Y-3.563
X6.5846Y-3.2402
X6.5866Y-3.3189
X6.626Y-3.6496
X6.6476Y-3.9409
X6.6555Y-3.7146
X6.6929Y-3.9961
X6.7087Y-3.5827
X6.7224Y-4.3012
X6.7303Y-3.0118
X6.7343Y-3.6555
X6.7402Y-3.4823
X6.7441Y-3.4035
X6.7441Y-3.8091
X6.7461Y-3.9823
X6.7559Y-4.0157
X6.7579Y-4.1969
X6.7776Y-3.2402
X6.7835Y-3.1654
X6.8524Y-3.3878
X6.8661Y-3.563
X6.872Y-3.8012
X6.9311Y-3.6516
X6.9409Y-3.187
X6.9488Y-3.9134
X6.9528Y-3.4941
X6.9606Y-3.8031
X6.9921Y-4.1988
X6.9941Y-3.311
X7.0098Y-4.315
X7.0177Y-3.8524
X7.0236Y-4.122
X7.0354Y-3.0335
X7.0394Y-3.0787
X7.0531Y-3.75
X7.0591Y-4.0413
X7.065Y-3.9232
X7.0669Y-3.0492
X7.0689Y-3.1988
X7.1004Y-3.0492
X7.1083Y-2.4705
X7.126Y-3.8583
X7.1319Y-3.1063
X7.1378Y-3.1555
X7.1457Y-2.7854
X7.1496Y-2.4705
X7.1575Y-3.6437
X7.1614Y-3.9764
X7.1752Y-2.7874
X7.2146Y-3.2224
X7.2264Y-2.7874
X7.2579Y-2.7933
X7.2579Y-2.8346
X7.2618Y-3.8563
X7.2815Y-2.8622
X7.2854Y-3.1063
X7.3031Y-3.624
X7.3169Y-3.3898
X7.3425Y-3.2638
X7.3819Y-2.7598
X7.3898Y-2.7303
X7.3957Y-2.9232
X7.4114Y-3.1791
X7.4213Y-2.7264
X7.4232Y-2.7598
X7.439Y-3.1201
X7.4449Y-2.9193
T2
X6.2874Y-4.2264
X6.3287Y-2.7106
X6.561Y-3.9528
X6.7126Y-3.7539
X6.747Y-4.1427
X7.0335Y-3.5531
X7.0748Y-3.9783
X7.1181Y-3.5
X7.2598Y-2.5866
X7.3366Y-2.6791
X7.3366Y-2.9272
T3
X5.115Y-2.5906
X5.115Y-2.8906
X5.215Y-2.5906
X5.215Y-2.8906
X5.315Y-2.5906
X5.315Y-2.8906
X5.4024Y-3.9724
X5.4024Y-4.2724
X5.415Y-2.5906
X5.415Y-2.8906
X5.5024Y-3.9724
X5.5024Y-4.2724
X5.515Y-2.5906
X5.515Y-2.8906
X5.6024Y-3.9724
X5.6024Y-4.2724
X5.615Y-2.5906
X5.615Y-2.8906
X5.7024Y-3.9724
X5.7024Y-4.2724
X5.715Y-2.5906
X5.715Y-2.8906
X5.8024Y-3.9724
X5.8024Y-4.2724
X5.815Y-2.5906
X5.815Y-2.8906
X5.9024Y-3.9724
X5.9024Y-4.2724
X6.0024Y-3.9724
X6.0024Y-4.2724
X6.1024Y-3.9724
X6.1024Y-4.2724
T4
X5.2756Y-3.1362
X5.2756Y-3.7362
X5.3756Y-3.1362
X5.3756Y-3.7362
X5.4756Y-3.1362
X5.4756Y-3.7362
X5.5756Y-3.1362
X5.5756Y-3.7362
X5.6756Y-3.1362
X5.6756Y-3.7362
X5.7756Y-3.1362
X5.7756Y-3.7362
X5.8756Y-3.1362
X5.8756Y-3.7362
X5.9756Y-3.1362
X5.9756Y-3.7362
X6.0756Y-3.1362
X6.0756Y-3.7362
X6.1756Y-3.1362
X6.1756Y-3.7362
X6.2756Y-3.1362
X6.2756Y-3.7362
X6.3756Y-3.1362
X6.3756Y-3.7362
X6.4756Y-3.1362
X6.4756Y-3.7362
X6.5756Y-3.1362
X6.5756Y-3.7362
X7.2Y-3.5
X7.2Y-3.75
X7.3Y-3.5
X7.3Y-3.75
T5
X5.162Y-2.4744
X5.262Y-2.4744
X5.362Y-2.4744
X5.462Y-2.4744
X5.522Y-4.3744
X5.562Y-2.4744
X5.622Y-4.3744
X5.662Y-2.4744
X5.722Y-4.3744
X5.762Y-2.4744
X5.822Y-4.3744
X5.862Y-2.4744
X5.922Y-4.3744
X5.962Y-2.4744
X6.022Y-4.3744
X6.062Y-2.4744
X6.122Y-4.3744
X6.222Y-2.4744
X6.222Y-4.3744
X6.322Y-2.4744
X6.422Y-2.4744
X6.422Y-4.3744
X6.522Y-2.4744
X6.522Y-4.3744
X6.622Y-2.4744
X6.622Y-4.3744
X6.722Y-2.4744
X6.722Y-4.3744
X6.822Y-2.4744
X6.822Y-4.3744
X6.922Y-2.4744
X6.922Y-4.3744
T0
M30
